<svg width="1480" height="1194" viewBox="0 0 1480 1194" fill="none" xmlns="http://www.w3.org/2000/svg">
<path fill-rule="evenodd" clip-rule="evenodd" d="M937.081 759.598C937.075 775.212 970.65 792.587 984.983 801.561C1013.32 819.31 1042.81 835.683 1072.02 852.321C1101.23 868.959 1130.52 885.551 1158.36 903.84C1176.44 915.712 1197.69 929.079 1209.89 946.106C1235.9 982.393 1153.27 977.436 1131.86 978.351C1077.37 980.685 1014.9 980.099 963.735 999.35C933.191 1010.84 920.928 1029.9 927.315 1057.55C929.373 1066.54 935.559 1076.87 930.217 1085.67C924.514 1095.06 911.485 1100.54 900.676 1104.22C861.254 1117.65 816.006 1119.42 774.366 1121.31C729.464 1123.38 684.155 1123.09 639.58 1123.48C620.679 1123.64 600.906 1129.61 582.88 1134.47C559.248 1140.85 535.892 1147.99 512.453 1154.9C460.888 1170.06 407.752 1186.02 353.265 1190.1C319.143 1192.66 281.882 1189.66 255.504 1169.21C242.26 1158.94 235.386 1143.61 227.773 1129.99C218.558 1113.54 209.713 1096.94 199.894 1080.75C168.266 1028.63 122.973 977.77 48.9948 975.608C37.8033 975.282 26.8028 976.604 15.6606 976.901C8.56476 977.086 2.25904 975.641 -0.34158 969.248C-6.87974 953.214 14.1082 927.731 22.7272 914.934C41.5987 886.921 62.8525 860.148 82.7757 832.689C95.9568 814.53 118.734 789.688 119.098 767.71C119.422 748.128 89.3305 734.14 72.9595 724.586C57.6189 715.64 29.8025 703.156 28.2203 684.796C27.454 675.893 34.3013 668.474 41.4398 662.707C53.952 652.62 68.3408 645.474 79.6109 633.982C98.092 615.129 113.591 589.243 111.242 563.988C109.612 546.489 98.1048 535.086 83.4452 524.206C77.2841 519.631 72.2811 516.398 71.9971 508.918C71.5381 497.04 77.0016 484.438 81.5067 473.398C97.6223 433.889 120.409 395.646 145.718 359.916C158.364 342.06 172.018 324.253 188.738 308.989C199.688 298.966 214.447 287.027 231.064 286.949C250.302 286.844 270.624 292.725 289.298 297.103C324.176 305.286 358.624 314.778 392.934 324.521C472.279 347.063 550.867 371.471 628.696 397.743C683.516 416.281 739.503 434.839 791.001 459.601C801.044 464.465 810.518 470.147 819.293 476.572C828.67 483.32 840.336 486.297 852.171 488.5C925.624 502.172 1006.25 490.924 1080.13 483.743C1098.88 481.924 1117.63 480.095 1136.43 478.79C1152.6 477.667 1171.96 474.597 1187.64 478.964C1218.53 487.56 1191.29 520.018 1179.78 533.245C1139.25 579.819 1087.07 619.321 1038.69 659.622C1015.69 678.814 992.511 697.957 970.746 718.221C959.413 728.757 937.086 745.91 937.081 759.598Z" stroke="black" stroke-width="5" style="mix-blend-mode:soft-light"/>
<path fill-rule="evenodd" clip-rule="evenodd" d="M923.19 762.306C935.436 778.761 957.019 790.855 974.927 802.25C1000.7 818.653 1027.29 834.133 1053.47 850.066C1078.23 865.132 1103.04 880.371 1125.95 897.51C1139.92 907.961 1157.45 920.455 1164.01 935.99C1178.23 969.662 1100.7 964.967 1081.55 965.955C1033.94 968.401 979.977 969.197 935.84 987.209C908.279 998.457 896.877 1016.92 902.594 1042.44C904.57 1051.27 908.18 1058.79 903.505 1067.61C898.099 1077.82 885.763 1084.23 874.462 1088.77C839.062 1103 797.295 1106.21 758.995 1108.9C719.427 1111.68 678.206 1113.71 639.936 1112.05C624.632 1111.39 606.987 1115.72 591.819 1119.05C568.479 1124.19 545.373 1130.09 522.148 1135.59C474.946 1146.77 426.522 1157.56 377.477 1159.03C342.067 1160.09 305.181 1155.6 275.83 1137.64C246.085 1119.43 233.005 1091.02 216.607 1064.03C188.288 1017.37 150.002 960.665 83.9171 951.137C73.8963 949.69 64.2528 950.557 54.236 950.244C49.0851 950.085 43.2239 949.526 40.6362 945.157C33.9186 933.815 52.6247 912.907 58.9302 904.156C76.3513 879.973 95.9141 856.957 114.161 833.235C128.654 814.398 147.006 793.455 152.698 771.19C159.605 744.17 115.602 725.213 100.197 706.299C73.4922 673.501 124.555 654.45 149.767 638.604C178.719 620.412 202.721 587.381 177.021 559.621C167.19 549.006 155.054 542.714 150.716 528.814C143.932 507.077 149.301 482.163 155.031 460.608C163.664 428.203 177.214 396.122 195.551 366.777C208.689 345.768 230.473 312.817 262.084 315.106C283.363 316.633 304.971 322.518 325.67 327.711C356.663 335.484 387.259 344.369 417.689 353.606C487.934 374.868 557.39 398.355 625.466 424.236C671.915 441.9 801.349 514.421 811.105 516.98C840.193 524.604 873.324 523.052 903.367 521.681C943.331 519.86 983.108 515.49 1022.85 511.426C1041.77 509.502 1060.79 507.172 1079.8 506.171C1093.33 505.459 1111.1 504.816 1122.92 511.537C1145.97 524.651 1120.03 555.089 1109.29 567.965C1076.42 607.44 1034.92 641.695 995.998 676.701C976.897 693.888 957.505 711.049 940.148 729.597C933.148 737.086 915.621 752.143 923.19 762.306Z" stroke="#489A45" stroke-width="5" style="mix-blend-mode:soft-light"/>
<path fill-rule="evenodd" clip-rule="evenodd" d="M906.067 770.874C939.581 803.753 985.959 828.089 1025.95 855.482C1046.02 869.236 1066.22 883.366 1083.5 899.785C1092.49 908.322 1103.72 919.119 1105.39 931.08C1109.86 963.075 1039.99 959.129 1019.06 960.459C978.595 963.04 932.888 965.08 896.097 981.622C873.619 991.734 862.483 1008.19 866.55 1029.72C868.352 1039.27 871.198 1047.37 866.394 1056.79C861.525 1066.33 851.459 1073.09 841.275 1078.18C812.01 1092.81 775.719 1097.63 742.844 1101.26C704.279 1105.49 665.438 1107.27 626.635 1106.59C592.65 1106 558.774 1114.85 525.553 1120.73C481.545 1128.53 436.745 1135.37 391.762 1134.62C356.236 1134.02 320.461 1128 290.182 1111.62C259.414 1094.94 241.002 1069.83 224.428 1042.71C199.373 1001.72 168.171 946.775 112.775 931.458C104.718 929.226 97.1984 929.016 88.8775 928.666C84.8357 928.497 79.6162 928.466 77.6316 924.839C72.858 916.106 90.7899 899.025 95.8011 893.079C111.796 874.097 129.122 855.959 145.512 837.225C160.812 819.735 177.474 801.505 187.033 781.056C202.247 748.488 154.317 729.756 155.841 698.793C156.791 679.57 178.198 665.671 195.143 656.044C216.005 644.206 245.991 636.333 256.522 614.882C264.367 598.904 252.255 589.696 242.956 577.654C227.199 557.253 226.277 529.485 228.065 505.76C230.477 473.699 239.368 441.129 254.353 411.59C261.143 398.199 269.446 384.262 281.613 373.824C293.011 364.041 303.761 361.492 318.908 363.398C365.276 369.245 412.03 385.993 456.44 400.938C512.239 419.718 567.256 440.486 620.611 463.901C656.993 479.868 694.194 496.769 726.081 518.931C734.391 524.708 742.9 530.99 748.957 538.638C753.536 544.386 755.467 549.142 763.222 552.396C786.209 562.035 818.277 559.305 842.973 558.154C882.461 556.322 921.774 551.803 961.032 547.714C983.941 545.311 1027.11 537.913 1045.3 554.991C1060.99 569.738 1041.8 595.135 1032 608.255C1007.21 641.436 975.387 670.613 945.849 700.637C932.311 714.397 918.245 728.265 907.042 743.542C904.181 747.437 899.601 752.602 898.793 757.319C897.886 762.723 901.953 766.822 906.067 770.874Z" stroke="black" stroke-width="5" style="mix-blend-mode:soft-light"/>
<path fill-rule="evenodd" clip-rule="evenodd" d="M903.214 763.193C934.189 792.256 971.572 816.068 1004.85 843.242C1019.77 855.426 1034.84 868.21 1046.17 883.111C1052.27 891.125 1058.74 901.218 1056.98 911.229C1051.96 939.962 994.482 937.684 971.246 939.493C936.72 942.152 897.057 944.857 866.452 960.503C846.403 970.751 838.821 985.765 842.442 1005.06C846.329 1025.75 837.285 1040.83 816.832 1052.5C791.189 1067.12 758.892 1073.19 729.191 1077.55C693.407 1082.77 657.187 1085.2 620.971 1084.8C585.75 1084.41 551.594 1089.69 516.582 1093.2C470.162 1097.84 422.267 1100.26 376.447 1091.52C336.554 1083.91 300.578 1066.85 273.689 1040.3C245.604 1012.6 231.823 977.577 209.064 946.882C194.87 927.737 175.068 902.416 148.38 895.09C139.479 892.647 123.211 896.098 130.403 883.798C134.513 876.763 142.166 870.57 148.217 864.805C157.993 855.488 168.091 846.425 178.03 837.235C199.215 817.644 221.896 797.631 237.823 774.484C257.891 745.341 228.438 723.158 232.212 693.698C234.241 677.845 247.078 665.13 260.638 655.123C269.411 648.641 279.003 643.016 288.793 637.764C299.018 632.276 311.103 628.073 320.033 621.002C332.759 610.941 327.327 599.142 325.026 586.237C320.976 563.559 320.191 540.503 322.687 517.595C325.742 489.515 332.691 460.612 347.128 435.031C352.743 425.072 359.846 414.508 370.341 407.793C380.837 401.079 391.65 401.475 403.621 403.414C439.128 409.143 474.516 422.732 508.156 435.61C550.26 451.732 591.524 469.781 630.909 490.356C658.096 504.559 685.367 519.915 708.069 539.251C714.672 544.878 720.95 550.908 726.015 557.651C729.494 562.275 731.338 568.257 736.396 571.719C752.222 582.527 784.14 579.098 802.778 578.363C839.973 576.897 876.61 570.695 913.76 569.033C934.034 568.124 965.792 565.945 980.592 580.759C994.51 594.684 981.704 616.807 973.26 630.345C956.664 656.964 934.436 680.719 914.494 705.488C906.295 715.68 897.313 726.346 891.973 737.962C887.226 748.313 895.275 755.741 903.214 763.193Z" stroke="#489A45" stroke-width="5" style="mix-blend-mode:soft-light"/>
<path fill-rule="evenodd" clip-rule="evenodd" d="M895.556 762.756C920.198 788.346 949.951 811.019 974.77 837.026C989.297 852.256 1014.32 877.858 1002.89 899.505C990.354 923.292 947.126 924.175 922.13 926.223C892.38 928.661 857.44 931.961 831.906 946.911C823.83 951.637 816.937 957.871 813.984 966.05C810.822 974.803 814.18 982.428 814.573 991.171C815.395 1009.51 802.62 1024.31 785.768 1034.52C761.951 1048.95 732.232 1055.87 704.172 1060.74C672.38 1066.23 640.078 1069.03 607.726 1069.09C576.807 1069.17 546.212 1069.93 515.258 1070.78C474.777 1071.92 433.74 1070.67 394.53 1061.61C355.905 1052.68 320.839 1035.73 293.363 1010.67C266.557 986.215 248.549 956.244 232.802 925.701C223.867 908.365 208.753 882.468 187.252 873.805C177.691 869.949 168.285 870.269 178.534 860.048C191.44 847.179 208.794 836.815 223.721 825.786C245.252 809.871 267.324 793.643 285.428 774.762C296.99 762.705 302.179 751.038 301.477 735.513C300.934 723.687 298.227 711.995 299.698 700.112C303.145 672.22 328.693 652.966 351.286 635.043C365.82 623.516 379.083 614.712 386.624 598.387C395.543 579.092 399.361 558.133 405.363 538.117C411.955 516.137 419.556 493.269 433.781 473.863C446.444 456.586 461.769 448.785 484.612 453.296C520.241 460.326 555.298 477.933 586.871 494.225C619.007 510.801 650.576 529.465 677.153 552.346C691.502 564.702 701.26 579.249 713.989 592.537C730.001 609.22 766.478 602.668 788.143 601.13C824.108 598.576 937.33 580.319 926.563 637.497C922.069 661.363 904.784 683.461 892.115 704.569C886.864 713.329 879.277 723.849 878.043 733.861C876.699 744.765 888.148 755.053 895.556 762.756Z" stroke="#F3F3F3" stroke-width="5"/>
<path fill-rule="evenodd" clip-rule="evenodd" d="M882.48 760.644C901.29 783.853 923.835 805.753 939.945 830.842C950.395 847.091 960.625 868.822 946.923 886.15C931.457 905.705 897.577 910.429 872.687 913.047C847.043 915.741 816.435 918.058 795.402 932.936C788.711 937.675 783.18 944.047 782.114 951.646C781.086 958.935 783.828 966.203 782.862 973.624C780.7 990.288 768.921 1004.07 753.779 1014.11C708.989 1043.79 642.54 1050.7 588.698 1051.77C561.749 1052.3 534.027 1050.44 506.914 1049.15C471.731 1047.48 436.508 1043.67 402.999 1034.2C331.755 1014.06 284.186 968.813 251.106 912.36C240.695 894.59 232.761 875.346 216.367 861.11C207.915 853.759 209.802 848.437 218.525 841.642C232.162 831.025 248.769 822.876 263.888 813.994C285.393 801.362 307.357 788.54 326.398 773.445C339.523 763.04 348.854 753.033 351.759 737.521C353.831 726.462 353.427 715.206 354.698 704.083C357.119 682.952 365.111 661.949 379.147 644.355C390.3 630.41 403.553 617.719 417.247 605.612C435.047 589.85 450.118 573.853 463.675 555.187C481.648 530.479 506.964 484.946 548.895 496.729C595.143 509.731 638.367 543.176 667.9 575.649C677.817 586.552 685.933 599.945 699.347 607.952C719.429 619.919 739.878 619.383 763.847 619.202C799.731 618.936 877.855 611.784 878.431 658.177C878.657 676.558 869.341 693.989 864.826 711.695C859.735 731.525 869.633 744.827 882.48 760.644Z" stroke="black" stroke-width="5" style="mix-blend-mode:soft-light"/>
<path fill-rule="evenodd" clip-rule="evenodd" d="M868.383 758.643C886.946 788.924 928.676 838.621 896.523 872.583C879.539 890.531 849.642 897.405 824.572 901.541C804.396 904.886 780.08 906.234 764.771 920.029C753.519 930.171 758.404 944.815 754.042 957.458C748.629 973.132 736.338 986 721.269 995.704C679.159 1022.82 620.776 1031.4 570.297 1033.43C517.871 1035.54 460.165 1027.34 410.935 1011.24C349.552 991.156 303.7 952.741 271.76 903.95C265.867 894.944 260.519 885.698 254.863 876.581C251.064 870.465 245.411 864.559 242.425 858.121C237.455 847.385 243.435 838.554 252.981 831.487C266.713 821.313 283.552 814.033 299.184 806.369C320.561 795.88 342.413 785.574 362.313 773.297C375.685 765.035 389.684 756.138 394.535 741.904C397.846 732.197 398.58 721.93 398.522 711.895C398.393 690.379 399.801 672.971 411.552 653.2C430.888 620.741 460.503 591.488 491.751 567.111C516.275 547.98 555.076 518.257 590.575 530.763C622.425 541.961 640.938 569.081 661.839 590.975C672.001 601.618 683.429 611.327 696.879 618.864C713.837 628.365 729.83 632.303 749.978 633.762C783.888 636.219 835.04 636.625 845.325 671.687C849.122 684.626 846.834 698.063 848.79 711.181C851.343 728.526 859.018 743.368 868.383 758.643Z" stroke="black" stroke-width="5" style="mix-blend-mode:soft-light"/>
<path fill-rule="evenodd" clip-rule="evenodd" d="M848.905 757.624C862.056 790.797 879.344 832.6 846.947 862.325C831.254 876.724 809.25 884.847 787.965 890.943C772.72 895.312 748.546 896.706 739.139 909.933C732.23 919.666 731.204 933.047 724.944 943.47C716.343 957.798 703.369 969.633 688.175 978.924C648.592 1003.14 597.164 1012.69 550.297 1015.6C448.463 1021.92 345.145 976.607 291.105 901.415C274.992 879.002 254.164 855.166 280.545 832.032C309.348 806.795 352.587 794.808 386.894 776.8C400.002 769.924 416.703 761.653 424.065 749.294C428.494 741.865 428.848 732.572 429.096 724.419C429.742 703.654 431.848 684.97 441.634 665.543C456.747 635.522 480.73 607.77 507.858 584.996C531.516 565.138 565.226 541.768 599.338 555.804C625.492 566.59 641.986 589.698 662.258 606.687C684.818 625.609 712.78 638.289 743.532 644.391C773.446 650.311 806.272 654.234 821.907 679.998C827.27 688.835 832.861 700.285 834.834 710.089C838.018 726.252 842.723 742.15 848.905 757.624V757.624Z" stroke="#F3F3F3" stroke-width="5"/>
<path fill-rule="evenodd" clip-rule="evenodd" d="M827.181 757.509C833.16 791.047 833.644 826.049 804.812 852.665C791.355 865.083 774.384 873.945 757.229 881.984C744.606 887.9 731.578 892.902 722.121 902.539C713.359 911.461 706.678 921.801 698.216 930.954C687.052 943.083 673.718 953.603 658.726 962.109C621.144 983.392 575.519 993.5 531.903 997.158C510.789 998.936 487.892 999.927 466.956 995.511C446.737 991.251 426.76 984.449 408.192 976.492C368.721 959.593 334.571 934.715 309.893 903.161C292.971 881.517 283.876 860.431 306.078 838.259C331.108 813.266 370.209 799.337 402.464 783.029C424.587 771.843 449.373 760.862 453.629 737.326C457.019 718.598 459.785 700.826 468.376 683.094C481.161 656.94 499.874 633.208 523.405 613.307C544.924 595.177 572.104 579.743 602.681 589.196C626.907 596.699 645.639 613.702 666.773 625.816C690.325 639.346 716.245 646.735 743.551 652.641C768.09 657.97 791.177 666.239 806.955 683.978C810.184 687.603 813.574 691.55 816.057 695.611C819.224 700.794 818.947 705.949 819.541 711.774C821.088 727.146 824.477 742.33 827.181 757.509Z" stroke="black" stroke-width="5" style="mix-blend-mode:soft-light"/>
<path fill-rule="evenodd" clip-rule="evenodd" d="M803.21 760.385C802.499 792.275 793.44 822.461 768.959 847.445C758.493 858.133 746.018 866.957 734.513 876.762C725.25 884.666 716.496 892.01 705.858 898.54C680.626 914.002 660.077 933.943 633.277 947.735C597.501 966.173 556.583 976.481 516.017 980.735C496.209 982.814 475.754 983.615 455.738 981.499C438.546 979.682 422.11 973.064 406.867 966.284C376.991 953.004 348.017 934.054 328.707 909.985C286.135 856.921 370.899 817.705 414.421 794.774C434.436 784.225 464.997 771.968 473.29 751.245C479.219 736.441 482.865 721.399 490.473 707.042C510.908 668.485 552.202 623.042 606.849 628.762C630.233 631.205 651.499 641.537 673.302 648.431C695.752 655.532 718.943 659.431 742.295 663.722C764.12 667.73 781.499 673.508 795.521 689.179C802.222 696.662 801.575 705.668 802.123 714.891C803.016 730.04 803.535 745.279 803.21 760.385Z" stroke="black" stroke-width="5" style="mix-blend-mode:soft-light"/>
<path fill-rule="evenodd" clip-rule="evenodd" d="M781.374 764.589C772.312 812.769 739.383 865.494 691.247 893.71C634.626 926.9 573.331 954.924 505.861 963.254C474.581 967.116 440.328 969.12 410.901 957.213C388.506 948.156 362.51 934.578 350.267 915.349C320.314 868.316 387.759 830.374 426.187 808.328C446.876 796.46 473.192 784.861 488.833 767.609C497.908 757.607 502.587 744.415 509.931 733.444C532.184 700.196 568.655 673.277 613.922 668.251C634.852 665.929 655.907 668.544 676.653 670.601C697.89 672.705 719.396 673.793 740.496 676.776C757.339 679.16 777.181 683.242 783.3 698.777C791.017 718.354 785.072 744.913 781.374 764.589Z" stroke="#489A45" stroke-width="5" style="mix-blend-mode:soft-light"/>
<path fill-rule="evenodd" clip-rule="evenodd" d="M759.94 772.438C746.867 817.76 719.482 862.05 673.718 889.315C649.448 903.772 621.314 913.815 594.302 923.733C563.682 934.973 531.708 943.743 499.076 948.185C458.447 953.719 392.667 958.867 371.686 919.06C350.862 879.549 404.264 844.185 435.838 824.026C456.082 811.112 477.736 799.242 497.088 785.139C507.581 777.494 515.681 768.682 524.575 759.733C549.158 734.939 584.113 715.226 619.687 704.61C654.164 694.319 696.771 689.612 733.085 692.752C748.753 694.1 759.931 698.881 764.593 712.619C771.052 731.718 765.344 753.716 759.94 772.438Z" stroke="black" stroke-width="5" style="mix-blend-mode:soft-light"/>
<path fill-rule="evenodd" clip-rule="evenodd" d="M738.616 784.743C725.659 824.655 697.996 861.197 657.814 885.329C612.772 912.382 554.886 927.595 501.717 935.461C473.456 939.639 412.199 950.884 397.985 919.743C383.772 888.602 425.558 857.607 449.604 840.539C478.789 819.855 510.24 799.866 541.647 781.279C568.934 765.118 598.047 748.589 627.574 736.063C644.228 728.957 661.567 723.135 679.386 718.665C692.58 715.382 709.362 710.5 723.162 712.814C757.97 718.661 744.813 765.659 738.616 784.743Z" stroke="#F3F3F3" stroke-width="5"/>
<path fill-rule="evenodd" clip-rule="evenodd" d="M712.312 796.818C683.952 872.318 595.258 909.86 509.992 923.244C490.179 926.351 434.622 937.466 423.689 914.51C413.095 892.252 447.35 865.6 463.387 852.973C513.083 813.848 574.371 784.704 632.454 755.846C650.584 746.838 683.301 727.328 705.675 736.122C729.968 745.689 718.188 781.162 712.312 796.818Z" stroke="#489A45" stroke-width="5" style="mix-blend-mode:soft-light"/>
<path fill-rule="evenodd" clip-rule="evenodd" d="M683.618 811.471C659.012 867.092 588.19 899.304 523.185 910.151C507.263 912.806 466.817 921.02 454.858 905.602C443.791 891.339 470.518 870.438 480.52 862.136C502.787 843.649 529.138 828.376 555.168 813.692C579.236 800.106 603.564 786.182 628.873 774.664C642.203 768.601 667.214 755.684 682.269 764.85C698.478 774.71 689.081 799.121 683.618 811.471Z" stroke="#489A45" stroke-width="5" style="mix-blend-mode:soft-light"/>
<path fill-rule="evenodd" clip-rule="evenodd" d="M652.002 827.856C633.283 864.193 583.571 887.995 539.794 896.054C528.014 898.218 502.55 903.804 492.678 894.181C483.591 885.319 498.395 872.173 504.967 866.104C534.092 839.199 576.656 815.077 615.613 800.191C625.407 796.448 643.018 789.111 653.029 796.502C663.298 804.091 656.302 819.512 652.002 827.856Z" stroke="black" stroke-width="5" style="mix-blend-mode:soft-light"/>
<path fill-rule="evenodd" clip-rule="evenodd" d="M618.475 843.258C607.94 861.308 580.601 875.033 557.994 879.478C542.084 882.604 522.995 880.084 536.936 864.346C550.785 848.727 576.397 834.391 598.072 827.979C614.609 823.089 627.521 827.753 618.475 843.258Z" stroke="black" stroke-width="5" style="mix-blend-mode:soft-light"/>
<path fill-rule="evenodd" clip-rule="evenodd" d="M1465.04 714.003C1465.5 749.547 1487.18 786.371 1476.16 822.652C1467.11 852.449 1422.41 855.178 1395.53 868.803C1374.16 879.627 1361.97 898.662 1350.34 916.924C1339.9 933.32 1330.5 950.201 1319.51 966.332C1312.39 976.76 1300.15 997.227 1284.84 997.68C1270.18 998.115 1256.84 982.291 1248.38 972.94C1237.35 960.751 1227.59 947.746 1216.88 935.36C1198.84 914.467 1177.14 899.048 1152.27 884.479C1123.97 867.902 1095.2 851.898 1065.95 836.469C1044.42 825.075 1022.75 813.768 1002.06 801.232C989.083 793.366 960.429 778.631 960.382 763.999C960.359 757.017 968.067 749.242 973.267 743.632C982.066 734.137 992.082 725.444 1002.13 716.938C1020.84 701.093 1040.34 685.957 1059.63 670.641C1084.66 650.763 1108.58 631.214 1130.61 608.682C1153.4 585.36 1175.17 561.278 1197.39 537.522C1212.44 521.429 1227.48 503.366 1249.11 493.422C1276.2 480.992 1298.3 493.821 1325.62 493.821C1349.12 493.824 1347.12 540.849 1350.03 553.906C1352.95 567.121 1359.49 579.403 1361.97 592.653C1365.07 609.193 1365.01 626.132 1365.7 642.862C1366.54 663.326 1366.8 682.811 1392.1 690.477C1406.5 694.833 1422.09 695.68 1437.01 698.255C1446.67 699.925 1464.89 702.773 1465.04 714.003Z" stroke="#F3F3F3" stroke-width="5"/>
<path fill-rule="evenodd" clip-rule="evenodd" d="M1453.45 720.389C1455.74 750.174 1470.07 788.233 1456.13 819.068C1444.22 845.419 1407.43 849.028 1382.58 862.972C1362.08 874.473 1352.87 893.16 1342.54 911.525C1334.26 926.257 1326.23 941.129 1316.84 955.398C1309.92 965.913 1299.35 983.66 1285.07 985.907C1272.24 987.927 1258.58 972.386 1251.43 964.48C1241 952.939 1232.1 940.392 1222.89 928.111C1206.72 906.539 1190.15 887.151 1166.39 871.369C1142.52 855.519 1116.38 843.714 1089.97 831.423C1069.3 821.805 1048.74 811.905 1029.12 800.779C1014.5 792.496 993.475 781.906 986.851 767.028C981.606 755.258 1008.66 735.53 1016.65 728.576C1033.08 714.277 1050.49 700.843 1067.93 687.491C1089.19 671.221 1111.11 656.974 1129.91 638.445C1163.53 605.315 1191.71 564.134 1234.87 539.412C1260.9 524.5 1289.79 520.565 1318.63 522.617C1330.06 523.429 1332.72 537.34 1334.11 545.455C1336.43 558.935 1336.65 572.66 1338.42 586.198C1340.07 598.871 1343.83 610.9 1346.84 623.319C1349.89 635.903 1350.69 648.809 1352.92 661.483C1354.3 669.352 1355.66 678.51 1361.85 684.808C1368.26 691.328 1378.88 694.017 1388.16 696.053C1405.6 699.838 1451.83 699.37 1453.45 720.389Z" stroke="black" stroke-width="5" style="mix-blend-mode:soft-light"/>
<path fill-rule="evenodd" clip-rule="evenodd" d="M1438.5 732.945C1442.49 760.275 1448.09 794.31 1431.07 819.604C1417.15 840.284 1387.7 844.891 1366.61 858.432C1349.06 869.693 1342.36 887.486 1333.58 904.035C1326.39 917.61 1319.15 931.243 1310.45 944.171C1303.84 953.975 1295.33 967.265 1282.32 970.744C1271.19 973.717 1258.72 960.742 1252.59 954.283C1242.17 943.276 1233.69 930.925 1225.27 918.738C1211.49 898.795 1198.83 877.482 1179.15 861.308C1160.03 845.612 1137.26 836.411 1114.07 826.051C1096.31 818.114 1078.66 809.867 1061.94 800.378C1049.09 793.096 1033.18 784.471 1026.53 772.274C1020.79 761.756 1035.77 749.185 1043.26 741.701C1055.63 729.35 1069.34 718.005 1082.86 706.616C1097.46 694.33 1113.61 682.981 1127.74 670.397C1157.45 643.916 1181.23 614.646 1217.78 594.282C1241.45 581.09 1273.26 569.051 1301.14 571.032C1321.19 572.459 1319.65 610.784 1321.51 623.016C1324.56 643.017 1330.55 664.016 1340.16 682.403C1348.42 698.158 1368.22 702.922 1386.44 706.366C1397.86 708.528 1409.83 709.663 1420.86 713.042C1433.63 716.958 1436.83 721.489 1438.5 732.945Z" stroke="#489A45" stroke-width="5" style="mix-blend-mode:soft-light"/>
<path fill-rule="evenodd" clip-rule="evenodd" d="M1424.56 745.842C1426.89 768.954 1426.18 796.303 1410.08 816.394C1395.98 833.993 1371.02 838.743 1353.2 852.643C1339.3 863.488 1333.76 881.076 1326.24 895.357C1317.04 912.82 1304.11 945.049 1281.12 951.728C1259.74 957.936 1237.64 919.146 1229.98 907.585C1217.85 889.286 1207.74 869.201 1192.99 852.322C1180.3 837.791 1163.22 829.813 1145.1 821.238C1122 810.286 1086.89 797.343 1074.63 775.819C1065.49 759.78 1095.65 735.697 1105.97 724.493C1116.76 712.789 1124.92 698.942 1136.05 687.647C1153.62 669.825 1182 655.396 1205.43 644.376C1228.2 633.657 1257.77 621.768 1283.53 622.325C1300.47 622.688 1303.56 645.248 1307.11 656.257C1312.2 671.907 1319 685.918 1333.72 696.501C1348.71 707.274 1366.42 712.291 1385.04 716.665C1394.6 718.894 1405.51 720.614 1414.05 725.176C1423.48 730.138 1423.66 736.959 1424.56 745.842Z" stroke="black" stroke-width="5" style="mix-blend-mode:soft-light"/>
<path fill-rule="evenodd" clip-rule="evenodd" d="M1407.57 759.258C1407.32 779.237 1401.91 800.571 1386.13 816.067C1372.98 828.975 1352.5 833.378 1339.92 846.569C1329.95 857.012 1324.82 871.624 1318.11 883.725C1309.92 898.553 1298.29 924.443 1278.09 929.684C1258.36 934.787 1241.11 906.436 1233.62 895.221C1222.66 878.777 1213.81 861.332 1202.75 844.933C1194.08 832.068 1183.44 823.804 1169.26 815.559C1152.6 805.875 1129.36 795.174 1120.52 779.049C1114.16 767.374 1129.84 748.577 1135.55 738.23C1139.39 731.281 1142.9 724.224 1144.85 716.703C1146.36 710.847 1146.54 705.434 1150.87 700.388C1161.78 687.697 1185.53 685.919 1201.67 681.667C1223.1 676.023 1245.84 669.619 1268.24 668.298C1282.01 667.473 1288.97 678.382 1296.79 686.039C1306.02 695.092 1319.12 701.568 1330.56 708.374C1345.66 717.372 1362.11 722.93 1379.13 728.621C1386.81 731.19 1395.83 733.701 1401.76 738.858C1407.96 744.205 1407.66 752.048 1407.57 759.258Z" stroke="#F3F3F3" stroke-width="5"/>
<path fill-rule="evenodd" clip-rule="evenodd" d="M1389.75 771.216C1386.94 788.01 1378.37 804.094 1363.98 816.034C1352.96 825.201 1338.35 830.408 1329.48 841.398C1321.22 851.642 1315.43 863.271 1308.59 874.213C1301.35 885.782 1290.58 905.11 1274.02 908.338C1256.17 911.815 1242.54 892.452 1235 881.72C1225.47 868.158 1218.25 853.55 1209.74 839.514C1203.33 829.052 1195.13 819.497 1185.41 811.167C1175.22 802.385 1161.38 793.997 1156.27 781.872C1151.75 771.133 1160.4 758.063 1161.98 747.141C1163.66 735.471 1160.9 723.238 1169.92 713.176C1188.54 692.425 1234.95 695.999 1261.5 695.412C1287.69 694.813 1308.68 707.333 1329.8 719.238C1343.76 727.097 1358.3 733.738 1372.61 741.054C1387.2 748.519 1392.23 756.436 1389.75 771.216Z" stroke="#489A45" stroke-width="5" style="mix-blend-mode:soft-light"/>
<path fill-rule="evenodd" clip-rule="evenodd" d="M1373.2 780.91C1365.02 805.262 1339.83 818.32 1321.76 836.789C1306.98 851.908 1295.79 883.112 1271.02 887.368C1242.89 892.198 1226.31 851.024 1216.64 835.155C1205.9 817.555 1186.68 803.297 1178.76 784.647C1174.6 774.859 1178.27 765.684 1180.58 755.864C1183.1 745.082 1185.02 734.062 1193.57 725.347C1210.4 708.198 1243.08 708.137 1266.62 707.538C1290.99 706.917 1312.48 718.488 1331.83 730.048C1352.35 742.29 1381.59 755.937 1373.2 780.91Z" stroke="#489A45" stroke-width="5" style="mix-blend-mode:soft-light"/>
<path fill-rule="evenodd" clip-rule="evenodd" d="M1359.7 787.576C1350.53 804.944 1331.41 819.128 1315.88 832.505C1302.91 843.656 1288.91 866.039 1269.23 867.737C1246.11 869.739 1232.24 845.996 1223.23 831.441C1214.36 817.139 1201.55 802.056 1196.68 786.332C1191.61 769.952 1205.5 747.778 1218.69 736.096C1233.41 723.068 1257.39 718.153 1277.94 718.557C1299.46 718.964 1319.14 729.556 1335.38 740.565C1352.73 752.334 1370.35 767.413 1359.7 787.576Z" stroke="#F3F3F3" stroke-width="5"/>
<path fill-rule="evenodd" clip-rule="evenodd" d="M1347.18 790.905C1338.44 805.357 1323.36 817.625 1309.46 828.57C1298.74 837.02 1282.9 851.375 1267.49 851.809C1250.54 852.287 1236.25 840.389 1229.58 828.15C1223.01 816.079 1216.1 800.936 1215.18 787.658C1213.19 758.743 1257.33 726.098 1290.32 728.554C1321.6 730.883 1364.6 762.11 1347.18 790.905Z" stroke="#489A45" stroke-width="5" style="mix-blend-mode:soft-light"/>
<path fill-rule="evenodd" clip-rule="evenodd" d="M1335.61 792.556C1323.56 811.39 1294.39 838.306 1267.53 839.088C1236.7 839.984 1229.13 810.251 1233.28 788.652C1237.49 766.607 1273.21 734.536 1301.53 738.688C1329.16 742.739 1349.89 770.22 1335.61 792.556Z" stroke="black" stroke-width="5" style="mix-blend-mode:soft-light"/>
<path fill-rule="evenodd" clip-rule="evenodd" d="M1323.38 795.658C1313.18 811.428 1291.49 831.174 1268.98 831.892C1242.16 832.742 1242.82 807.601 1248.99 791.921C1255.4 775.642 1283.41 747.743 1306.86 751.995C1329.67 756.147 1333.16 780.544 1323.38 795.658Z" stroke="#F3F3F3" stroke-width="5"/>
<path fill-rule="evenodd" clip-rule="evenodd" d="M1312.74 797.525C1306 808.774 1289.22 823.038 1273.34 823.578C1253.92 824.23 1257.81 804.271 1262.88 794.62C1268.91 783.136 1289 763.129 1305.75 766.262C1322.24 769.346 1318.3 788.256 1312.74 797.525Z" stroke="#489A45" stroke-width="5" style="mix-blend-mode:soft-light"/>
<path fill-rule="evenodd" clip-rule="evenodd" d="M403.36 161.881C446.451 139.149 495.126 120.313 541.034 101.187C608.123 73.2407 676.193 46.0306 746.637 25.1002C784.405 13.8817 833.354 -2.26227 873.762 6.14311C888.536 9.2153 901.97 18.6787 915.197 24.8034C933.436 33.2485 951.946 41.269 970.424 49.3078C1007.49 65.4212 1044.68 81.3702 1081.1 98.5337C1098.64 106.801 1115.64 117.241 1133.91 124.275C1144.59 128.389 1157.4 126.367 1168.83 126.04C1195.32 125.281 1221.79 123.971 1248.27 122.833C1280.65 121.445 1313.1 119.98 1345.51 120.28C1360.13 120.418 1395.94 117.983 1403.92 128.805C1408.22 134.633 1397.96 145.241 1393.2 150.149C1384.46 159.17 1374.43 167.311 1364.53 175.369C1341.65 194.004 1317.35 211.765 1296.98 232.552C1286.52 243.239 1272.81 256.3 1279.52 270.774C1286.29 285.392 1298.09 298.018 1305.25 312.585C1313.5 329.348 1316.86 346.82 1320.69 364.622C1323.53 377.779 1330.26 389.413 1336.58 401.523C1343.55 414.907 1350.78 428.404 1355.6 442.533C1358.79 451.866 1363.92 468.66 1352.55 474.642C1336.41 483.148 1306.27 476.498 1287.94 474.118C1262.6 470.836 1237.46 466.615 1212.2 462.999C1193.85 460.37 1175.45 457.477 1156.79 457.261C1126.71 456.912 1096.51 458.856 1066.5 460.677C1010.92 464.049 955.736 468.511 899.988 468.816C851.147 469.084 738.561 420.938 712.191 412.497C659.556 395.645 605.513 379.693 555.743 357.161C542.279 351.06 521.549 342.947 514.519 330.277C510.182 322.47 512.222 317.932 501.916 312.942C487.854 306.135 469.803 303.531 454.212 300.536C429.102 295.714 403.793 291.653 378.565 287.301C327.539 278.522 276.868 268.553 226.058 258.971C210.698 256.075 192.098 255.517 177.468 250.347C168.037 247.027 169.043 242.776 176.386 237.612C189.268 228.551 207.279 223.46 222.464 218.249C244.714 210.615 267.323 203.788 289.941 197.057C312.56 190.326 335.293 183.8 357.923 177.055C372.871 172.614 389.909 168.976 403.36 161.881Z" stroke="#F3F3F3" stroke-width="5"/>
<path fill-rule="evenodd" clip-rule="evenodd" d="M438.685 166.636C484.26 143.844 534.809 125.609 583.541 107.821C645.909 85.0424 709.678 63.6637 775.337 49.2781C813.888 40.8374 859.37 31.5019 898.658 40.7232C912.674 44.0136 923.116 51.5249 935.109 58.1392C948.778 65.6874 962.979 72.5948 977.181 79.3929C1006.42 93.3855 1035.96 106.893 1065.82 119.916C1081.63 126.842 1099.03 136.138 1116.93 138.473C1131.16 140.332 1147.36 137.44 1161.66 136.546C1187.43 134.938 1213.2 133.284 1238.98 131.857C1268.72 130.213 1298.55 128.682 1328.35 128.756C1344.96 128.797 1373.49 126.458 1385.18 135.657C1395.38 143.685 1357.9 173.126 1351.31 178.717C1330.72 196.172 1309.07 212.804 1289.89 231.455C1278.56 242.453 1264.76 255.83 1259.92 270.351C1255.8 282.726 1263.53 296.759 1268.07 308.153C1273.75 322.426 1278.32 337.228 1284.94 351.194C1290.83 363.638 1300.26 374.7 1308.54 385.996C1317.64 398.422 1326.85 411.053 1333.58 424.626C1337.71 432.979 1344.53 446.967 1336.19 454.996C1326.56 464.253 1297.07 458.4 1284.94 457.154C1260.33 454.592 1235.93 450.716 1211.49 447.259C1170.91 441.522 1132.22 436.521 1090.86 437.997C1036.99 439.923 983.166 444.055 929.306 446.474C909.416 447.376 889.206 449.082 869.31 448.33C857.904 447.896 849.234 444.936 842.638 438.187C833.63 428.978 812.788 423.966 798.303 418.732C775.718 410.577 752.845 403.001 730.035 395.326C679.963 378.467 628.922 362.234 581.468 340.335C566.455 333.41 549.263 325.689 538.195 314.172C532.019 307.749 533.622 301.52 529.869 294.678C524.899 285.679 508.414 281.696 498.562 278.797C479.549 273.197 459.744 269.482 440.091 266.009C395.62 258.151 351.029 253.069 305.812 249.393C295.215 248.54 253.486 245.611 275.5 230.272C299.822 213.32 334.85 204.884 363.424 195.25C389.165 186.588 414.924 178.518 438.685 166.636Z" stroke="#F3F3F3" stroke-width="5"/>
<path fill-rule="evenodd" clip-rule="evenodd" d="M501.466 170.46C544.297 150.394 591.703 135.339 637.791 120.933C693.717 103.451 751.032 87.828 809.633 78.9307C846.446 73.3467 887.022 68.9886 923.504 77.7327C948.417 83.7015 967.621 100.102 989.469 111.337C1011.32 122.573 1034.05 133.108 1057.48 141.864C1072.03 147.299 1087.67 152.768 1103.89 151.951C1143.33 149.969 1182.73 145.545 1222.21 143.285C1248.33 141.777 1274.5 140.51 1300.69 140.703C1316.48 140.817 1338.18 139.879 1352.12 146.972C1367.53 154.817 1284.85 222.977 1277.03 230.64C1257.42 249.855 1233.66 275.345 1237.27 302.499C1240.73 328.458 1256.25 347.767 1273.81 368.025C1283.77 379.549 1315.77 410.305 1303.76 425.43C1296.9 434.075 1274.46 431.218 1263.8 430.69C1242.79 429.65 1221.9 427.28 1201 425.239C1170.53 422.28 1139.23 417.625 1108.62 416.378C1087.3 415.512 1065.85 416.945 1044.49 417.089C1013.86 417.294 983.239 417.261 952.615 417.193C926.902 417.134 900.97 417.476 875.358 415.488C859.435 414.265 847.36 411.387 835.982 403.133C826.081 395.954 811.104 391.8 798.458 387.27C777.571 379.792 756.407 372.87 735.311 365.834C691.144 351.099 646.469 336.681 604.219 318.196C584.932 309.763 552.491 297.985 548.075 277.304C546.481 269.847 545.295 266.628 536.872 262.43C524.915 256.472 510.569 253.834 497.128 251.547C465.796 246.214 433.518 247.214 402.238 241.945C389.5 239.772 372.879 235.022 387.5 223.86C404.561 210.804 429.33 203.544 449.726 195.425C459.908 191.375 470.395 187.578 480.07 182.647C487.499 178.849 493.869 173.996 501.466 170.46Z" stroke="#489A45" stroke-width="5" style="mix-blend-mode:soft-light"/>
<path fill-rule="evenodd" clip-rule="evenodd" d="M582.336 176.208C621.894 159.884 664.822 147.937 706.973 137.149C753.791 125.181 801.726 115.218 850.261 110.825C883.775 107.781 919.47 106.742 951.931 115.315C972.46 120.739 986.331 132.305 1003.97 141.972C1030.58 156.584 1059.41 168.118 1091.5 165.097C1127.48 161.716 1163.58 159.13 1199.79 157.338C1221.63 156.256 1243.56 155.415 1265.41 155.966C1279.23 156.31 1297.04 156.919 1309.03 162.257C1325.08 169.406 1264.33 224.81 1256.75 232.878C1237.95 252.887 1224.13 273.85 1215.99 298.557C1209.35 318.718 1222.59 334.465 1236.25 349.444C1244.75 358.746 1272.25 382.109 1263.52 394.296C1258.74 401.017 1243.11 400.756 1234.71 401.144C1218.7 401.88 1202.63 401.293 1186.62 401.084C1162.99 400.758 1137.82 404.029 1114.4 401.636C1062.5 396.338 1010.73 391.788 958.493 388.249C929.7 386.3 900.732 384.544 872.208 380.637C861.968 379.234 851.391 377.746 841.699 374.497C835.464 372.411 832.079 368.818 826.825 365.882C801.77 351.91 769 344.829 740.742 335.941C703.176 324.126 665.408 312.499 628.855 298.499C609.63 291.135 582.767 282.699 569.596 267.526C565.616 262.942 567.345 259.248 564.851 254.833C561.98 249.742 553.18 248.267 547.5 246.875C534.608 243.712 480.594 239.12 505.608 220.016C517.543 210.917 532.717 205.037 546.153 197.863C551.018 195.264 555.762 192.653 559.825 189.16C566.623 183.304 573.306 179.947 582.336 176.208Z" stroke="black" stroke-width="5" style="mix-blend-mode:soft-light"/>
<path fill-rule="evenodd" clip-rule="evenodd" d="M668.502 182.709C746.561 156.221 837.97 137.966 922.89 140.94C951.13 141.933 981.499 145.598 1005.91 158.575C1020.3 166.241 1031.79 174.921 1049.12 177.623C1061.62 179.573 1075.12 177.207 1087.72 176.309C1105.97 175.006 1124.22 173.831 1142.5 172.86C1165.15 171.674 1187.88 170.73 1210.56 171.043C1226.77 171.268 1249.16 170.79 1263.2 178.23C1279.97 187.104 1236.92 229.399 1230.86 236.927C1216.16 255.172 1205.82 272.828 1202 294.739C1200.87 301.124 1197.17 307.682 1197.61 314.107C1198.07 320.67 1202.72 326.489 1207.02 331.628C1212.64 338.362 1232.17 354.301 1226.5 362.582C1223.37 367.155 1211.71 367.793 1205.66 368.792C1194.31 370.677 1182.81 371.72 1171.39 373.231C1152.03 375.806 1132.77 383.953 1113.35 383.832C1061.14 383.517 1008.24 369.83 957.113 362.434C926.716 358.022 896.111 354.035 866.093 347.999C856.596 346.088 846.814 344.109 837.794 340.829C831.5 338.54 827.472 334.421 821.644 331.851C799.298 321.983 773.569 316.06 749.551 309.468C718.37 300.891 687.082 292.58 656.121 283.438C636.714 277.708 611.746 272.711 595.057 261.978C582.867 254.14 591.244 251.73 597.741 244.332C601.06 240.56 600.32 236.865 601.776 232.606C603.856 226.526 609.66 222.125 615.103 218.168C622.609 212.701 632.593 208.177 638.743 201.492C640.912 199.138 640.828 196.232 642.583 194.182C647.689 188.208 661.161 185.2 668.502 182.709Z" stroke="#F3F3F3" stroke-width="5"/>
<path fill-rule="evenodd" clip-rule="evenodd" d="M751.282 191.539C814.608 174.808 885.018 165.093 951.832 169.056C975.079 170.437 998.456 173.813 1020.07 181.392C1029.91 184.829 1037.29 188.68 1048.08 188.831C1073.14 189.176 1098.29 187.348 1123.34 186.805C1141.27 186.415 1159.29 186.211 1177.17 187.357C1189.13 188.121 1205.3 189.026 1215.06 195.302C1229.24 204.444 1203.36 235.927 1198.08 244.615C1189.33 259.023 1180.63 275.035 1183.98 291.633C1185 296.709 1186.84 301.188 1187.06 306.369C1187.26 310.82 1186.59 314.934 1188.39 319.181C1190.63 324.446 1200.64 332.581 1197.15 337.458C1194.78 340.789 1187.78 340.982 1183.13 342.07C1175.57 343.833 1168.19 346.133 1161.07 348.945C1153.56 351.921 1147.16 356.491 1139.39 358.958C1126.77 362.955 1112.68 363.402 1099.44 363.456C1046.63 363.673 993.199 354.975 941.781 345.855C915.005 341.107 888.083 336.037 862.076 328.755C854.179 326.543 845.228 324.327 838.296 320.199C833.971 317.63 831.047 314.397 826.128 312.473C784.106 296.051 735.448 290.134 690.805 278.352C679.185 275.284 614.779 259.819 648.587 244.754C669.126 235.599 690.797 231.37 709.562 218.898C715.278 215.107 719.093 211.973 721.352 206.223C722.84 202.396 719.301 204.352 724.249 200.333C730.251 195.501 743.904 193.489 751.282 191.539Z" stroke="black" stroke-width="5" style="mix-blend-mode:soft-light"/>
<path fill-rule="evenodd" clip-rule="evenodd" d="M816.973 200.867C891.08 187.087 969.482 186.021 1044.61 197.464C1063.55 200.346 1083.29 199.524 1102.47 200.177C1121.11 200.802 1154.27 199.107 1167.74 211.407C1177.51 220.323 1166.74 239.444 1163 249.498C1158.23 262.306 1154.05 275.534 1161.69 287.906C1166.16 295.152 1172.31 302.039 1177.11 309.214C1179.41 312.642 1184.15 317.887 1182.14 321.156C1178.82 326.549 1163.42 328.897 1155.94 331.473C1132.03 339.707 1106.75 341.913 1081.23 341.994C1034.11 342.148 986.771 336.846 940.588 329.556C919.34 326.201 897.798 322.616 877.321 316.694C865.733 313.345 857.21 306.807 846.149 302.965C810.534 290.582 772.23 284.072 735.995 272.77C725.507 269.497 686.324 258.624 706.171 245.442C725.386 232.682 753.298 234.033 773.27 222.018C775.53 220.642 778.326 218.996 779.645 216.785C780.425 215.463 779.08 212.962 779.672 212.209C785.831 204.028 807.567 202.613 816.973 200.867Z" stroke="#489A45" stroke-width="5" style="mix-blend-mode:soft-light"/>
<path fill-rule="evenodd" clip-rule="evenodd" d="M864.885 209.442C902.891 204.738 941.712 203.41 980.333 202.915C1001.44 202.644 1024.64 201.356 1045.27 205.857C1057.94 208.63 1070.18 211.048 1083.25 212.767C1097.31 214.618 1119.96 215.896 1128.47 226.298C1134.83 234.071 1130.35 250.146 1130.06 259.641C1129.76 270.055 1132.18 277.763 1140.66 285.168C1145.99 289.83 1170.46 306.728 1167.59 311.655C1164.86 316.349 1147.74 317.16 1140.33 318.416C1116.91 322.4 1093.2 323.874 1069.41 323.794C1032.56 323.676 995.583 320.635 959.338 315.26C944.353 313.026 928.866 310.713 914.566 306.163C904.936 303.096 896.921 297.607 887.355 294.434C859.96 285.332 830.972 279.209 803.483 269.94C794.661 266.959 765.905 259.053 772.881 246.588C778.698 236.18 798.299 232.916 807.96 225.909C824.396 213.959 843.999 212.024 864.885 209.442Z" stroke="#489A45" stroke-width="5" style="mix-blend-mode:soft-light"/>
<path fill-rule="evenodd" clip-rule="evenodd" d="M888.777 215.274C918.922 212.132 949.757 210.661 980.328 210.43C1000.06 210.281 1020.87 209.935 1040.21 213.656C1049.92 215.523 1058.35 219.968 1067.53 223.122C1076.99 226.365 1090.05 229.97 1094.1 237.502C1097.91 244.58 1096.41 254.946 1099.74 263.488C1102.71 271.067 1108.97 275.725 1115.72 280.821C1120.02 284.079 1142.11 298.161 1139.53 301.31C1136.76 304.684 1123.44 304.484 1116.51 304.986C1097.41 306.392 1078.25 306.912 1059.11 306.543C1032.99 305.995 1006.68 304.21 981.028 299.982C962.833 296.987 949.139 289.69 932.19 284.376C910.232 277.475 887.476 272.048 865.732 264.485C854.898 260.717 838.856 255.882 833.353 246.032C831.237 242.257 829.218 232.639 831.62 228.839C834.505 224.273 845.157 222.285 850.187 221.088C862.788 218.101 875.965 216.609 888.777 215.274Z" stroke="#F3F3F3" stroke-width="5"/>
<path fill-rule="evenodd" clip-rule="evenodd" d="M916.96 222.385C954.642 218.521 997.212 215.183 1034.95 222.337C1050.2 225.225 1065.35 233.944 1071.5 245.912C1074.69 252.099 1075.35 259.479 1080.13 265.466C1083.67 269.89 1088.19 273.88 1092.64 277.596C1095.15 279.694 1111.24 291.178 1108.11 293.262C1104.81 295.461 1096.74 294.792 1091.23 294.877C1078.03 295.082 1064.78 294.716 1051.62 293.924C1036.5 293.01 1021.02 291.806 1006.37 288.393C994.548 285.623 983.797 279.715 972.291 276.235C942.044 267.014 910.156 259.837 881.789 246.098C875.755 243.177 863.813 238.821 871.122 232.106C880.216 223.739 905.317 223.574 916.96 222.385Z" stroke="black" stroke-width="5" style="mix-blend-mode:soft-light"/>
<path fill-rule="evenodd" clip-rule="evenodd" d="M949.751 228.798C976.584 226.09 1006.34 224.723 1033.23 229.852C1046.85 232.447 1058.98 237.943 1064.86 248.677C1069.07 256.327 1070.16 264.885 1075.93 272.227C1077.97 274.818 1085.48 282.078 1081.75 283.692C1073.76 287.164 1056 283.316 1044.96 281.578C1028.34 278.945 1014.49 271.393 998.698 266.957C974.475 260.156 943.754 256.62 921.71 244.921C900.466 233.609 941.923 229.59 949.751 228.798Z" stroke="black" stroke-width="5" style="mix-blend-mode:soft-light"/>
<path fill-rule="evenodd" clip-rule="evenodd" d="M980.38 234.892C1003.15 232.464 1043.62 231.104 1056.5 249.566C1058.88 252.995 1065.43 271.959 1058.99 273.69C1053.68 275.111 1045.38 272.858 1039.41 270.741C1028.3 266.825 1017.88 262.547 1006.4 259.327C996.619 256.588 986.605 254.067 976.957 250.873C972.862 249.535 965.16 247.927 962.604 244.839C955.725 236.533 973.448 235.629 980.38 234.892Z" fill="#01002D" style="mix-blend-mode:soft-light"/>
</svg>
