<svg width="1066" height="907" viewBox="0 0 1066 907" fill="none" xmlns="http://www.w3.org/2000/svg">
<path d="M529.57 2.81787C814.228 4.34807 998.792 112.167 1043.69 246.638C1088.59 381.11 1042.13 537.605 1041.44 665.336C1040.76 793.066 827.621 905.243 524.728 903.615C221.835 901.987 -20.4973 787.614 10.6042 659.794C41.7057 531.975 -18.3012 379.076 12.8549 241.097C44.011 103.119 244.912 1.28767 529.57 2.81787Z" fill="#489A45"/>
<path d="M529.57 2.81787C814.228 4.34807 998.792 112.167 1043.69 246.638C1088.59 381.11 1042.13 537.605 1041.44 665.336C1040.76 793.066 827.621 905.243 524.728 903.615C221.835 901.987 -20.4973 787.614 10.6042 659.794C41.7057 531.975 -18.3012 379.076 12.8549 241.097C44.011 103.119 244.912 1.28767 529.57 2.81787Z" stroke="black" stroke-width="5" style="mix-blend-mode:soft-light"/>
<path d="M746.128 584.22C773.391 609.188 812.228 603.708 839.978 574.491C867.728 545.275 862.164 499.562 829.982 480.669C797.8 461.776 762.314 462.448 736.132 490.398C709.95 518.348 718.865 559.253 746.128 584.22Z" fill="#489A45"/>
<path d="M746.128 584.22C773.391 609.188 812.228 603.708 839.978 574.491C867.728 545.275 862.164 499.562 829.982 480.669C797.8 461.776 762.314 462.448 736.132 490.398C709.95 518.348 718.865 559.253 746.128 584.22Z" stroke="black" stroke-width="5" style="mix-blend-mode:soft-light"/>
<path d="M562.927 323.366C622.456 377.995 708 365.196 769.581 300.191C831.161 235.186 819.745 134.365 749.283 93.235C678.822 52.1054 600.737 54.2293 542.629 116.41C484.521 178.59 503.397 268.737 562.927 323.366Z" fill="#489A45"/>
<path d="M562.927 323.366C622.456 377.995 708 365.196 769.581 300.191C831.161 235.186 819.745 134.365 749.283 93.235C678.822 52.1054 600.737 54.2293 542.629 116.41C484.521 178.59 503.397 268.737 562.927 323.366Z" stroke="black" stroke-width="5" style="mix-blend-mode:soft-light"/>
<path d="M179.43 769.725C224.574 811.112 289.175 801.71 335.514 752.855C381.853 704 372.928 627.909 319.564 596.674C266.201 565.439 207.204 566.81 163.481 613.545C119.757 660.28 134.287 728.339 179.43 769.725Z" fill="#489A45"/>
<path d="M179.43 769.725C224.574 811.112 289.175 801.71 335.514 752.855C381.853 704 372.928 627.909 319.564 596.674C266.201 565.439 207.204 566.81 163.481 613.545C119.757 660.28 134.287 728.339 179.43 769.725Z" stroke="black" stroke-width="5" style="mix-blend-mode:soft-light"/>
<path d="M704.671 595.286C698.514 605.747 702.925 617.847 714.203 624.765C725.482 631.683 739.784 626.775 743.655 615.149C747.526 603.523 744.888 592.172 734.123 585.671C723.358 579.169 710.829 584.825 704.671 595.286Z" fill="#489A45"/>
<path d="M704.671 595.286C698.514 605.747 702.925 617.847 714.203 624.765C725.482 631.683 739.784 626.775 743.655 615.149C747.526 603.523 744.888 592.172 734.123 585.671C723.358 579.169 710.829 584.825 704.671 595.286Z" stroke="black" stroke-width="5" style="mix-blend-mode:soft-light"/>
<path d="M473.03 347.643C466.872 358.104 471.283 370.203 482.562 377.122C493.84 384.04 508.142 379.132 512.013 367.506C515.884 355.88 513.246 344.528 502.481 338.027C491.717 331.526 479.188 337.182 473.03 347.643Z" fill="#489A45"/>
<path d="M473.03 347.643C466.872 358.104 471.283 370.203 482.562 377.122C493.84 384.04 508.142 379.132 512.013 367.506C515.884 355.88 513.246 344.528 502.481 338.027C491.717 331.526 479.188 337.182 473.03 347.643Z" stroke="black" stroke-width="5" style="mix-blend-mode:soft-light"/>
</svg>
