<svg width="1309" height="1634" viewBox="0 0 1309 1634" fill="none" xmlns="http://www.w3.org/2000/svg">
<path d="M1226 1629.03C1226 1629.03 1226 1578.8 1226 1533.03C1226 1503.35 1286 1541.53 1268 1503.53V1466.03V1401.03H1165.5C1157.98 1401.03 -36.9978 1401.03 7.34601 1401.03C7.34601 1371.35 -0.177605 593.861 7.34607 593.861H1290.75C1298.27 593.861 1304.35 569.901 1304.35 540.219C1304.35 510.537 1298.27 486.577 1290.75 486.577H1262.01C1254.49 486.577 1248.42 462.618 1248.42 432.936C1248.42 401.466 1248.42 368.029 1248.42 368.029" stroke="#2F3140" stroke-width="8" stroke-miterlimit="10" stroke-linecap="round" stroke-linejoin="round"/>
<path opacity="0.32" d="M1137.07 329.62H920.048C916.17 329.62 912.938 327 912.938 323.856C912.938 320.713 916.17 318.093 920.048 318.093H1137.07C1140.95 318.093 1144.18 320.713 1144.18 323.856C1144.18 327 1140.95 329.62 1137.07 329.62Z" fill="#1C1C1C"/>
<path opacity="0.32" d="M1288.69 373.529H833.962C830.084 373.529 826.853 370.91 826.853 367.766C826.853 364.622 830.084 362.002 833.962 362.002H1288.69C1292.57 362.002 1295.8 364.622 1295.8 367.766C1295.8 371.014 1292.57 373.529 1288.69 373.529Z" fill="#1C1C1C"/>
<path d="M1255.99 215.917H801.001V18.4823C801.001 9.36512 810.049 2.02942 821.294 2.02942H1235.05C1246.55 2.02942 1255.99 9.6795 1255.99 19.0063V215.917Z" fill="#383939"/>
<path d="M808.756 200.198V17.8537C808.756 12.6139 813.927 8.42206 820.39 8.42206H1236.6C1243.06 8.42206 1248.23 12.6139 1248.23 17.8537V200.198C1248.23 205.438 1243.06 209.629 1236.6 209.629H820.39C814.056 209.629 808.756 205.333 808.756 200.198Z" fill="#3A3A3A"/>
<path d="M1255.99 215.917H801.001V18.4823C801.001 9.36512 810.049 2.02942 821.294 2.02942H1235.05C1246.55 2.02942 1255.99 9.6795 1255.99 19.0063V215.917Z" stroke="#383939" stroke-width="3" stroke-miterlimit="10" stroke-linecap="round" stroke-linejoin="round"/>
<path d="M1248 210.029V8.02942L811.001 8.02942V210.029L1248 210.029Z" fill="#F3F3F3"/>
<path d="M1234.92 266.219H821.424C810.178 266.219 801.001 258.778 801.001 249.661V215.917H1255.99V249.137C1255.99 258.464 1246.55 266.219 1234.92 266.219Z" fill="#D4E8DC"/>
<path d="M821.424 257.835C815.866 257.835 811.342 254.167 811.342 249.661V219.375H1245.65V249.137C1245.65 253.958 1240.87 257.835 1234.92 257.835H821.424Z" fill="#EBF2EE"/>
<path d="M1234.92 266.219H821.424C810.178 266.219 801.001 258.778 801.001 249.661V215.917H1255.99V249.137C1255.99 258.464 1246.55 266.219 1234.92 266.219Z" stroke="#383939" stroke-width="3" stroke-miterlimit="10" stroke-linecap="round" stroke-linejoin="round"/>
<path d="M1097 303.945H959.988L980.282 266.219H1076.71L1097 303.945Z" fill="#CAD8D0"/>
<path d="M1085.76 282.986L1076.71 266.219H980.282L971.234 282.986H1085.76Z" fill="#A1ADA6"/>
<path d="M1097 303.945H959.988L980.282 266.219H1076.71L1097 303.945Z" stroke="#383939" stroke-width="3" stroke-miterlimit="10" stroke-linecap="round" stroke-linejoin="round"/>
<path d="M1122.85 320.713H934.137L936.076 315.158C938.402 308.556 946.029 303.945 954.818 303.945H1102.17C1110.96 303.945 1118.72 308.556 1120.91 315.158L1122.85 320.713Z" fill="#DAEDE2"/>
<path d="M1122.85 320.713H934.137L936.076 315.158C938.402 308.556 946.029 303.945 954.818 303.945H1102.17C1110.96 303.945 1118.72 308.556 1120.91 315.158L1122.85 320.713Z" stroke="#383939" stroke-width="3" stroke-miterlimit="10" stroke-linecap="round" stroke-linejoin="round"/>
<path d="M860.33 363.574H1188.26C1193.04 363.574 1196.92 360.43 1196.92 356.553C1196.92 352.675 1193.04 349.531 1188.26 349.531H860.33C855.548 349.531 851.67 352.675 851.67 356.553C851.541 360.43 855.419 363.574 860.33 363.574Z" fill="#DAEDE2"/>
<path d="M860.33 363.574H1188.26C1193.04 363.574 1196.92 360.43 1196.92 356.553C1196.92 352.675 1193.04 349.531 1188.26 349.531H860.33C855.548 349.531 851.67 352.675 851.67 356.553C851.541 360.43 855.419 363.574 860.33 363.574Z" stroke="#383939" stroke-width="3" stroke-miterlimit="10" stroke-linecap="round" stroke-linejoin="round"/>
<path d="M960.893 349.426H1118.59V345.235C1118.59 341.776 1115.1 338.947 1110.83 338.947H968.649C964.383 338.947 960.893 341.776 960.893 345.235V349.426Z" fill="#383939"/>
<path d="M929.613 349.426H957.015V345.235C957.015 341.776 953.526 338.947 949.26 338.947H937.368C933.103 338.947 929.613 341.776 929.613 345.235V349.426Z" fill="#383939"/>
<path d="M897.686 349.426H925.089V345.235C925.089 341.776 921.599 338.947 917.333 338.947H905.442C901.176 338.947 897.686 341.776 897.686 345.235V349.426Z" fill="#383939"/>
<path d="M1155.17 349.426H1182.57V345.235C1182.57 341.776 1179.08 338.947 1174.82 338.947H1162.92C1158.66 338.947 1155.17 341.776 1155.17 345.235V349.426Z" fill="#383939"/>
<path d="M1123.37 349.426H1150.77V345.235C1150.77 341.776 1147.28 338.947 1143.02 338.947H1131.13C1126.86 338.947 1123.37 341.776 1123.37 345.235V349.426Z" fill="#383939"/>
<path d="M865.888 349.426H893.291V345.235C893.291 341.776 889.801 338.947 885.536 338.947H873.644C869.378 338.947 865.888 341.776 865.888 345.235V349.426Z" fill="#383939"/>
<path d="M1274.73 363.574C1274.6 355.609 1263.87 347.645 1244.87 347.645C1226 347.645 1215.14 355.609 1215.01 363.574H1274.73Z" fill="#DAEDE2"/>
<path d="M1274.73 363.574C1274.6 355.609 1263.87 347.645 1244.87 347.645C1226 347.645 1215.14 355.609 1215.01 363.574H1274.73Z" stroke="#383939" stroke-width="3" stroke-miterlimit="10" stroke-linecap="round" stroke-linejoin="round"/>
<path d="M1046.85 238.448C1040.9 238.448 1035.99 234.885 1035.22 230.169C1035.09 230.169 1035.09 230.169 1034.96 230.169C1027.59 230.169 1021.64 234.99 1021.64 240.963C1021.64 246.937 1027.59 251.757 1034.96 251.757C1042.33 251.757 1048.27 246.937 1048.27 240.963C1048.27 240.02 1048.14 239.182 1047.88 238.343C1047.5 238.448 1047.24 238.448 1046.85 238.448Z" fill="#383939"/>
<path opacity="0.16" d="M872.61 194.958H921.986L1030.05 23.0934H980.67L872.61 194.958Z" fill="#C2D3C9"/>
<path opacity="0.16" d="M961.927 194.958L1069.99 23.0934H1051.5L943.443 194.958H961.927Z" fill="#C2D3C9"/>
</svg>
