<svg width="1469" height="2130" viewBox="0 0 1469 2130" fill="none" xmlns="http://www.w3.org/2000/svg">
<path fill-rule="evenodd" clip-rule="evenodd" d="M928.894 1592.16C928.883 1608.68 961.976 1627.07 976.102 1636.57C1004.03 1655.36 1033.1 1672.69 1061.89 1690.31C1090.68 1707.92 1119.55 1725.48 1146.99 1744.84C1164.81 1757.41 1185.75 1771.56 1197.77 1789.58C1223.4 1827.98 1141.95 1822.71 1120.83 1823.67C1067.12 1826.12 1005.54 1825.48 955.091 1845.83C924.976 1857.98 912.881 1878.15 919.168 1907.4C921.194 1916.91 927.289 1927.84 922.02 1937.15C916.395 1947.09 903.549 1952.88 892.893 1956.77C854.025 1970.96 809.419 1972.83 768.369 1974.81C724.104 1976.98 679.437 1976.67 635.495 1977.06C616.862 1977.23 597.368 1983.54 579.596 1988.68C556.298 1995.41 533.271 2002.96 510.162 2010.26C459.323 2026.29 406.936 2043.16 353.221 2047.46C319.582 2050.15 282.852 2046.97 256.855 2025.33C243.802 2014.46 237.03 1998.23 229.53 1983.82C220.451 1966.42 211.737 1948.84 202.063 1931.72C170.901 1876.56 126.267 1822.73 53.3395 1820.42C42.3069 1820.07 31.4621 1821.47 20.4779 1821.78C13.4827 1821.97 7.26694 1820.44 4.70534 1813.68C-1.73476 1796.71 18.9637 1769.76 27.4647 1756.22C46.0775 1726.59 67.0386 1698.27 86.6881 1669.22C99.6881 1650.01 122.151 1623.74 122.517 1600.48C122.843 1579.76 93.1823 1564.96 77.0468 1554.84C61.9269 1545.37 34.5093 1532.15 32.9556 1512.73C32.2031 1503.31 38.9558 1495.46 45.9949 1489.36C58.3328 1478.69 72.5198 1471.14 83.6337 1458.98C101.859 1439.04 117.146 1411.66 114.839 1384.94C113.238 1366.42 101.898 1354.35 87.4498 1342.84C81.3777 1337.99 76.4467 1334.57 76.1692 1326.66C75.7206 1314.09 81.1107 1300.76 85.5555 1289.08C101.455 1247.28 123.931 1206.83 148.893 1169.03C161.366 1150.14 174.832 1131.31 191.319 1115.16C202.117 1104.56 216.671 1091.94 233.052 1091.86C252.017 1091.75 272.049 1097.98 290.456 1102.62C324.837 1111.29 358.793 1121.34 392.613 1131.66C470.824 1155.54 548.288 1181.39 625.004 1209.21C679.041 1228.84 734.227 1248.49 784.986 1274.71C794.885 1279.86 804.222 1285.87 812.871 1292.67C822.112 1299.81 833.612 1302.97 845.279 1305.3C917.685 1319.79 997.168 1307.92 1070 1300.34C1088.49 1298.42 1106.97 1296.49 1125.51 1295.12C1141.44 1293.94 1160.53 1290.69 1175.99 1295.32C1206.44 1304.43 1179.58 1338.76 1168.22 1352.75C1128.25 1402.01 1076.8 1443.79 1029.1 1486.41C1006.41 1506.71 983.558 1526.96 962.095 1548.39C950.919 1559.54 928.903 1577.68 928.894 1592.16Z" stroke="black" stroke-width="5" style="mix-blend-mode:soft-light"/>
<path fill-rule="evenodd" clip-rule="evenodd" d="M915.199 1595.02C927.266 1612.44 948.539 1625.24 966.188 1637.3C991.588 1654.66 1017.79 1671.05 1043.6 1687.91C1068 1703.86 1092.46 1720 1115.04 1738.14C1128.81 1749.2 1146.08 1762.42 1152.54 1778.86C1166.55 1814.49 1090.13 1809.5 1071.25 1810.54C1024.31 1813.11 971.112 1813.94 927.595 1832.98C900.422 1844.87 889.176 1864.4 894.804 1891.4C896.749 1900.74 900.304 1908.71 895.693 1918.04C890.36 1928.84 878.197 1935.62 867.055 1940.42C832.153 1955.46 790.978 1958.84 753.22 1961.68C714.213 1964.61 673.576 1966.74 635.85 1964.97C620.763 1964.26 603.367 1968.84 588.413 1972.37C565.403 1977.79 542.623 1984.03 519.725 1989.84C473.19 2001.66 425.449 2013.06 377.099 2014.59C342.192 2015.7 305.83 2010.94 276.902 1991.93C247.585 1972.65 234.7 1942.59 218.544 1914.03C190.642 1864.66 152.918 1804.64 87.7742 1794.54C77.896 1793.01 68.3891 1793.92 58.5145 1793.59C53.4367 1793.42 47.6589 1792.83 45.1094 1788.2C38.4909 1776.2 56.9384 1754.08 63.1573 1744.83C80.3392 1719.25 99.6319 1694.9 117.628 1669.81C131.921 1649.88 150.02 1627.73 155.639 1604.17C162.456 1575.59 119.084 1555.52 103.904 1535.5C77.5887 1500.79 127.934 1480.65 152.793 1463.89C181.34 1444.66 205.012 1409.72 179.686 1380.34C169.998 1369.1 158.037 1362.44 153.765 1347.73C147.084 1324.73 152.385 1298.38 158.041 1275.57C166.561 1241.29 179.93 1207.35 198.017 1176.31C210.975 1154.08 232.461 1119.23 263.622 1121.66C284.599 1123.28 305.898 1129.51 326.302 1135.02C356.852 1143.25 387.011 1152.66 417.006 1162.44C486.248 1184.96 554.711 1209.83 621.812 1237.24C667.596 1255.94 795.169 1332.71 804.785 1335.42C833.458 1343.5 866.12 1341.87 895.737 1340.43C935.134 1338.51 974.348 1333.9 1013.53 1329.61C1032.18 1327.58 1050.93 1325.12 1069.67 1324.07C1083.01 1323.32 1100.53 1322.65 1112.17 1329.76C1134.9 1343.65 1109.31 1375.84 1098.73 1389.46C1066.31 1431.22 1025.39 1467.45 987.003 1504.47C968.167 1522.65 949.044 1540.8 931.927 1560.42C925.024 1568.34 907.741 1584.27 915.199 1595.02Z" stroke="#489A45" stroke-width="5" style="mix-blend-mode:soft-light"/>
<path fill-rule="evenodd" clip-rule="evenodd" d="M898.317 1604.08C931.344 1638.88 977.056 1664.64 1016.47 1693.64C1036.25 1708.2 1056.16 1723.15 1073.19 1740.53C1082.05 1749.56 1093.11 1760.99 1094.76 1773.65C1099.16 1807.5 1030.27 1803.3 1009.64 1804.7C969.752 1807.42 924.693 1809.56 888.419 1827.06C866.256 1837.75 855.273 1855.15 859.275 1877.93C861.049 1888.04 863.851 1896.62 859.112 1906.57C854.31 1916.66 844.384 1923.82 834.343 1929.2C805.488 1944.67 769.711 1949.76 737.301 1953.59C699.282 1958.05 660.992 1959.92 622.739 1959.19C589.237 1958.56 555.838 1967.9 523.088 1974.12C479.701 1982.35 435.535 1989.58 391.19 1988.77C356.168 1988.13 320.903 1981.74 291.059 1964.41C260.734 1946.75 242.591 1920.17 226.261 1891.48C201.576 1848.1 170.834 1789.95 116.229 1773.73C108.287 1771.37 100.875 1771.14 92.6717 1770.77C88.6874 1770.59 83.542 1770.56 81.5867 1766.72C76.8838 1757.48 94.5668 1739.41 99.5088 1733.12C115.283 1713.04 132.369 1693.86 148.533 1674.04C163.622 1655.54 180.053 1636.26 189.483 1614.62C204.492 1580.17 157.248 1560.34 158.761 1527.58C159.704 1507.24 180.812 1492.54 197.519 1482.36C218.089 1469.84 247.652 1461.52 258.041 1438.83C265.78 1421.93 253.843 1412.18 244.68 1399.44C229.152 1377.85 228.253 1348.47 230.024 1323.37C232.412 1289.45 241.187 1254.99 255.969 1223.74C262.668 1209.57 270.857 1194.83 282.855 1183.79C294.095 1173.44 304.693 1170.75 319.624 1172.77C365.332 1178.97 411.417 1196.71 455.192 1212.53C510.193 1232.42 564.422 1254.41 617.012 1279.2C652.873 1296.11 689.54 1314 720.967 1337.46C729.158 1343.58 737.544 1350.22 743.513 1358.32C748.025 1364.4 749.927 1369.43 757.571 1372.88C780.229 1383.08 811.842 1380.21 836.188 1379C875.116 1377.07 913.873 1372.3 952.576 1367.99C975.16 1365.45 1017.72 1357.64 1035.64 1375.71C1051.11 1391.32 1032.19 1418.19 1022.52 1432.07C998.063 1467.16 966.686 1498.02 937.557 1529.78C924.207 1544.33 910.336 1559 899.287 1575.16C896.465 1579.28 891.949 1584.75 891.15 1589.74C890.254 1595.45 894.262 1599.79 898.317 1604.08Z" stroke="black" stroke-width="5" style="mix-blend-mode:soft-light"/>
<path fill-rule="evenodd" clip-rule="evenodd" d="M895.506 1595.95C926.033 1626.71 962.877 1651.92 995.674 1680.68C1010.38 1693.58 1025.23 1707.11 1036.4 1722.88C1042.41 1731.36 1048.78 1742.04 1047.05 1752.63C1042.08 1783.03 985.422 1780.6 962.515 1782.51C928.478 1785.31 889.378 1788.16 859.201 1804.7C839.434 1815.54 831.954 1831.42 835.518 1851.83C839.343 1873.73 830.422 1889.68 810.255 1902.02C784.971 1917.48 753.13 1923.9 723.849 1928.5C688.572 1934.01 652.865 1936.57 617.163 1936.13C582.442 1935.71 548.768 1941.29 514.253 1944.98C468.49 1949.88 421.274 1952.43 376.107 1943.17C336.782 1935.1 301.323 1917.04 274.824 1888.94C247.146 1859.62 233.572 1822.56 211.147 1790.08C197.16 1769.82 177.648 1743.02 151.341 1735.26C142.567 1732.68 126.529 1736.32 133.623 1723.31C137.677 1715.87 145.223 1709.32 151.19 1703.22C160.831 1693.37 170.788 1683.78 180.59 1674.06C201.48 1653.34 223.846 1632.17 239.554 1607.69C259.347 1576.86 230.319 1553.38 234.05 1522.21C236.055 1505.44 248.714 1491.99 262.085 1481.41C270.736 1474.55 280.193 1468.6 289.846 1463.05C299.928 1457.25 311.843 1452.8 320.648 1445.33C333.198 1434.68 327.846 1422.2 325.582 1408.54C321.597 1384.55 320.83 1360.16 323.299 1335.92C326.32 1306.21 333.18 1275.63 347.42 1248.57C352.959 1238.04 359.964 1226.86 370.313 1219.76C380.662 1212.66 391.321 1213.08 403.122 1215.14C438.123 1221.21 473.005 1235.6 506.163 1249.23C547.664 1266.31 588.336 1285.42 627.156 1307.2C653.953 1322.23 680.831 1338.49 703.205 1358.95C709.712 1364.91 715.899 1371.29 720.891 1378.43C724.318 1383.32 726.134 1389.65 731.12 1393.31C746.717 1404.75 778.184 1401.14 796.557 1400.37C833.225 1398.83 869.344 1392.28 905.967 1390.53C925.954 1389.57 957.262 1387.28 971.847 1402.96C985.563 1417.69 972.931 1441.1 964.602 1455.42C948.233 1483.58 926.313 1508.7 906.645 1534.9C898.56 1545.68 889.702 1556.97 884.434 1569.25C879.751 1580.2 887.683 1588.07 895.506 1595.95Z" stroke="#489A45" stroke-width="5" style="mix-blend-mode:soft-light"/>
<path fill-rule="evenodd" clip-rule="evenodd" d="M887.958 1595.49C912.241 1622.57 941.565 1646.57 966.023 1674.09C980.339 1690.21 1005 1717.31 993.724 1740.21C981.357 1765.37 938.743 1766.29 914.101 1768.45C884.772 1771.02 850.327 1774.5 825.15 1790.31C817.187 1795.31 810.39 1801.9 807.476 1810.55C804.356 1819.81 807.664 1827.88 808.048 1837.13C808.853 1856.54 796.254 1872.19 779.638 1882.98C756.154 1898.24 726.855 1905.56 699.191 1910.7C667.849 1916.5 636.004 1919.45 604.111 1919.51C573.631 1919.58 543.47 1920.38 512.955 1921.27C473.048 1922.46 432.593 1921.13 393.943 1911.52C355.869 1902.06 321.307 1884.12 294.228 1857.6C267.811 1831.71 250.069 1800 234.555 1767.68C225.753 1749.33 210.861 1721.93 189.668 1712.76C180.244 1708.67 170.972 1709.01 181.078 1698.2C193.806 1684.59 210.917 1673.63 225.635 1661.96C246.867 1645.13 268.63 1627.97 286.484 1608C297.886 1595.24 303.005 1582.9 302.318 1566.48C301.786 1553.96 299.122 1541.59 300.576 1529.02C303.983 1499.51 329.175 1479.15 351.453 1460.19C365.785 1448 378.862 1438.69 386.302 1421.42C395.101 1401.01 398.872 1378.83 404.794 1357.66C411.301 1334.4 418.801 1310.21 432.831 1289.68C445.32 1271.41 460.429 1263.16 482.947 1267.94C518.068 1275.39 552.622 1294.03 583.741 1311.28C615.415 1328.82 646.531 1348.58 672.723 1372.8C686.864 1385.88 696.479 1401.27 709.023 1415.33C724.802 1432.99 760.764 1426.07 782.122 1424.45C817.577 1421.76 929.199 1402.48 918.566 1462.97C914.127 1488.22 897.081 1511.59 884.585 1533.92C879.405 1543.19 871.923 1554.32 870.703 1564.91C869.374 1576.45 880.657 1587.34 887.958 1595.49Z" stroke="#F3F3F3" stroke-width="5"/>
<path fill-rule="evenodd" clip-rule="evenodd" d="M875.068 1593.25C893.603 1617.81 915.82 1640.99 931.693 1667.54C941.991 1684.74 952.068 1707.73 938.554 1726.06C923.302 1746.74 889.901 1751.73 865.363 1754.49C840.082 1757.34 809.908 1759.78 789.169 1775.51C782.571 1780.52 777.117 1787.26 776.063 1795.3C775.047 1803.02 777.747 1810.71 776.793 1818.56C774.656 1836.19 763.04 1850.77 748.11 1861.38C703.945 1892.77 638.436 1900.06 585.359 1901.17C558.791 1901.73 531.464 1899.75 504.736 1898.38C470.053 1896.6 435.331 1892.55 402.301 1882.52C332.074 1861.2 285.195 1813.31 252.603 1753.57C242.346 1734.76 234.53 1714.4 218.374 1699.33C210.045 1691.55 211.906 1685.92 220.507 1678.74C233.955 1667.51 250.329 1658.89 265.237 1649.5C286.44 1636.14 308.097 1622.58 326.873 1606.62C339.814 1595.61 349.017 1585.03 351.886 1568.62C353.932 1556.92 353.537 1545.01 354.794 1533.24C357.187 1510.88 365.073 1488.66 378.916 1470.05C389.914 1455.3 402.984 1441.88 416.487 1429.07C434.04 1412.4 448.902 1395.48 462.273 1375.74C480 1349.6 504.971 1301.43 546.304 1313.91C591.89 1327.68 634.49 1363.08 663.593 1397.45C673.367 1408.99 681.363 1423.16 694.584 1431.64C714.377 1444.31 734.536 1443.75 758.164 1443.56C793.54 1443.29 870.557 1435.75 871.11 1484.84C871.327 1504.28 862.137 1522.72 857.68 1541.45C852.655 1562.43 862.408 1576.51 875.068 1593.25Z" stroke="black" stroke-width="5" style="mix-blend-mode:soft-light"/>
<path fill-rule="evenodd" clip-rule="evenodd" d="M861.171 1591.13C879.461 1623.17 920.583 1675.77 888.875 1711.69C872.126 1730.67 842.651 1737.94 817.935 1742.3C798.044 1745.84 774.073 1747.26 758.977 1761.85C747.881 1772.57 752.691 1788.07 748.388 1801.44C743.046 1818.03 730.925 1831.64 716.067 1841.9C674.545 1870.58 616.989 1879.63 567.225 1881.77C515.542 1883.98 458.658 1875.29 410.131 1858.24C349.627 1836.97 304.438 1796.31 272.967 1744.68C267.161 1735.15 261.891 1725.36 256.319 1715.71C252.575 1709.24 247.005 1702.99 244.064 1696.18C239.167 1684.82 245.065 1675.48 254.479 1668C268.019 1657.24 284.621 1649.55 300.034 1641.44C321.111 1630.35 342.656 1619.45 362.278 1606.47C375.463 1597.73 389.267 1588.32 394.053 1573.27C397.32 1563 398.047 1552.13 397.993 1541.52C397.873 1518.75 399.267 1500.34 410.858 1479.42C429.93 1445.08 459.134 1414.14 489.947 1388.36C514.129 1368.13 552.39 1336.69 587.38 1349.94C618.775 1361.79 637.016 1390.49 657.613 1413.66C667.627 1424.93 678.89 1435.2 692.147 1443.18C708.861 1453.24 724.626 1457.41 744.488 1458.96C777.916 1461.57 828.341 1462.02 838.469 1499.12C842.208 1512.81 839.948 1527.03 841.872 1540.91C844.383 1559.26 851.944 1574.96 861.171 1591.13Z" stroke="black" stroke-width="5" style="mix-blend-mode:soft-light"/>
<path fill-rule="evenodd" clip-rule="evenodd" d="M841.97 1590.04C854.924 1625.15 871.953 1669.38 840.005 1700.82C824.531 1716.05 802.837 1724.64 781.851 1731.08C766.821 1735.7 742.99 1737.16 733.712 1751.16C726.897 1761.45 725.882 1775.61 719.707 1786.63C711.223 1801.79 698.43 1814.31 683.448 1824.14C644.419 1849.74 593.718 1859.83 547.515 1862.9C447.124 1869.55 345.287 1821.57 292.039 1742C276.162 1718.28 255.637 1693.06 281.651 1668.59C310.053 1641.9 352.683 1629.23 386.509 1610.19C399.434 1602.91 415.901 1594.17 423.162 1581.1C427.531 1573.24 427.883 1563.4 428.129 1554.78C428.774 1532.81 430.856 1513.04 440.509 1492.49C455.417 1460.73 479.069 1431.38 505.819 1407.29C529.148 1386.29 562.388 1361.57 596.011 1376.43C621.791 1387.85 638.043 1412.31 658.022 1430.29C680.255 1450.32 707.816 1463.74 738.13 1470.21C767.618 1476.48 799.976 1480.64 815.381 1507.9C820.665 1517.26 826.173 1529.37 828.115 1539.75C831.248 1556.85 835.881 1573.67 841.97 1590.04V1590.04Z" stroke="#F3F3F3" stroke-width="5"/>
<path fill-rule="evenodd" clip-rule="evenodd" d="M820.554 1589.92C826.438 1625.4 826.904 1662.43 798.471 1690.59C785.201 1703.72 768.469 1713.09 751.554 1721.59C739.108 1727.85 726.263 1733.14 716.937 1743.33C708.297 1752.76 701.707 1763.7 693.362 1773.38C682.353 1786.21 669.205 1797.34 654.422 1806.33C617.367 1828.84 572.385 1839.52 529.388 1843.38C508.573 1845.25 486 1846.29 465.363 1841.61C445.432 1837.1 425.741 1829.9 407.439 1821.47C368.534 1803.58 334.877 1777.25 310.559 1743.85C293.885 1720.95 284.925 1698.64 306.82 1675.18C331.503 1648.75 370.053 1634.03 401.856 1616.78C423.669 1604.95 448.107 1593.34 452.31 1568.44C455.658 1548.63 458.391 1529.83 466.866 1511.07C479.478 1483.4 497.933 1458.3 521.136 1437.25C542.356 1418.07 569.156 1401.75 599.296 1411.76C623.175 1419.71 641.636 1437.71 662.466 1450.53C685.68 1464.85 711.229 1472.68 738.145 1478.93C762.334 1484.58 785.091 1493.34 800.639 1512.11C803.821 1515.95 807.163 1520.12 809.609 1524.42C812.729 1529.91 812.454 1535.36 813.038 1541.52C814.558 1557.79 817.894 1573.85 820.554 1589.92Z" stroke="black" stroke-width="5" style="mix-blend-mode:soft-light"/>
<path fill-rule="evenodd" clip-rule="evenodd" d="M796.923 1592.95C796.212 1626.69 787.271 1658.63 763.129 1685.05C752.808 1696.36 740.507 1705.69 729.162 1716.06C720.028 1724.42 711.396 1732.19 700.907 1739.09C676.028 1755.44 655.763 1776.53 629.339 1791.12C594.065 1810.62 553.725 1821.51 513.733 1826C494.205 1828.19 474.04 1829.03 454.309 1826.79C437.362 1824.86 421.161 1817.85 406.136 1810.67C376.688 1796.61 348.132 1776.55 329.105 1751.08C287.154 1694.92 370.728 1653.46 413.639 1629.21C433.374 1618.06 463.506 1605.1 471.688 1583.17C477.537 1567.51 481.137 1551.6 488.641 1536.41C508.799 1495.62 549.522 1447.56 603.392 1453.63C626.443 1456.22 647.404 1467.16 668.895 1474.46C691.024 1481.98 713.885 1486.11 736.904 1490.66C758.418 1494.91 775.549 1501.03 789.366 1517.61C795.97 1525.53 795.329 1535.06 795.866 1544.82C796.742 1560.84 797.248 1576.97 796.923 1592.95Z" stroke="black" stroke-width="5" style="mix-blend-mode:soft-light"/>
<path fill-rule="evenodd" clip-rule="evenodd" d="M775.396 1597.39C766.446 1648.36 733.966 1704.14 686.505 1733.98C630.676 1769.08 570.242 1798.71 503.727 1807.5C472.889 1811.57 439.121 1813.68 410.116 1801.08C388.042 1791.49 362.419 1777.11 350.356 1756.76C320.844 1706.99 387.344 1666.87 425.234 1643.56C445.634 1631.01 471.58 1618.74 487.005 1600.49C495.954 1589.91 500.571 1575.96 507.814 1564.35C529.763 1529.18 565.725 1500.71 610.351 1495.41C630.985 1492.96 651.74 1495.73 672.191 1497.92C693.126 1500.15 714.327 1501.31 735.126 1504.47C751.73 1507 771.289 1511.32 777.316 1527.76C784.916 1548.48 779.048 1576.58 775.396 1597.39Z" stroke="#489A45" stroke-width="5" style="mix-blend-mode:soft-light"/>
<path fill-rule="evenodd" clip-rule="evenodd" d="M754.263 1605.69C741.361 1653.64 714.35 1700.49 669.225 1729.32C645.296 1744.61 617.558 1755.23 590.925 1765.71C560.736 1777.59 529.213 1786.86 497.043 1791.55C456.989 1797.39 392.14 1802.82 371.47 1760.7C350.955 1718.89 403.61 1681.49 434.743 1660.17C454.704 1646.51 476.054 1633.96 495.136 1619.04C505.483 1610.96 513.472 1601.64 522.242 1592.17C546.484 1565.95 580.95 1545.1 616.022 1533.88C650.014 1523 692.017 1518.04 727.815 1521.37C743.26 1522.8 754.278 1527.86 758.869 1542.4C765.231 1562.61 759.596 1585.88 754.263 1605.69Z" stroke="black" stroke-width="5" style="mix-blend-mode:soft-light"/>
<path fill-rule="evenodd" clip-rule="evenodd" d="M733.238 1618.7C720.451 1660.93 693.168 1699.58 653.549 1725.1C609.137 1753.71 552.068 1769.78 499.651 1778.09C471.789 1782.5 411.397 1794.38 397.396 1761.43C383.394 1728.47 424.598 1695.69 448.309 1677.64C477.086 1655.77 508.098 1634.63 539.065 1614.97C565.97 1597.88 594.675 1580.4 623.788 1567.16C640.207 1559.65 657.302 1553.49 674.87 1548.77C687.878 1545.3 704.423 1540.14 718.026 1542.59C752.338 1548.79 739.353 1598.51 733.238 1618.7Z" stroke="#F3F3F3" stroke-width="5"/>
<path fill-rule="evenodd" clip-rule="evenodd" d="M707.303 1631.47C679.32 1711.34 591.873 1751.03 507.813 1765.17C488.279 1768.45 433.507 1780.19 422.737 1755.9C412.301 1732.35 446.078 1704.16 461.892 1690.8C510.896 1649.42 571.324 1618.61 628.592 1588.09C646.467 1578.57 678.726 1557.94 700.78 1567.25C724.725 1577.38 713.1 1614.91 707.303 1631.47Z" stroke="#489A45" stroke-width="5" style="mix-blend-mode:soft-light"/>
<path fill-rule="evenodd" clip-rule="evenodd" d="M679.011 1646.96C654.736 1705.8 584.908 1739.86 520.822 1751.32C505.125 1754.12 465.25 1762.8 453.466 1746.48C442.561 1731.39 468.916 1709.28 478.778 1700.5C500.736 1680.95 526.717 1664.8 552.383 1649.27C576.114 1634.9 600.102 1620.18 625.055 1608C638.198 1601.59 662.858 1587.93 677.697 1597.64C693.673 1608.07 684.401 1633.9 679.011 1646.96Z" stroke="#489A45" stroke-width="5" style="mix-blend-mode:soft-light"/>
<path fill-rule="evenodd" clip-rule="evenodd" d="M647.839 1664.29C629.373 1702.73 580.359 1727.9 537.2 1736.41C525.587 1738.69 500.482 1744.6 490.754 1734.41C481.798 1725.03 496.397 1711.13 502.877 1704.71C531.598 1676.25 573.566 1650.74 611.974 1635.01C621.631 1631.05 638.995 1623.29 648.861 1631.12C658.982 1639.15 652.08 1655.46 647.839 1664.29Z" stroke="black" stroke-width="5" style="mix-blend-mode:soft-light"/>
<path fill-rule="evenodd" clip-rule="evenodd" d="M614.782 1680.57C604.391 1699.67 577.435 1714.18 555.147 1718.88C539.462 1722.18 520.645 1719.51 534.393 1702.86C548.051 1686.34 573.304 1671.18 594.673 1664.4C610.977 1659.23 623.704 1664.17 614.782 1680.57Z" stroke="black" stroke-width="5" style="mix-blend-mode:soft-light"/>
<path fill-rule="evenodd" clip-rule="evenodd" d="M1449.37 1544.09C1449.82 1581.69 1471.17 1620.66 1460.3 1659.05C1451.37 1690.57 1407.31 1693.44 1380.8 1707.85C1359.74 1719.29 1347.7 1739.43 1336.24 1758.75C1325.94 1776.09 1316.67 1793.95 1305.82 1811.01C1298.8 1822.04 1286.73 1843.69 1271.64 1844.17C1257.19 1844.62 1244.04 1827.88 1235.7 1817.98C1224.84 1805.08 1215.21 1791.32 1204.67 1778.21C1186.89 1756.1 1165.5 1739.78 1140.99 1724.36C1113.09 1706.81 1084.74 1689.87 1055.91 1673.53C1034.69 1661.47 1013.32 1649.5 992.936 1636.23C980.147 1627.9 951.905 1612.31 951.863 1596.82C951.842 1589.44 959.444 1581.21 964.572 1575.28C973.249 1565.24 983.126 1556.04 993.032 1547.05C1011.48 1530.29 1030.71 1514.28 1049.73 1498.08C1074.41 1477.06 1098 1456.38 1119.73 1432.55C1142.2 1407.88 1163.67 1382.41 1185.58 1357.28C1200.42 1340.26 1215.26 1321.15 1236.58 1310.64C1263.29 1297.49 1285.07 1311.07 1312.01 1311.08C1335.18 1311.09 1333.19 1360.85 1336.05 1374.66C1338.93 1388.65 1345.36 1401.64 1347.81 1415.66C1350.86 1433.16 1350.8 1451.09 1351.47 1468.79C1352.29 1490.44 1352.54 1511.05 1377.48 1519.17C1391.67 1523.79 1407.05 1524.69 1421.75 1527.42C1431.27 1529.19 1449.23 1532.21 1449.37 1544.09Z" stroke="#F3F3F3" stroke-width="5"/>
<path fill-rule="evenodd" clip-rule="evenodd" d="M1437.95 1550.84C1440.2 1582.35 1454.32 1622.63 1440.56 1655.25C1428.81 1683.12 1392.54 1686.93 1368.04 1701.67C1347.82 1713.84 1338.74 1733.6 1328.55 1753.03C1320.38 1768.62 1312.46 1784.35 1303.2 1799.44C1296.37 1810.57 1285.94 1829.34 1271.87 1831.71C1259.22 1833.85 1245.76 1817.4 1238.72 1809.03C1228.44 1796.82 1219.66 1783.54 1210.59 1770.54C1194.66 1747.71 1178.33 1727.2 1154.91 1710.49C1131.39 1693.71 1105.62 1681.21 1079.59 1668.2C1059.22 1658.02 1038.95 1647.54 1019.61 1635.76C1005.2 1626.99 984.481 1615.78 977.955 1600.04C972.789 1587.58 999.467 1566.72 1007.34 1559.36C1023.55 1544.24 1040.71 1530.03 1057.91 1515.91C1078.87 1498.7 1100.49 1483.64 1119.02 1464.04C1152.18 1429 1179.97 1385.43 1222.53 1359.29C1248.19 1343.52 1276.68 1339.37 1305.11 1341.55C1316.37 1342.41 1318.99 1357.13 1320.36 1365.72C1322.64 1379.98 1322.86 1394.5 1324.59 1408.83C1326.21 1422.23 1329.92 1434.96 1332.89 1448.1C1335.89 1461.42 1336.67 1475.07 1338.87 1488.48C1340.22 1496.81 1341.56 1506.5 1347.66 1513.17C1353.98 1520.07 1364.44 1522.91 1373.6 1525.07C1390.78 1529.08 1436.36 1528.6 1437.95 1550.84Z" stroke="black" stroke-width="5" style="mix-blend-mode:soft-light"/>
<path fill-rule="evenodd" clip-rule="evenodd" d="M1423.21 1564.12C1427.13 1593.04 1432.64 1629.05 1415.85 1655.81C1402.13 1677.68 1373.09 1682.55 1352.29 1696.87C1334.99 1708.78 1328.38 1727.6 1319.72 1745.11C1312.62 1759.47 1305.48 1773.89 1296.9 1787.56C1290.39 1797.93 1281.99 1811.99 1269.16 1815.67C1258.19 1818.81 1245.9 1805.08 1239.86 1798.24C1229.59 1786.59 1221.24 1773.52 1212.94 1760.63C1199.36 1739.52 1186.89 1716.97 1167.5 1699.85C1148.65 1683.24 1126.21 1673.49 1103.35 1662.53C1085.84 1654.12 1068.45 1645.39 1051.96 1635.35C1039.31 1627.64 1023.62 1618.51 1017.07 1605.6C1011.41 1594.47 1026.18 1581.17 1033.57 1573.26C1045.77 1560.19 1059.29 1548.2 1072.63 1536.15C1087.02 1523.16 1102.95 1511.15 1116.88 1497.84C1146.17 1469.83 1169.63 1438.87 1205.66 1417.34C1229 1403.39 1260.37 1390.66 1287.85 1392.77C1307.61 1394.28 1306.08 1434.83 1307.91 1447.77C1310.91 1468.94 1316.81 1491.16 1326.28 1510.61C1334.41 1527.29 1353.93 1532.33 1371.9 1535.98C1383.15 1538.27 1394.95 1539.48 1405.82 1543.06C1418.41 1547.2 1421.57 1552 1423.21 1564.12Z" stroke="#489A45" stroke-width="5" style="mix-blend-mode:soft-light"/>
<path fill-rule="evenodd" clip-rule="evenodd" d="M1409.46 1577.76C1411.75 1602.21 1411.04 1631.15 1395.17 1652.4C1381.26 1671.02 1356.65 1676.04 1339.08 1690.74C1325.37 1702.21 1319.91 1720.81 1312.49 1735.92C1303.41 1754.39 1290.65 1788.49 1267.99 1795.55C1246.91 1802.11 1225.14 1761.06 1217.59 1748.83C1205.64 1729.46 1195.67 1708.21 1181.14 1690.35C1168.64 1674.97 1151.81 1666.52 1133.94 1657.44C1111.17 1645.85 1076.57 1632.14 1064.49 1609.37C1055.48 1592.39 1085.23 1566.92 1095.4 1555.07C1106.04 1542.69 1114.09 1528.04 1125.07 1516.1C1142.39 1497.25 1170.37 1481.99 1193.47 1470.34C1215.93 1459 1245.08 1446.43 1270.48 1447.03C1287.17 1447.42 1290.21 1471.29 1293.71 1482.94C1298.72 1499.5 1305.42 1514.33 1319.93 1525.53C1334.7 1536.93 1352.16 1542.24 1370.51 1546.88C1379.94 1549.24 1390.69 1551.06 1399.1 1555.89C1408.4 1561.15 1408.57 1568.36 1409.46 1577.76Z" stroke="black" stroke-width="5" style="mix-blend-mode:soft-light"/>
<path fill-rule="evenodd" clip-rule="evenodd" d="M1392.71 1591.95C1392.46 1613.09 1387.11 1635.66 1371.55 1652.05C1358.59 1665.7 1338.4 1670.35 1325.98 1684.31C1316.15 1695.35 1311.09 1710.81 1304.48 1723.61C1296.39 1739.3 1284.93 1766.69 1265 1772.23C1245.56 1777.62 1228.56 1747.62 1221.18 1735.75C1210.38 1718.35 1201.66 1699.89 1190.76 1682.53C1182.22 1668.92 1171.74 1660.17 1157.76 1651.44C1141.34 1641.19 1118.43 1629.86 1109.73 1612.8C1103.45 1600.44 1118.92 1580.56 1124.56 1569.62C1128.34 1562.26 1131.8 1554.8 1133.72 1546.84C1135.22 1540.65 1135.4 1534.92 1139.67 1529.58C1150.43 1516.16 1173.85 1514.28 1189.76 1509.79C1210.88 1503.83 1233.3 1497.06 1255.39 1495.67C1268.96 1494.8 1275.82 1506.34 1283.52 1514.45C1292.62 1524.03 1305.53 1530.88 1316.81 1538.09C1331.69 1547.61 1347.91 1553.5 1364.68 1559.53C1372.25 1562.25 1381.14 1564.91 1386.99 1570.37C1393.09 1576.02 1392.8 1584.32 1392.71 1591.95Z" stroke="#F3F3F3" stroke-width="5"/>
<path fill-rule="evenodd" clip-rule="evenodd" d="M1375.14 1604.6C1372.36 1622.36 1363.91 1639.38 1349.72 1652.01C1338.85 1661.7 1324.45 1667.21 1315.7 1678.83C1307.55 1689.67 1301.84 1701.97 1295.1 1713.55C1287.95 1725.78 1277.33 1746.23 1261 1749.64C1243.4 1753.31 1229.98 1732.82 1222.55 1721.46C1213.16 1707.11 1206.05 1691.65 1197.66 1676.8C1191.34 1665.73 1183.26 1655.62 1173.69 1646.8C1163.64 1637.51 1150 1628.63 1144.97 1615.8C1140.52 1604.43 1149.04 1590.61 1150.6 1579.05C1152.27 1566.71 1149.54 1553.76 1158.45 1543.12C1176.81 1521.17 1222.56 1524.97 1248.73 1524.35C1274.55 1523.73 1295.24 1536.98 1316.06 1549.58C1329.81 1557.9 1344.14 1564.93 1358.25 1572.68C1372.63 1580.58 1377.59 1588.96 1375.14 1604.6Z" stroke="#489A45" stroke-width="5" style="mix-blend-mode:soft-light"/>
<path fill-rule="evenodd" clip-rule="evenodd" d="M1358.82 1614.85C1350.75 1640.61 1325.91 1654.42 1308.09 1673.95C1293.52 1689.94 1282.47 1722.96 1258.05 1727.45C1230.32 1732.55 1213.99 1688.98 1204.46 1672.19C1193.88 1653.57 1174.94 1638.47 1167.14 1618.74C1163.03 1608.38 1166.66 1598.68 1168.94 1588.29C1171.43 1576.88 1173.32 1565.22 1181.75 1556C1198.35 1537.86 1230.57 1537.81 1253.78 1537.18C1277.8 1536.54 1298.98 1548.78 1318.05 1561.02C1338.27 1573.98 1367.09 1588.43 1358.82 1614.85Z" stroke="#489A45" stroke-width="5" style="mix-blend-mode:soft-light"/>
<path fill-rule="evenodd" clip-rule="evenodd" d="M1345.5 1621.9C1336.46 1640.27 1317.6 1655.27 1302.29 1669.42C1289.51 1681.21 1275.69 1704.89 1256.3 1706.68C1233.5 1708.79 1219.83 1683.67 1210.96 1668.26C1202.22 1653.13 1189.59 1637.17 1184.8 1620.53C1179.8 1603.2 1193.51 1579.74 1206.52 1567.38C1221.03 1553.6 1244.67 1548.41 1264.93 1548.85C1286.14 1549.28 1305.54 1560.5 1321.54 1572.15C1338.65 1584.61 1356.01 1600.57 1345.5 1621.9Z" stroke="#F3F3F3" stroke-width="5"/>
<path fill-rule="evenodd" clip-rule="evenodd" d="M1333.16 1625.41C1324.54 1640.7 1309.67 1653.68 1295.97 1665.25C1285.39 1674.19 1269.77 1689.37 1254.58 1689.83C1237.88 1690.33 1223.79 1677.74 1217.22 1664.78C1210.75 1652.01 1203.94 1635.99 1203.04 1621.94C1201.08 1591.34 1244.61 1556.82 1277.13 1559.43C1307.97 1561.9 1350.35 1594.95 1333.16 1625.41Z" stroke="#489A45" stroke-width="5" style="mix-blend-mode:soft-light"/>
<path fill-rule="evenodd" clip-rule="evenodd" d="M1321.75 1627.16C1309.87 1647.08 1281.11 1675.55 1254.63 1676.37C1224.24 1677.31 1216.79 1645.85 1220.88 1622.99C1225.03 1599.67 1260.26 1565.75 1288.17 1570.15C1315.42 1574.45 1335.84 1603.53 1321.75 1627.16Z" stroke="black" stroke-width="5" style="mix-blend-mode:soft-light"/>
<path fill-rule="evenodd" clip-rule="evenodd" d="M1309.7 1630.44C1299.64 1647.12 1278.25 1668 1256.06 1668.75C1229.62 1669.65 1230.27 1643.05 1236.36 1626.46C1242.69 1609.24 1270.31 1579.73 1293.43 1584.23C1315.91 1588.63 1319.35 1614.45 1309.7 1630.44Z" stroke="#F3F3F3" stroke-width="5"/>
<path fill-rule="evenodd" clip-rule="evenodd" d="M1299.21 1632.41C1292.57 1644.31 1276.01 1659.39 1260.36 1659.96C1241.22 1660.64 1245.06 1639.53 1250.06 1629.32C1256 1617.17 1275.82 1596.01 1292.33 1599.33C1308.59 1602.6 1304.7 1622.6 1299.21 1632.41Z" stroke="#489A45" stroke-width="5" style="mix-blend-mode:soft-light"/>
<path fill-rule="evenodd" clip-rule="evenodd" d="M402.944 959.588C445.432 935.55 493.422 915.636 538.685 895.415C604.83 865.868 671.944 837.101 741.395 814.978C778.631 803.121 826.891 786.056 866.722 794.962C881.285 798.217 894.526 808.234 907.563 814.718C925.54 823.659 943.785 832.151 961.998 840.662C998.535 857.722 1035.19 874.609 1071.09 892.78C1088.37 901.532 1105.13 912.583 1123.14 920.032C1133.66 924.388 1146.3 922.252 1157.57 921.91C1183.68 921.115 1209.78 919.738 1235.87 918.543C1267.8 917.085 1299.79 915.544 1331.74 915.872C1346.15 916.023 1381.45 913.458 1389.32 924.91C1393.55 931.078 1383.43 942.298 1378.74 947.49C1370.12 957.031 1360.23 965.641 1350.47 974.164C1327.91 993.873 1303.95 1012.66 1283.86 1034.64C1273.54 1045.95 1260.03 1059.76 1266.63 1075.08C1273.3 1090.55 1284.93 1103.91 1291.99 1119.32C1300.11 1137.06 1303.42 1155.55 1307.19 1174.39C1309.99 1188.31 1316.62 1200.62 1322.84 1213.43C1329.71 1227.6 1336.84 1241.88 1341.58 1256.83C1344.72 1266.71 1349.77 1284.47 1338.57 1290.8C1322.65 1299.8 1292.94 1292.75 1274.87 1290.23C1249.89 1286.74 1225.11 1282.27 1200.2 1278.44C1182.12 1275.65 1163.98 1272.58 1145.59 1272.35C1115.93 1271.97 1086.16 1274.02 1056.57 1275.93C1001.78 1279.48 947.38 1284.19 892.424 1284.49C844.276 1284.76 733.303 1233.78 707.31 1224.84C655.428 1207 602.157 1190.1 553.1 1166.25C539.829 1159.79 519.396 1151.2 512.47 1137.79C508.197 1129.53 510.21 1124.73 500.051 1119.45C486.192 1112.24 468.398 1109.48 453.029 1106.31C428.277 1101.2 403.328 1096.89 378.46 1092.28C328.161 1082.97 278.212 1072.41 228.126 1062.26C212.985 1059.19 194.649 1058.59 180.228 1053.11C170.933 1049.6 171.925 1045.1 179.167 1039.64C191.869 1030.06 209.626 1024.68 224.597 1019.17C246.533 1011.1 268.823 1003.88 291.123 996.769C313.423 989.655 335.836 982.756 358.147 975.628C372.885 970.934 389.682 967.09 402.944 959.588Z" stroke="#F3F3F3" stroke-width="5"/>
<path fill-rule="evenodd" clip-rule="evenodd" d="M437.766 964.629C482.702 940.53 532.54 921.252 580.586 902.448C642.077 878.367 704.947 855.768 769.679 840.568C807.686 831.65 852.525 821.787 891.253 831.556C905.069 835.042 915.361 842.993 927.181 849.995C940.654 857.985 954.651 865.298 968.649 872.495C997.464 887.309 1026.59 901.61 1056.02 915.398C1071.61 922.731 1088.75 932.572 1106.4 935.048C1120.43 937.019 1136.39 933.965 1150.5 933.024C1175.9 931.33 1201.3 929.588 1226.71 928.087C1256.04 926.357 1285.44 924.747 1314.82 924.834C1331.19 924.883 1359.32 922.417 1370.84 932.154C1380.89 940.651 1343.94 971.789 1337.43 977.702C1317.13 996.164 1295.78 1013.75 1276.87 1033.48C1265.69 1045.11 1252.08 1059.26 1247.31 1074.62C1243.25 1087.72 1250.86 1102.57 1255.34 1114.62C1260.93 1129.73 1265.43 1145.39 1271.95 1160.17C1277.76 1173.33 1287.05 1185.04 1295.2 1197C1304.17 1210.15 1313.25 1223.51 1319.88 1237.88C1323.94 1246.71 1330.66 1261.52 1322.44 1270.01C1312.95 1279.8 1283.87 1273.6 1271.92 1272.28C1247.66 1269.56 1223.6 1265.45 1199.52 1261.78C1159.51 1255.7 1121.38 1250.4 1080.6 1251.95C1027.49 1253.97 974.429 1258.32 921.332 1260.86C901.725 1261.81 881.801 1263.61 862.188 1262.81C850.944 1262.34 842.398 1259.21 835.897 1252.07C827.02 1242.32 806.476 1237.01 792.198 1231.47C769.936 1222.83 747.39 1214.81 724.907 1206.68C675.55 1188.83 625.239 1171.64 578.466 1148.45C563.668 1141.12 546.723 1132.95 535.816 1120.76C529.729 1113.96 531.311 1107.37 527.614 1100.13C522.718 1090.61 506.467 1086.39 496.756 1083.32C478.015 1077.39 458.492 1073.45 439.119 1069.77C395.282 1061.44 351.325 1056.05 306.751 1052.15C296.305 1051.24 255.169 1048.13 276.876 1031.91C300.859 1013.98 335.392 1005.06 363.564 994.88C388.943 985.723 414.339 977.193 437.766 964.629Z" stroke="#F3F3F3" stroke-width="5"/>
<path fill-rule="evenodd" clip-rule="evenodd" d="M499.655 968.696C541.884 947.479 588.623 931.565 634.061 916.337C689.2 897.859 745.707 881.348 803.479 871.953C839.771 866.056 879.773 861.458 915.734 870.721C940.292 877.044 959.218 894.403 980.752 906.297C1002.29 918.192 1024.7 929.345 1047.79 938.617C1062.13 944.372 1077.55 950.163 1093.54 949.304C1132.41 947.22 1171.26 942.551 1210.18 940.173C1235.93 938.586 1261.73 937.254 1287.55 937.466C1303.11 937.591 1324.51 936.606 1338.25 944.115C1353.44 952.421 1271.9 1024.51 1264.19 1032.61C1244.85 1052.94 1221.42 1079.9 1224.98 1108.63C1228.38 1136.1 1243.67 1156.53 1260.97 1177.97C1270.79 1190.17 1302.32 1222.72 1290.48 1238.72C1283.71 1247.86 1261.6 1244.83 1251.09 1244.27C1230.37 1243.16 1209.78 1240.65 1189.18 1238.48C1159.14 1235.34 1128.29 1230.41 1098.11 1229.08C1077.1 1228.15 1055.95 1229.66 1034.89 1229.81C1004.7 1230.02 974.51 1229.97 944.321 1229.89C918.973 1229.82 893.408 1230.17 868.16 1228.06C852.464 1226.76 840.561 1223.71 829.347 1214.98C819.589 1207.38 804.826 1202.98 792.361 1198.18C771.773 1190.26 750.911 1182.93 730.118 1175.48C686.582 1159.88 642.545 1144.61 600.901 1125.04C581.891 1116.11 549.914 1103.64 545.567 1081.75C543.998 1073.86 542.831 1070.46 534.528 1066.01C522.743 1059.71 508.601 1056.91 495.352 1054.49C464.466 1048.83 432.646 1049.88 401.812 1044.3C389.255 1041.99 372.872 1036.96 387.289 1025.16C404.112 1011.35 428.531 1003.68 448.641 995.093C458.68 990.811 469.019 986.796 478.558 981.583C485.884 977.566 492.164 972.434 499.655 968.696Z" stroke="#489A45" stroke-width="5" style="mix-blend-mode:soft-light"/>
<path fill-rule="evenodd" clip-rule="evenodd" d="M579.376 974.803C618.378 957.544 660.7 944.918 702.257 933.517C748.414 920.869 795.672 910.343 843.52 905.71C876.559 902.501 911.748 901.413 943.746 910.494C963.981 916.239 977.652 928.481 995.035 938.715C1021.27 954.182 1049.68 966.396 1081.32 963.209C1116.79 959.643 1152.38 956.919 1188.07 955.034C1209.61 953.897 1231.22 953.014 1252.77 953.603C1266.39 953.971 1283.94 954.622 1295.76 960.273C1311.58 967.843 1251.67 1026.44 1244.2 1034.98C1225.66 1056.14 1212.03 1078.31 1204 1104.45C1197.44 1125.78 1210.49 1142.45 1223.96 1158.3C1232.33 1168.14 1259.43 1192.87 1250.83 1205.76C1246.11 1212.87 1230.7 1212.59 1222.42 1213C1206.63 1213.77 1190.79 1213.15 1175.01 1212.92C1151.72 1212.57 1126.9 1216.02 1103.81 1213.48C1052.65 1207.86 1001.61 1203.03 950.125 1199.27C921.741 1197.2 893.184 1195.33 865.067 1191.19C854.972 1189.7 844.546 1188.12 834.993 1184.68C828.847 1182.47 825.511 1178.67 820.332 1175.56C795.637 1160.77 763.335 1153.27 735.481 1143.86C698.452 1131.34 661.223 1119.03 625.195 1104.21C606.244 1096.41 579.765 1087.47 566.786 1071.42C562.864 1066.56 564.57 1062.66 562.112 1057.99C559.285 1052.6 550.61 1051.03 545.01 1049.56C532.302 1046.21 479.057 1041.33 503.722 1021.13C515.49 1011.51 530.451 1005.29 543.699 997.703C548.496 994.955 553.173 992.193 557.18 988.499C563.883 982.305 570.472 978.756 579.376 974.803Z" stroke="black" stroke-width="5" style="mix-blend-mode:soft-light"/>
<path fill-rule="evenodd" clip-rule="evenodd" d="M664.317 981.708C741.277 953.709 831.394 934.423 915.109 937.596C942.948 938.656 972.885 942.543 996.944 956.282C1011.13 964.397 1022.45 973.584 1039.53 976.449C1051.86 978.515 1065.17 976.017 1077.59 975.07C1095.58 973.698 1113.57 972.46 1131.59 971.439C1153.92 970.192 1176.32 969.199 1198.69 969.538C1214.67 969.781 1236.74 969.282 1250.58 977.159C1267.1 986.553 1224.66 1031.29 1218.67 1039.25C1204.18 1058.55 1193.98 1077.23 1190.21 1100.41C1189.1 1107.16 1185.44 1114.1 1185.87 1120.9C1186.32 1127.84 1190.91 1134 1195.14 1139.44C1200.68 1146.57 1219.93 1163.44 1214.34 1172.2C1211.25 1177.04 1199.76 1177.71 1193.79 1178.76C1182.61 1180.75 1171.26 1181.85 1160.01 1183.45C1140.92 1186.17 1121.93 1194.78 1102.79 1194.64C1051.31 1194.29 999.174 1179.8 948.773 1171.95C918.809 1167.28 888.639 1163.05 859.05 1156.65C849.688 1154.63 840.045 1152.53 831.154 1149.06C824.95 1146.63 820.981 1142.27 815.237 1139.55C793.211 1129.11 767.849 1122.83 744.173 1115.85C713.438 1106.76 682.597 1097.96 652.078 1088.28C632.948 1082.21 608.336 1076.92 591.888 1065.55C579.874 1057.26 588.132 1054.71 594.54 1046.88C597.812 1042.89 597.085 1038.98 598.522 1034.48C600.573 1028.05 606.297 1023.39 611.664 1019.21C619.065 1013.43 628.909 1008.64 634.974 1001.57C637.113 999.082 637.031 996.007 638.762 993.838C643.797 987.52 657.079 984.342 664.317 981.708Z" stroke="#F3F3F3" stroke-width="5"/>
<path fill-rule="evenodd" clip-rule="evenodd" d="M745.919 991.077C808.353 973.395 877.766 963.139 943.631 967.353C966.547 968.821 989.592 972.401 1010.9 980.427C1020.6 984.066 1027.87 988.144 1038.51 988.306C1063.21 988.68 1088 986.753 1112.7 986.186C1130.38 985.779 1148.14 985.57 1165.77 986.788C1177.55 987.6 1193.49 988.562 1203.11 995.206C1217.09 1004.88 1191.57 1038.18 1186.36 1047.38C1177.73 1062.62 1169.15 1079.56 1172.44 1097.12C1173.45 1102.49 1175.26 1107.23 1175.47 1112.71C1175.67 1117.42 1175.01 1121.77 1176.79 1126.27C1178.99 1131.84 1188.86 1140.45 1185.42 1145.61C1183.07 1149.13 1176.18 1149.33 1171.59 1150.48C1164.14 1152.34 1156.86 1154.77 1149.84 1157.75C1142.44 1160.89 1136.13 1165.73 1128.46 1168.34C1116.03 1172.56 1102.13 1173.03 1089.08 1173.08C1037.02 1173.29 984.35 1164.07 933.664 1154.41C907.27 1149.38 880.732 1144 855.096 1136.29C847.312 1133.95 838.488 1131.6 831.656 1127.23C827.393 1124.51 824.512 1121.09 819.663 1119.05C778.243 1101.66 730.278 1095.39 686.272 1082.91C674.818 1079.66 611.331 1063.28 644.664 1047.35C664.915 1037.67 686.279 1033.2 704.782 1020.01C710.419 1016 714.18 1012.69 716.409 1006.6C717.877 1002.55 714.387 1004.62 719.267 1000.37C725.185 995.262 738.646 993.138 745.919 991.077Z" stroke="black" stroke-width="5" style="mix-blend-mode:soft-light"/>
<path fill-rule="evenodd" clip-rule="evenodd" d="M810.675 1000.97C883.735 986.411 961.025 985.308 1035.09 997.439C1053.76 1000.49 1073.21 999.631 1092.12 1000.33C1110.5 1001 1143.19 999.213 1156.46 1012.23C1166.09 1021.67 1155.47 1041.89 1151.78 1052.53C1147.07 1066.08 1142.95 1080.07 1150.47 1093.17C1154.88 1100.83 1160.94 1108.12 1165.67 1115.72C1167.93 1119.34 1172.6 1124.89 1170.62 1128.35C1167.35 1134.06 1152.16 1136.54 1144.79 1139.26C1121.21 1147.96 1096.29 1150.29 1071.14 1150.37C1024.68 1150.52 978.019 1144.89 932.493 1137.16C911.548 1133.61 890.312 1129.81 870.128 1123.53C858.706 1119.99 850.306 1113.07 839.403 1109C804.297 1095.89 766.539 1088.99 730.822 1077.02C720.484 1073.55 681.861 1062.03 701.431 1048.09C720.377 1034.6 747.892 1036.04 767.585 1023.33C769.814 1021.88 772.571 1020.14 773.871 1017.8C774.64 1016.4 773.316 1013.75 773.899 1012.96C779.974 1004.3 801.401 1002.81 810.675 1000.97Z" stroke="#489A45" stroke-width="5" style="mix-blend-mode:soft-light"/>
<path fill-rule="evenodd" clip-rule="evenodd" d="M857.904 1010.06C895.372 1005.09 933.643 1003.7 971.716 1003.19C992.527 1002.91 1015.4 1001.55 1035.73 1006.32C1048.22 1009.26 1060.29 1011.82 1073.17 1013.64C1087.03 1015.61 1109.36 1016.97 1117.75 1027.97C1124.01 1036.2 1119.59 1053.21 1119.3 1063.25C1119 1074.27 1121.39 1082.43 1129.74 1090.26C1134.99 1095.2 1159.11 1113.08 1156.28 1118.3C1153.59 1123.26 1136.71 1124.11 1129.4 1125.44C1106.32 1129.65 1082.94 1131.2 1059.49 1131.11C1023.16 1130.97 986.711 1127.74 950.982 1122.04C936.21 1119.68 920.944 1117.22 906.848 1112.41C897.355 1109.16 889.457 1103.35 880.027 1099.99C853.024 1090.35 824.449 1083.86 797.353 1074.04C788.658 1070.89 760.313 1062.51 767.194 1049.33C772.932 1038.32 792.255 1034.87 801.782 1027.46C817.988 1014.82 837.314 1012.78 857.904 1010.06Z" stroke="#489A45" stroke-width="5" style="mix-blend-mode:soft-light"/>
<path fill-rule="evenodd" clip-rule="evenodd" d="M881.455 1016.23C911.173 1012.92 941.572 1011.37 971.708 1011.14C991.158 1010.99 1011.68 1010.63 1030.74 1014.57C1040.32 1016.55 1048.62 1021.25 1057.67 1024.59C1067 1028.03 1079.87 1031.85 1083.86 1039.82C1087.61 1047.31 1086.13 1058.27 1089.41 1067.31C1092.33 1075.33 1098.51 1080.26 1105.16 1085.66C1109.39 1089.1 1131.16 1104.01 1128.62 1107.34C1125.89 1110.91 1112.76 1110.69 1105.93 1111.22C1087.1 1112.71 1068.21 1113.25 1049.34 1112.85C1023.59 1112.26 997.652 1110.37 972.369 1105.89C954.434 1102.71 940.936 1094.99 924.229 1089.36C902.585 1082.05 880.154 1076.3 858.721 1068.29C848.041 1064.3 832.229 1059.18 826.808 1048.76C824.723 1044.76 822.736 1034.59 825.105 1030.57C827.951 1025.74 838.452 1023.64 843.411 1022.37C855.834 1019.22 868.824 1017.64 881.455 1016.23Z" stroke="#F3F3F3" stroke-width="5"/>
<path fill-rule="evenodd" clip-rule="evenodd" d="M909.235 1023.77C946.384 1019.69 988.351 1016.17 1025.55 1023.75C1040.58 1026.81 1055.51 1036.04 1061.58 1048.71C1064.72 1055.25 1065.36 1063.06 1070.07 1069.4C1073.56 1074.08 1078.01 1078.3 1082.4 1082.24C1084.88 1084.46 1100.73 1096.61 1097.65 1098.82C1094.39 1101.14 1086.44 1100.43 1081.01 1100.52C1068 1100.73 1054.93 1100.34 1041.96 1099.5C1027.06 1098.53 1011.8 1097.25 997.352 1093.63C985.701 1090.7 975.105 1084.44 963.764 1080.76C933.949 1070.99 902.516 1063.39 874.556 1048.84C868.608 1045.75 856.837 1041.14 864.045 1034.04C873.013 1025.19 897.757 1025.02 909.235 1023.77Z" stroke="black" stroke-width="5" style="mix-blend-mode:soft-light"/>
<path fill-rule="evenodd" clip-rule="evenodd" d="M941.559 1030.56C968.012 1027.7 997.347 1026.27 1023.86 1031.7C1037.28 1034.45 1049.24 1040.27 1055.03 1051.63C1059.17 1059.73 1060.25 1068.78 1065.93 1076.55C1067.94 1079.29 1075.34 1086.98 1071.66 1088.68C1063.79 1092.35 1046.28 1088.28 1035.4 1086.43C1019.01 1083.64 1005.37 1075.65 989.8 1070.95C965.923 1063.75 935.638 1060 913.911 1047.61C892.972 1035.64 933.842 1031.4 941.559 1030.56Z" stroke="black" stroke-width="5" style="mix-blend-mode:soft-light"/>
<path fill-rule="evenodd" clip-rule="evenodd" d="M971.751 1037.02C994.197 1034.46 1034.1 1033.03 1046.78 1052.57C1049.14 1056.2 1055.58 1076.26 1049.23 1078.09C1044 1079.6 1035.82 1077.21 1029.93 1074.97C1018.98 1070.82 1008.71 1066.29 997.392 1062.88C987.753 1059.98 977.882 1057.31 968.372 1053.93C964.335 1052.51 956.744 1050.81 954.225 1047.54C947.446 1038.75 964.918 1037.8 971.751 1037.02Z" fill="#01002D" style="mix-blend-mode:soft-light"/>
</svg>
