<svg width="1480" height="2130" viewBox="0 0 1480 2130" fill="none" xmlns="http://www.w3.org/2000/svg">
<path fill-rule="evenodd" clip-rule="evenodd" d="M937.243 1653.35C937.232 1670 970.8 1688.53 985.129 1698.1C1013.46 1717.03 1042.94 1734.5 1072.15 1752.24C1101.35 1769.99 1130.64 1787.69 1158.47 1807.19C1176.54 1819.86 1197.78 1834.11 1209.99 1852.27C1235.98 1890.96 1153.35 1885.65 1131.94 1886.61C1077.45 1889.08 1014.98 1888.43 963.807 1908.94C933.258 1921.18 920.988 1941.49 927.364 1970.96C929.419 1980.55 935.601 1991.56 930.256 2000.94C924.549 2010.95 911.518 2016.79 900.708 2020.71C861.28 2035 816.032 2036.88 774.391 2038.88C729.489 2041.07 684.18 2040.75 639.605 2041.14C620.704 2041.31 600.928 2047.66 582.901 2052.84C559.267 2059.63 535.908 2067.23 512.466 2074.58C460.896 2090.73 407.753 2107.73 353.265 2112.06C319.142 2114.77 281.883 2111.56 255.513 2089.75C242.273 2078.8 235.404 2062.45 227.797 2047.93C218.588 2030.4 209.749 2012.69 199.937 1995.43C168.328 1939.86 123.055 1885.63 49.0773 1883.3C37.886 1882.95 26.885 1884.35 15.7426 1884.66C8.6468 1884.86 2.34164 1883.32 -0.256539 1876.5C-6.78859 1859.41 14.209 1832.25 22.8329 1818.61C41.7149 1788.75 62.9789 1760.22 82.9125 1730.96C96.1004 1711.61 118.888 1685.13 119.26 1661.7C119.591 1640.83 89.5047 1625.91 73.1374 1615.72C57.8003 1606.17 29.9886 1592.86 28.4134 1573.28C27.6505 1563.79 34.5007 1555.89 41.6413 1549.74C54.1573 1538.99 68.5488 1531.38 79.8233 1519.14C98.3115 1499.04 113.82 1471.46 111.48 1444.53C109.858 1425.88 98.3547 1413.72 83.6993 1402.12C77.54 1397.24 72.5381 1393.79 72.257 1385.81C71.8025 1373.15 77.2708 1359.72 81.7801 1347.95C97.9107 1305.84 120.711 1265.08 146.034 1227C158.687 1207.98 172.348 1189 189.073 1172.73C200.028 1162.05 214.791 1149.33 231.408 1149.25C250.646 1149.15 270.966 1155.42 289.638 1160.1C324.513 1168.83 358.958 1178.97 393.264 1189.36C472.6 1213.42 551.178 1239.47 628.997 1267.5C683.81 1287.28 739.789 1307.09 791.278 1333.5C801.32 1338.69 810.791 1344.75 819.563 1351.6C828.938 1358.8 840.603 1361.98 852.437 1364.33C925.885 1378.93 1006.51 1366.97 1080.39 1359.34C1099.15 1357.41 1117.9 1355.47 1136.7 1354.08C1152.87 1352.89 1172.23 1349.63 1187.9 1354.29C1218.79 1363.46 1191.55 1398.05 1180.03 1412.15C1139.48 1461.78 1087.29 1503.87 1038.89 1546.81C1015.88 1567.26 992.697 1587.66 970.924 1609.26C959.587 1620.48 937.254 1638.76 937.243 1653.35Z" stroke="black" stroke-width="5" style="mix-blend-mode:soft-light"/>
<path fill-rule="evenodd" clip-rule="evenodd" d="M923.352 1656.23C935.592 1673.78 957.17 1686.68 975.073 1698.83C1000.84 1716.33 1027.42 1732.84 1053.6 1749.83C1078.35 1765.9 1103.16 1782.16 1126.06 1800.43C1140.03 1811.58 1157.55 1824.91 1164.1 1841.47C1178.31 1877.37 1100.79 1872.33 1081.64 1873.38C1034.03 1875.97 980.06 1876.8 935.916 1895.98C908.351 1907.97 896.942 1927.64 902.65 1954.85C904.622 1964.26 908.229 1972.28 903.551 1981.68C898.141 1992.56 885.803 1999.39 874.5 2004.23C839.094 2019.38 797.327 2022.79 759.025 2025.64C719.457 2028.59 678.235 2030.75 639.966 2028.96C624.662 2028.25 607.016 2032.86 591.846 2036.41C568.505 2041.87 545.396 2048.16 522.169 2054.01C474.963 2065.91 426.535 2077.4 377.489 2078.94C342.079 2080.06 305.194 2075.26 275.851 2056.11C246.113 2036.68 233.043 2006.39 216.656 1977.62C188.354 1927.87 150.09 1867.4 84.0091 1857.22C73.9889 1855.68 64.345 1856.6 54.3283 1856.26C49.1775 1856.09 43.3165 1855.49 40.7305 1850.83C34.0173 1838.74 52.7313 1816.46 59.0401 1807.13C76.4704 1781.36 96.0419 1756.83 114.298 1731.55C128.798 1711.48 147.158 1689.16 152.858 1665.43C159.776 1636.62 115.78 1616.4 100.382 1596.23C73.6898 1561.26 124.76 1540.97 149.978 1524.09C178.937 1504.71 202.951 1469.5 177.262 1439.9C167.435 1428.58 155.302 1421.87 150.969 1407.05C144.193 1383.88 149.571 1357.32 155.31 1334.35C163.954 1299.81 177.516 1265.61 195.865 1234.34C209.011 1211.95 230.808 1176.83 262.417 1179.28C283.696 1180.92 305.302 1187.2 325.998 1192.74C356.988 1201.04 387.581 1210.52 418.007 1220.38C488.244 1243.07 557.692 1268.13 625.757 1295.74C672.2 1314.59 801.605 1391.94 811.36 1394.68C840.445 1402.81 873.577 1401.17 903.621 1399.72C943.585 1397.79 983.364 1393.15 1023.11 1388.83C1042.03 1386.79 1061.05 1384.31 1080.06 1383.25C1093.59 1382.5 1111.36 1381.82 1123.17 1388.99C1146.22 1402.98 1120.27 1435.41 1109.53 1449.13C1076.64 1491.2 1035.13 1527.7 996.193 1565.01C977.085 1583.32 957.686 1601.61 940.322 1621.37C933.319 1629.35 915.787 1645.4 923.352 1656.23Z" stroke="#489A45" stroke-width="5" style="mix-blend-mode:soft-light"/>
<path fill-rule="evenodd" clip-rule="evenodd" d="M906.226 1665.36C939.727 1700.42 986.096 1726.38 1026.07 1755.6C1046.14 1770.27 1066.33 1785.34 1083.61 1802.84C1092.6 1811.95 1103.82 1823.46 1105.49 1836.21C1109.95 1870.32 1040.07 1866.09 1019.14 1867.5C978.68 1870.24 932.973 1872.39 896.176 1890.01C873.694 1900.79 862.552 1918.32 866.61 1941.27C868.409 1951.46 871.252 1960.1 866.444 1970.13C861.572 1980.3 851.503 1987.51 841.317 1992.93C812.047 2008.51 775.754 2013.64 742.878 2017.49C704.311 2021.99 665.469 2023.87 626.667 2023.13C592.682 2022.5 558.802 2031.91 525.58 2038.17C481.569 2046.47 436.766 2053.74 391.784 2052.93C356.258 2052.28 320.485 2045.84 290.213 2028.37C259.451 2010.59 241.049 1983.81 224.485 1954.9C199.446 1911.19 168.265 1852.6 112.874 1836.26C104.818 1833.87 97.2988 1833.65 88.978 1833.27C84.9363 1833.09 79.7168 1833.06 77.7335 1829.19C72.9633 1819.88 90.9017 1801.68 95.9151 1795.34C111.918 1775.11 129.25 1755.78 145.647 1735.82C160.954 1717.18 177.622 1697.75 187.19 1675.96C202.416 1641.24 154.493 1621.26 156.029 1588.25C156.986 1567.76 178.399 1552.95 195.346 1542.7C216.213 1530.08 246.202 1521.7 256.742 1498.84C264.593 1481.81 252.484 1471.99 243.19 1459.15C227.44 1437.4 226.529 1407.8 228.326 1382.5C230.75 1348.33 239.653 1313.61 254.649 1282.13C261.445 1267.86 269.753 1253 281.924 1241.88C293.326 1231.46 304.077 1228.74 319.223 1230.78C365.588 1237.03 412.336 1254.9 456.741 1270.85C512.532 1290.89 567.541 1313.05 620.887 1338.02C657.263 1355.06 694.457 1373.09 726.336 1396.73C734.644 1402.89 743.15 1409.59 749.204 1417.74C753.782 1423.87 755.71 1428.94 763.465 1432.41C786.448 1442.7 818.516 1439.8 843.212 1438.58C882.701 1436.64 922.016 1431.84 961.276 1427.49C984.185 1424.94 1027.36 1417.07 1045.54 1435.28C1061.23 1451.01 1042.03 1478.07 1032.22 1492.06C1007.41 1527.42 975.584 1558.51 946.034 1590.5C932.491 1605.17 918.42 1619.94 907.212 1636.23C904.348 1640.38 899.767 1645.88 898.957 1650.91C898.048 1656.67 902.113 1661.04 906.226 1665.36Z" stroke="black" stroke-width="5" style="mix-blend-mode:soft-light"/>
<path fill-rule="evenodd" clip-rule="evenodd" d="M903.375 1657.17C934.34 1688.17 971.713 1713.56 1004.98 1742.54C1019.9 1755.53 1034.96 1769.17 1046.29 1785.06C1052.38 1793.6 1058.85 1804.36 1057.09 1815.03C1052.05 1845.66 994.577 1843.21 971.341 1845.13C936.813 1847.95 897.15 1850.82 866.539 1867.49C846.486 1878.41 838.898 1894.41 842.512 1914.98C846.391 1937.03 837.341 1953.11 816.884 1965.54C791.235 1981.11 758.936 1987.58 729.233 1992.21C693.448 1997.77 657.226 2000.34 621.011 1999.9C585.79 1999.47 551.632 2005.09 516.619 2008.81C470.198 2013.75 422.301 2016.32 376.485 2006.98C336.594 1998.85 300.626 1980.65 273.747 1952.34C245.672 1922.8 231.904 1885.46 209.158 1852.73C194.97 1832.32 175.179 1805.32 148.493 1797.5C139.593 1794.89 123.324 1798.57 130.521 1785.46C134.633 1777.96 142.288 1771.36 148.341 1765.22C158.122 1755.29 168.222 1745.63 178.165 1735.84C199.357 1714.96 222.046 1693.64 237.981 1668.97C258.06 1637.91 228.616 1614.25 232.402 1582.85C234.437 1565.95 247.278 1552.4 260.842 1541.74C269.618 1534.83 279.212 1528.84 289.004 1523.24C299.23 1517.4 311.318 1512.92 320.25 1505.39C332.98 1494.66 327.552 1482.09 325.256 1468.33C321.215 1444.15 320.438 1419.57 322.944 1395.15C326.009 1365.22 332.969 1334.42 347.415 1307.15C353.035 1296.54 360.141 1285.28 370.639 1278.12C381.137 1270.97 391.95 1271.4 403.921 1273.47C439.426 1279.59 474.808 1294.09 508.443 1307.83C550.541 1325.03 591.797 1344.28 631.175 1366.23C658.357 1381.38 685.621 1397.76 708.316 1418.38C714.917 1424.38 721.193 1430.81 726.256 1438C729.732 1442.93 731.575 1449.31 736.631 1453C752.453 1464.53 784.372 1460.88 803.01 1460.11C840.206 1458.56 876.845 1451.96 913.995 1450.2C934.27 1449.24 966.028 1446.93 980.823 1462.73C994.736 1477.58 981.921 1501.15 973.472 1515.58C956.865 1543.95 934.629 1569.27 914.677 1595.66C906.475 1606.52 897.489 1617.89 892.144 1630.27C887.394 1641.3 895.44 1649.23 903.375 1657.17Z" stroke="#489A45" stroke-width="5" style="mix-blend-mode:soft-light"/>
<path fill-rule="evenodd" clip-rule="evenodd" d="M895.718 1656.7C920.35 1683.99 950.095 1708.17 974.903 1735.9C989.425 1752.15 1014.44 1779.45 1003 1802.52C990.455 1827.87 947.227 1828.8 922.23 1830.97C892.479 1833.56 857.538 1837.06 831.997 1852.99C823.92 1858.02 817.025 1864.67 814.069 1873.39C810.903 1882.72 814.258 1890.84 814.648 1900.16C815.463 1919.72 802.682 1935.49 785.827 1946.36C762.004 1961.73 732.283 1969.11 704.22 1974.28C672.427 1980.13 640.123 1983.1 607.771 1983.16C576.853 1983.23 546.258 1984.03 515.303 1984.92C474.822 1986.12 433.785 1984.77 394.579 1975.1C355.958 1965.56 320.899 1947.48 293.431 1920.76C266.635 1894.68 248.639 1862.73 232.904 1830.16C223.975 1811.68 208.871 1784.07 187.373 1774.83C177.814 1770.71 168.408 1771.05 178.66 1760.16C191.571 1746.44 208.929 1735.4 223.86 1723.65C245.398 1706.69 267.475 1689.4 285.587 1669.28C297.153 1656.43 302.346 1644 301.651 1627.45C301.111 1614.84 298.409 1602.38 299.885 1589.71C303.342 1559.98 328.898 1539.46 351.498 1520.37C366.036 1508.08 379.302 1498.7 386.849 1481.3C395.776 1460.74 399.602 1438.4 405.611 1417.06C412.212 1393.63 419.821 1369.26 434.054 1348.58C446.723 1330.16 462.051 1321.85 484.892 1326.67C520.519 1334.18 555.569 1352.96 587.135 1370.34C619.265 1388.02 650.827 1407.93 677.395 1432.33C691.739 1445.5 701.492 1461.01 714.216 1475.19C730.221 1492.97 766.701 1486 788.367 1484.37C824.332 1481.66 937.561 1462.24 926.772 1523.19C922.269 1548.63 904.976 1572.18 892.299 1594.68C887.045 1604.01 879.454 1615.22 878.216 1625.9C876.868 1637.52 888.313 1648.49 895.718 1656.7Z" stroke="#F3F3F3" stroke-width="5"/>
<path fill-rule="evenodd" clip-rule="evenodd" d="M882.643 1654.45C901.444 1679.19 923.98 1702.55 940.08 1729.3C950.525 1746.62 960.746 1769.79 947.037 1788.26C931.564 1809.1 897.682 1814.12 872.792 1816.91C847.147 1819.77 816.537 1822.23 795.499 1838.08C788.806 1843.13 783.273 1849.92 782.204 1858.02C781.173 1865.79 783.912 1873.54 782.944 1881.45C780.775 1899.21 768.991 1913.9 753.845 1924.59C709.044 1956.22 642.592 1963.56 588.75 1964.68C561.801 1965.23 534.08 1963.25 506.967 1961.86C471.785 1960.07 436.564 1955.99 403.059 1945.88C331.822 1924.39 284.27 1876.14 251.212 1815.95C240.808 1797 232.881 1776.48 216.492 1761.3C208.044 1753.46 209.932 1747.79 218.657 1740.55C232.299 1729.24 248.909 1720.56 264.032 1711.09C285.541 1697.64 307.51 1683.98 326.557 1667.89C339.685 1656.81 349.021 1646.14 351.931 1629.61C354.008 1617.82 353.608 1605.82 354.883 1593.96C357.312 1571.44 365.312 1549.05 379.355 1530.3C390.512 1515.44 403.771 1501.92 417.469 1489.02C435.275 1472.22 450.352 1455.17 463.916 1435.28C481.899 1408.95 507.232 1360.42 549.159 1372.99C595.401 1386.87 638.613 1422.54 668.133 1457.17C678.046 1468.79 686.157 1483.07 699.568 1491.61C719.645 1504.38 740.094 1503.81 764.063 1503.63C799.948 1503.36 878.074 1495.76 878.633 1545.22C878.852 1564.81 869.529 1583.39 865.007 1602.26C859.909 1623.4 869.802 1637.58 882.643 1654.45Z" stroke="black" stroke-width="5" style="mix-blend-mode:soft-light"/>
<path fill-rule="evenodd" clip-rule="evenodd" d="M868.546 1652.31C887.097 1684.6 928.809 1737.59 896.643 1773.78C879.653 1792.91 849.753 1800.22 824.681 1804.62C804.504 1808.18 780.188 1809.61 764.873 1824.31C753.617 1835.12 758.496 1850.73 754.13 1864.2C748.711 1880.91 736.415 1894.62 721.342 1904.96C679.222 1933.86 620.837 1942.97 570.356 1945.12C517.929 1947.35 460.227 1938.59 411.003 1921.41C349.628 1899.98 303.791 1859.01 271.87 1806.99C265.98 1797.39 260.635 1787.53 254.983 1777.81C251.186 1771.29 245.535 1764.99 242.552 1758.13C237.586 1746.68 243.569 1737.27 253.118 1729.74C266.854 1718.9 283.695 1711.14 299.33 1702.98C320.712 1691.81 342.567 1680.83 362.471 1667.75C375.847 1658.94 389.85 1649.47 394.706 1634.29C398.02 1623.95 398.758 1613 398.704 1602.31C398.583 1579.37 399.998 1560.81 411.757 1539.74C431.105 1505.15 460.73 1473.97 491.988 1448C516.519 1427.62 555.332 1395.95 590.825 1409.29C622.671 1421.24 641.174 1450.15 662.066 1473.5C672.224 1484.85 683.648 1495.2 697.096 1503.24C714.05 1513.38 730.041 1517.58 750.189 1519.14C784.098 1521.77 835.249 1522.23 845.521 1559.61C849.314 1573.4 847.021 1587.72 848.971 1601.71C851.518 1620.2 859.187 1636.02 868.546 1652.31Z" stroke="black" stroke-width="5" style="mix-blend-mode:soft-light"/>
<path fill-rule="evenodd" clip-rule="evenodd" d="M849.068 1651.22C862.208 1686.58 879.479 1731.15 847.071 1762.83C831.373 1778.17 809.366 1786.82 788.078 1793.31C772.832 1797.96 748.657 1799.44 739.245 1813.54C732.332 1823.91 731.301 1838.17 725.038 1849.28C716.43 1864.55 703.453 1877.16 688.255 1887.06C648.663 1912.86 597.231 1923.03 550.364 1926.11C448.527 1932.81 345.227 1884.47 291.216 1804.3C275.111 1780.4 254.292 1754.98 280.682 1730.33C309.494 1703.44 352.738 1690.67 387.051 1671.49C400.162 1664.17 416.866 1655.35 424.233 1642.18C428.665 1634.26 429.022 1624.36 429.273 1615.67C429.928 1593.53 432.04 1573.62 441.833 1552.91C456.958 1520.91 480.951 1491.34 508.088 1467.07C531.753 1445.91 565.472 1421.01 599.579 1435.99C625.729 1447.49 642.214 1472.13 662.48 1490.25C685.032 1510.43 712.989 1523.96 743.739 1530.47C773.651 1536.79 806.475 1540.99 822.101 1568.46C827.46 1577.88 833.047 1590.09 835.016 1600.54C838.193 1617.77 842.893 1634.72 849.068 1651.22V1651.22Z" stroke="#F3F3F3" stroke-width="5"/>
<path fill-rule="evenodd" clip-rule="evenodd" d="M827.345 1651.09C833.311 1686.84 833.782 1724.15 804.939 1752.51C791.478 1765.75 774.504 1775.19 757.345 1783.75C744.721 1790.05 731.69 1795.38 722.229 1805.65C713.464 1815.16 706.78 1826.18 698.314 1835.93C687.146 1848.86 673.808 1860.07 658.812 1869.13C621.223 1891.8 575.593 1902.56 531.976 1906.44C510.862 1908.33 487.964 1909.38 467.03 1904.67C446.813 1900.12 426.838 1892.86 408.274 1884.37C368.809 1866.34 334.669 1839.81 310.003 1806.16C293.089 1783.08 284.002 1760.6 306.212 1736.98C331.252 1710.34 370.358 1695.51 402.619 1678.14C424.746 1666.22 449.536 1654.52 453.801 1629.44C457.198 1609.47 459.971 1590.53 468.569 1571.63C481.364 1543.75 500.085 1518.46 523.624 1497.26C545.15 1477.94 572.336 1461.49 602.91 1471.58C627.132 1479.59 645.858 1497.72 666.987 1510.64C690.534 1525.07 716.451 1532.96 743.754 1539.27C768.291 1544.96 791.375 1553.78 807.147 1572.69C810.374 1576.56 813.763 1580.77 816.244 1585.1C819.41 1590.62 819.13 1596.12 819.722 1602.33C821.263 1618.72 824.647 1634.9 827.345 1651.09Z" stroke="black" stroke-width="5" style="mix-blend-mode:soft-light"/>
<path fill-rule="evenodd" clip-rule="evenodd" d="M803.373 1654.14C802.65 1688.14 793.579 1720.31 769.089 1746.94C758.619 1758.33 746.141 1767.73 734.632 1778.18C725.365 1786.6 716.609 1794.42 705.969 1801.38C680.731 1817.85 660.174 1839.1 633.369 1853.8C597.586 1873.44 556.665 1884.41 516.097 1888.93C496.288 1891.14 475.833 1891.99 455.817 1889.72C438.627 1887.78 422.193 1880.72 406.953 1873.49C377.081 1859.32 348.115 1839.11 328.814 1813.44C286.262 1756.86 371.041 1715.09 414.571 1690.66C434.591 1679.42 465.157 1666.37 473.458 1644.28C479.391 1628.5 483.043 1612.47 490.657 1597.17C511.106 1556.07 552.418 1507.64 607.062 1513.76C630.445 1516.37 651.708 1527.4 673.508 1534.75C695.955 1542.33 719.144 1546.5 742.495 1551.08C764.318 1555.36 781.695 1561.52 795.711 1578.23C802.409 1586.21 801.758 1595.81 802.303 1605.65C803.191 1621.8 803.703 1638.04 803.373 1654.14Z" stroke="black" stroke-width="5" style="mix-blend-mode:soft-light"/>
<path fill-rule="evenodd" clip-rule="evenodd" d="M781.536 1658.62C772.455 1709.97 739.506 1766.17 691.36 1796.23C634.726 1831.59 573.42 1861.44 505.948 1870.29C474.666 1874.4 440.412 1876.52 410.99 1863.82C388.598 1854.16 362.608 1839.67 350.372 1819.17C320.437 1769.02 387.896 1728.6 426.333 1705.11C447.026 1692.47 473.346 1680.11 488.994 1661.73C498.072 1651.07 502.757 1637.01 510.104 1625.32C532.371 1589.88 568.852 1561.2 614.121 1555.86C635.051 1553.39 656.105 1556.19 676.85 1558.39C698.086 1560.64 719.592 1561.81 740.691 1564.99C757.533 1567.54 777.374 1571.9 783.487 1588.46C791.196 1609.33 785.241 1637.64 781.536 1658.62Z" stroke="#489A45" stroke-width="5" style="mix-blend-mode:soft-light"/>
<path fill-rule="evenodd" clip-rule="evenodd" d="M760.099 1666.98C747.009 1715.28 719.607 1762.49 673.832 1791.53C649.557 1806.94 621.419 1817.63 594.403 1828.2C563.779 1840.17 531.801 1849.5 499.169 1854.23C458.537 1860.11 392.756 1865.58 371.79 1823.13C350.981 1781.01 404.395 1743.33 435.978 1721.85C456.226 1708.09 477.885 1695.45 497.242 1680.42C507.738 1672.27 515.842 1662.88 524.739 1653.35C549.331 1626.93 584.293 1605.92 619.871 1594.62C654.353 1583.66 696.961 1578.66 733.273 1582.02C748.941 1583.46 760.117 1588.56 764.774 1603.21C771.226 1623.57 765.51 1647.02 760.099 1666.98Z" stroke="black" stroke-width="5" style="mix-blend-mode:soft-light"/>
<path fill-rule="evenodd" clip-rule="evenodd" d="M738.77 1680.08C725.797 1722.63 698.121 1761.57 657.93 1787.28C612.877 1816.1 554.986 1832.3 501.814 1840.66C473.551 1845.11 412.29 1857.07 398.088 1823.87C383.887 1790.67 425.685 1757.64 449.738 1739.46C478.93 1717.42 510.389 1696.12 541.803 1676.32C569.096 1659.1 598.215 1641.49 627.747 1628.15C644.403 1620.58 661.744 1614.38 679.565 1609.62C692.76 1606.13 709.544 1600.93 723.343 1603.4C758.148 1609.65 744.974 1659.74 738.77 1680.08Z" stroke="#F3F3F3" stroke-width="5"/>
<path fill-rule="evenodd" clip-rule="evenodd" d="M712.461 1692.95C684.072 1773.42 595.365 1813.41 510.094 1827.64C490.279 1830.95 434.718 1842.78 423.794 1818.3C413.209 1794.57 447.473 1766.17 463.516 1752.72C513.226 1711.03 574.525 1679.98 632.619 1649.24C650.752 1639.65 683.477 1618.86 705.847 1628.24C730.136 1638.45 718.343 1676.26 712.461 1692.95Z" stroke="#489A45" stroke-width="5" style="mix-blend-mode:soft-light"/>
<path fill-rule="evenodd" clip-rule="evenodd" d="M683.762 1708.56C659.135 1767.84 588.301 1802.15 523.291 1813.69C507.368 1816.52 466.919 1825.26 454.966 1808.82C443.905 1793.61 470.64 1771.34 480.645 1762.49C502.919 1742.79 529.275 1726.52 555.311 1710.88C579.384 1696.4 603.718 1681.57 629.031 1669.3C642.363 1662.84 667.378 1649.08 682.43 1658.86C698.636 1669.38 689.23 1695.39 683.762 1708.56Z" stroke="#489A45" stroke-width="5" style="mix-blend-mode:soft-light"/>
<path fill-rule="evenodd" clip-rule="evenodd" d="M652.14 1726.01C633.407 1764.74 583.686 1790.1 539.906 1798.67C528.125 1800.97 502.658 1806.92 492.791 1796.66C483.707 1787.21 498.516 1773.2 505.09 1766.73C534.226 1738.06 576.799 1712.36 615.761 1696.51C625.557 1692.52 643.171 1684.71 653.179 1692.59C663.445 1700.68 656.443 1717.12 652.14 1726.01Z" stroke="black" stroke-width="5" style="mix-blend-mode:soft-light"/>
<path fill-rule="evenodd" clip-rule="evenodd" d="M618.606 1742.42C608.065 1761.66 580.72 1776.28 558.112 1781.01C542.2 1784.33 523.113 1781.64 537.06 1764.87C550.915 1748.22 576.532 1732.95 598.209 1726.12C614.748 1720.92 627.658 1725.89 618.606 1742.42Z" stroke="black" stroke-width="5" style="mix-blend-mode:soft-light"/>
<path fill-rule="evenodd" clip-rule="evenodd" d="M1465.22 1604.94C1465.67 1642.83 1487.33 1682.09 1476.3 1720.76C1467.24 1752.52 1422.54 1755.42 1395.65 1769.93C1374.28 1781.46 1362.08 1801.75 1350.44 1821.21C1339.99 1838.69 1330.59 1856.68 1319.59 1873.87C1312.47 1884.98 1300.22 1906.8 1284.91 1907.27C1270.25 1907.73 1256.91 1890.86 1248.46 1880.89C1237.44 1867.89 1227.68 1854.02 1216.98 1840.82C1198.94 1818.54 1177.25 1802.09 1152.38 1786.55C1124.09 1768.87 1095.33 1751.8 1066.09 1735.34C1044.56 1723.19 1022.89 1711.13 1002.21 1697.76C989.233 1689.37 960.584 1673.65 960.543 1658.05C960.522 1650.61 968.234 1642.32 973.436 1636.35C982.238 1626.23 992.257 1616.96 1002.31 1607.9C1021.02 1591.02 1040.53 1574.89 1059.82 1558.57C1084.86 1537.39 1108.79 1516.56 1130.83 1492.55C1153.63 1467.69 1175.41 1442.03 1197.64 1416.71C1212.69 1399.56 1227.74 1380.31 1249.37 1369.72C1276.46 1356.48 1298.56 1370.17 1325.88 1370.18C1349.39 1370.19 1347.36 1420.31 1350.27 1434.23C1353.19 1448.32 1359.72 1461.42 1362.2 1475.54C1365.29 1493.18 1365.22 1511.23 1365.91 1529.07C1366.73 1550.88 1366.99 1571.65 1392.29 1579.83C1406.68 1584.48 1422.28 1585.39 1437.19 1588.14C1446.85 1589.93 1465.08 1592.97 1465.22 1604.94Z" stroke="#F3F3F3" stroke-width="5"/>
<path fill-rule="evenodd" clip-rule="evenodd" d="M1453.62 1611.74C1455.9 1643.49 1470.23 1684.07 1456.27 1716.94C1444.35 1745.02 1407.56 1748.85 1382.71 1763.71C1362.19 1775.96 1352.98 1795.88 1342.65 1815.45C1334.36 1831.15 1326.32 1847 1316.93 1862.21C1310 1873.42 1299.42 1892.33 1285.15 1894.72C1272.32 1896.87 1258.67 1880.3 1251.52 1871.87C1241.09 1859.56 1232.19 1846.19 1222.99 1833.09C1206.83 1810.09 1190.26 1789.42 1166.51 1772.58C1142.65 1755.68 1116.51 1743.08 1090.1 1729.97C1069.44 1719.71 1048.88 1709.15 1029.26 1697.28C1014.65 1688.45 993.63 1677.15 987.011 1661.29C981.771 1648.74 1008.83 1627.72 1016.82 1620.31C1033.26 1605.08 1050.67 1590.76 1068.12 1576.53C1089.38 1559.2 1111.31 1544.02 1130.11 1524.27C1163.75 1488.97 1191.94 1445.08 1235.11 1418.74C1261.15 1402.86 1290.04 1398.67 1318.89 1400.87C1330.31 1401.74 1332.97 1416.57 1334.36 1425.22C1336.67 1439.59 1336.89 1454.22 1338.64 1468.65C1340.29 1482.16 1344.05 1494.99 1347.06 1508.23C1350.1 1521.64 1350.9 1535.4 1353.12 1548.91C1354.5 1557.3 1355.85 1567.06 1362.04 1573.78C1368.45 1580.73 1379.07 1583.6 1388.35 1585.78C1405.78 1589.82 1452.01 1589.34 1453.62 1611.74Z" stroke="black" stroke-width="5" style="mix-blend-mode:soft-light"/>
<path fill-rule="evenodd" clip-rule="evenodd" d="M1438.68 1625.12C1442.65 1654.26 1448.24 1690.54 1431.21 1717.5C1417.28 1739.54 1387.83 1744.44 1366.73 1758.87C1349.18 1770.86 1342.47 1789.83 1333.69 1807.47C1326.49 1821.93 1319.25 1836.46 1310.54 1850.24C1303.93 1860.69 1295.42 1874.85 1282.4 1878.56C1271.27 1881.72 1258.8 1867.89 1252.68 1861C1242.26 1849.26 1233.79 1836.09 1225.37 1823.1C1211.6 1801.84 1198.95 1779.11 1179.28 1761.86C1160.16 1745.12 1137.39 1735.31 1114.21 1724.26C1096.45 1715.79 1078.8 1706.99 1062.08 1696.87C1049.24 1689.1 1033.33 1679.9 1026.69 1666.9C1020.95 1655.68 1035.93 1642.29 1043.43 1634.31C1055.8 1621.15 1069.52 1609.06 1083.05 1596.93C1097.65 1583.84 1113.8 1571.74 1127.94 1558.33C1157.66 1530.12 1181.45 1498.92 1218 1477.23C1241.68 1463.17 1273.5 1450.35 1301.38 1452.47C1321.42 1454 1319.87 1494.86 1321.72 1507.9C1324.76 1529.22 1330.75 1551.61 1340.36 1571.21C1348.6 1588.01 1368.4 1593.09 1386.62 1596.77C1398.04 1599.08 1410.01 1600.29 1421.04 1603.9C1433.81 1608.08 1437.01 1612.91 1438.68 1625.12Z" stroke="#489A45" stroke-width="5" style="mix-blend-mode:soft-light"/>
<path fill-rule="evenodd" clip-rule="evenodd" d="M1424.72 1638.87C1427.05 1663.5 1426.33 1692.66 1410.22 1714.07C1396.11 1732.82 1371.15 1737.88 1353.33 1752.69C1339.42 1764.24 1333.88 1782.99 1326.35 1798.21C1317.15 1816.82 1304.2 1851.18 1281.21 1858.29C1259.83 1864.9 1237.74 1823.54 1230.09 1811.21C1217.96 1791.7 1207.86 1770.29 1193.12 1752.29C1180.43 1736.79 1163.36 1728.28 1145.24 1719.14C1122.14 1707.45 1087.04 1693.64 1074.79 1670.69C1065.65 1653.59 1095.83 1627.93 1106.15 1615.99C1116.94 1603.52 1125.11 1588.76 1136.24 1576.73C1153.81 1557.73 1182.2 1542.36 1205.63 1530.62C1228.41 1519.2 1257.98 1506.54 1283.75 1507.14C1300.68 1507.54 1303.77 1531.59 1307.31 1543.32C1312.39 1560.01 1319.19 1574.95 1333.91 1586.23C1348.89 1597.72 1366.6 1603.08 1385.22 1607.75C1394.78 1610.13 1405.69 1611.97 1414.22 1616.83C1423.65 1622.12 1423.83 1629.4 1424.72 1638.87Z" stroke="black" stroke-width="5" style="mix-blend-mode:soft-light"/>
<path fill-rule="evenodd" clip-rule="evenodd" d="M1407.74 1653.16C1407.48 1674.46 1402.05 1697.2 1386.27 1713.71C1373.12 1727.47 1352.64 1732.15 1340.05 1746.21C1330.07 1757.34 1324.94 1772.91 1318.23 1785.81C1310.02 1801.61 1298.39 1829.21 1278.18 1834.79C1258.46 1840.22 1241.22 1809.99 1233.73 1798.03C1222.78 1780.5 1213.93 1761.9 1202.88 1744.42C1194.22 1730.7 1183.58 1721.89 1169.4 1713.09C1152.75 1702.76 1129.5 1691.35 1120.68 1674.15C1114.32 1661.71 1130.01 1641.67 1135.73 1630.65C1139.56 1623.24 1143.07 1615.72 1145.02 1607.7C1146.55 1601.46 1146.73 1595.69 1151.06 1590.31C1161.97 1576.79 1185.73 1574.9 1201.86 1570.37C1223.3 1564.37 1246.04 1557.55 1268.44 1556.15C1282.21 1555.27 1289.17 1566.9 1296.98 1575.07C1306.2 1584.72 1319.31 1591.63 1330.74 1598.89C1345.84 1608.49 1362.29 1614.42 1379.31 1620.49C1386.98 1623.23 1396 1625.91 1401.93 1631.41C1408.12 1637.11 1407.83 1645.47 1407.74 1653.16Z" stroke="#F3F3F3" stroke-width="5"/>
<path fill-rule="evenodd" clip-rule="evenodd" d="M1389.91 1665.9C1387.09 1683.8 1378.51 1700.94 1364.13 1713.67C1353.1 1723.44 1338.49 1728.98 1329.62 1740.69C1321.35 1751.61 1315.56 1764 1308.71 1775.67C1301.47 1788 1290.69 1808.6 1274.12 1812.03C1256.27 1815.73 1242.66 1795.08 1235.12 1783.64C1225.59 1769.18 1218.38 1753.61 1209.88 1738.64C1203.47 1727.49 1195.27 1717.3 1185.56 1708.41C1175.37 1699.05 1161.53 1690.1 1156.43 1677.18C1151.91 1665.73 1160.56 1651.8 1162.14 1640.15C1163.83 1627.71 1161.07 1614.67 1170.1 1603.95C1188.73 1581.84 1235.14 1585.66 1261.69 1585.05C1287.88 1584.42 1308.86 1597.77 1329.98 1610.47C1343.93 1618.85 1358.47 1625.94 1372.78 1633.74C1387.36 1641.7 1392.39 1650.15 1389.91 1665.9Z" stroke="#489A45" stroke-width="5" style="mix-blend-mode:soft-light"/>
<path fill-rule="evenodd" clip-rule="evenodd" d="M1373.36 1676.23C1365.17 1702.19 1339.97 1716.1 1321.9 1735.78C1307.11 1751.89 1295.9 1785.15 1271.13 1789.68C1243.01 1794.81 1226.44 1750.92 1216.77 1734C1206.04 1715.23 1186.82 1700.03 1178.91 1680.14C1174.75 1669.71 1178.43 1659.93 1180.74 1649.46C1183.27 1637.97 1185.19 1626.22 1193.74 1616.93C1210.58 1598.66 1243.27 1598.61 1266.81 1597.98C1291.18 1597.32 1312.66 1609.67 1332 1622C1352.52 1635.05 1381.75 1649.61 1373.36 1676.23Z" stroke="#489A45" stroke-width="5" style="mix-blend-mode:soft-light"/>
<path fill-rule="evenodd" clip-rule="evenodd" d="M1359.85 1683.33C1350.68 1701.84 1331.55 1716.95 1316.01 1731.21C1303.04 1743.09 1289.03 1766.95 1269.35 1768.75C1246.23 1770.87 1232.37 1745.56 1223.36 1730.04C1214.5 1714.79 1201.69 1698.71 1196.83 1681.94C1191.76 1664.48 1205.66 1640.85 1218.86 1628.4C1233.58 1614.52 1257.57 1609.29 1278.12 1609.73C1299.63 1610.17 1319.31 1621.47 1335.55 1633.21C1352.9 1645.76 1370.51 1661.84 1359.85 1683.33Z" stroke="#F3F3F3" stroke-width="5"/>
<path fill-rule="evenodd" clip-rule="evenodd" d="M1347.33 1686.87C1338.58 1702.28 1323.5 1715.35 1309.6 1727.01C1298.87 1736.01 1283.02 1751.31 1267.62 1751.77C1250.67 1752.27 1236.38 1739.58 1229.72 1726.54C1223.15 1713.66 1216.24 1697.52 1215.33 1683.37C1213.35 1652.54 1257.5 1617.76 1290.49 1620.39C1321.77 1622.88 1364.76 1656.18 1347.33 1686.87Z" stroke="#489A45" stroke-width="5" style="mix-blend-mode:soft-light"/>
<path fill-rule="evenodd" clip-rule="evenodd" d="M1335.76 1688.63C1323.7 1708.7 1294.53 1737.38 1267.66 1738.21C1236.83 1739.15 1229.28 1707.45 1233.43 1684.43C1237.65 1660.93 1273.38 1626.76 1301.7 1631.19C1329.33 1635.52 1350.05 1664.83 1335.76 1688.63Z" stroke="black" stroke-width="5" style="mix-blend-mode:soft-light"/>
<path fill-rule="evenodd" clip-rule="evenodd" d="M1323.53 1691.93C1313.32 1708.74 1291.63 1729.78 1269.12 1730.54C1242.3 1731.43 1242.96 1704.63 1249.14 1687.92C1255.56 1670.57 1283.58 1640.84 1307.03 1645.38C1329.83 1649.82 1333.32 1675.82 1323.53 1691.93Z" stroke="#F3F3F3" stroke-width="5"/>
<path fill-rule="evenodd" clip-rule="evenodd" d="M1312.89 1693.92C1306.15 1705.91 1289.36 1721.11 1273.47 1721.68C1254.06 1722.36 1257.96 1701.09 1263.03 1690.8C1269.06 1678.56 1289.16 1657.24 1305.91 1660.59C1322.4 1663.88 1318.45 1684.04 1312.89 1693.92Z" stroke="#489A45" stroke-width="5" style="mix-blend-mode:soft-light"/>
<path fill-rule="evenodd" clip-rule="evenodd" d="M403.751 1015.99C446.851 991.777 495.533 971.715 541.448 951.344C608.547 921.577 676.628 892.596 747.08 870.31C784.852 858.364 833.807 841.173 874.211 850.147C888.984 853.428 902.415 863.521 915.639 870.054C933.875 879.063 952.382 887.62 970.857 896.196C1007.92 913.386 1045.1 930.401 1081.51 948.711C1099.05 957.53 1116.05 968.665 1134.31 976.17C1144.99 980.56 1157.8 978.409 1169.24 978.065C1195.72 977.264 1222.2 975.878 1248.67 974.675C1281.05 973.207 1313.51 971.656 1345.91 971.988C1360.53 972.14 1396.35 969.558 1404.33 981.097C1408.62 987.311 1398.35 998.615 1393.59 1003.85C1384.85 1013.46 1374.82 1022.13 1364.92 1030.72C1342.02 1050.58 1317.72 1069.5 1297.34 1091.65C1286.88 1103.04 1273.16 1116.96 1279.87 1132.39C1286.63 1147.98 1298.43 1161.44 1305.59 1176.97C1313.82 1194.84 1317.18 1213.47 1321.01 1232.45C1323.84 1246.47 1330.56 1258.88 1336.87 1271.79C1343.85 1286.06 1351.07 1300.45 1355.88 1315.51C1359.07 1325.46 1364.19 1343.37 1352.82 1349.74C1336.68 1358.8 1306.54 1351.7 1288.21 1349.16C1262.88 1345.65 1237.73 1341.14 1212.47 1337.28C1194.13 1334.47 1175.73 1331.38 1157.07 1331.14C1126.99 1330.76 1096.79 1332.82 1066.78 1334.75C1011.2 1338.32 956.009 1343.06 900.262 1343.37C851.421 1343.63 738.853 1292.27 712.486 1283.26C659.858 1265.28 605.821 1248.25 556.059 1224.22C542.598 1217.71 521.871 1209.05 514.846 1195.54C510.512 1187.22 512.554 1182.38 502.249 1177.06C488.19 1169.8 470.14 1167.02 454.55 1163.82C429.443 1158.67 404.135 1154.33 378.908 1149.68C327.886 1140.3 277.219 1129.66 226.413 1119.43C211.054 1116.33 192.454 1115.73 177.826 1110.22C168.397 1106.67 169.404 1102.14 176.749 1096.64C189.635 1086.99 207.648 1081.57 222.835 1076.02C245.087 1067.89 267.698 1060.62 290.319 1053.45C312.94 1046.28 335.676 1039.33 358.308 1032.15C373.259 1027.42 390.298 1023.55 403.751 1015.99Z" stroke="#F3F3F3" stroke-width="5"/>
<path fill-rule="evenodd" clip-rule="evenodd" d="M439.074 1021.08C484.658 996.796 535.214 977.375 583.952 958.431C646.329 934.172 710.106 911.405 775.77 896.094C814.324 887.11 859.809 877.175 899.094 887.019C913.109 890.531 923.548 898.542 935.538 905.597C949.205 913.649 963.403 921.017 977.602 928.269C1006.83 943.196 1036.37 957.606 1066.23 971.499C1082.04 978.888 1099.43 988.804 1117.33 991.299C1131.56 993.285 1147.75 990.209 1162.06 989.261C1187.83 987.556 1213.6 985.802 1239.38 984.291C1269.12 982.549 1298.95 980.928 1328.75 981.017C1345.36 981.067 1373.89 978.584 1385.58 988.395C1395.78 996.956 1358.29 1028.33 1351.69 1034.28C1331.09 1052.88 1309.44 1070.61 1290.25 1090.48C1278.91 1102.2 1265.11 1116.45 1260.27 1131.93C1256.15 1145.12 1263.87 1160.09 1268.41 1172.23C1274.08 1187.45 1278.64 1203.23 1285.26 1218.12C1291.15 1231.39 1300.57 1243.18 1308.84 1255.23C1317.94 1268.48 1327.15 1281.94 1333.87 1296.42C1337.99 1305.32 1344.81 1320.24 1336.47 1328.79C1326.84 1338.66 1297.35 1332.41 1285.22 1331.07C1260.61 1328.33 1236.21 1324.19 1211.78 1320.5C1171.2 1314.37 1132.51 1309.02 1091.15 1310.58C1037.28 1312.62 983.448 1317 929.588 1319.56C909.698 1320.51 889.487 1322.33 869.591 1321.52C858.186 1321.05 849.517 1317.89 842.923 1310.69C833.919 1300.87 813.079 1295.52 798.596 1289.94C776.014 1281.24 753.144 1273.15 730.337 1264.96C680.271 1246.97 629.236 1229.65 581.791 1206.29C566.781 1198.9 549.592 1190.67 538.528 1178.38C532.355 1171.54 533.959 1164.9 530.209 1157.6C525.243 1148.01 508.759 1143.75 498.909 1140.66C479.897 1134.68 460.094 1130.72 440.442 1127.01C395.975 1118.61 351.385 1113.18 306.17 1109.25C295.574 1108.33 253.846 1105.2 275.865 1088.85C300.194 1070.79 335.225 1061.81 363.803 1051.55C389.547 1042.33 415.309 1033.73 439.074 1021.08Z" stroke="#F3F3F3" stroke-width="5"/>
<path fill-rule="evenodd" clip-rule="evenodd" d="M501.853 1025.17C544.692 1003.8 592.104 987.768 638.197 972.428C694.13 953.813 751.45 937.179 810.055 927.716C846.87 921.776 887.447 917.145 923.926 926.48C948.837 932.852 968.035 950.341 989.878 962.326C1011.72 974.311 1034.46 985.55 1057.88 994.893C1072.42 1000.69 1088.06 1006.53 1104.28 1005.66C1143.72 1003.56 1183.13 998.861 1222.61 996.467C1248.73 994.869 1274.9 993.528 1301.09 993.743C1316.88 993.87 1338.58 992.878 1352.52 1000.44C1367.92 1008.81 1285.22 1081.44 1277.39 1089.61C1257.77 1110.08 1234.01 1137.25 1237.61 1166.19C1241.06 1193.87 1256.57 1214.46 1274.12 1236.06C1284.08 1248.35 1316.06 1281.14 1304.05 1297.26C1297.18 1306.48 1274.75 1303.42 1264.09 1302.86C1243.07 1301.74 1222.18 1299.21 1201.29 1297.02C1170.82 1293.86 1139.52 1288.88 1108.91 1287.54C1087.6 1286.61 1066.14 1288.13 1044.78 1288.28C1014.16 1288.48 983.532 1288.44 952.908 1288.35C927.195 1288.28 901.263 1288.64 875.651 1286.51C859.729 1285.2 847.656 1282.13 836.28 1273.32C826.382 1265.67 811.407 1261.24 798.763 1256.4C777.879 1248.42 756.717 1241.04 735.624 1233.53C691.463 1217.8 646.793 1202.42 604.55 1182.7C585.267 1173.7 552.83 1161.13 548.422 1139.09C546.831 1131.14 545.647 1127.71 537.224 1123.23C525.27 1116.87 510.925 1114.05 497.485 1111.61C466.155 1105.91 433.877 1106.97 402.599 1101.34C389.861 1099.02 373.243 1093.95 387.868 1082.06C404.934 1068.15 429.705 1060.42 450.104 1051.77C460.287 1047.45 470.776 1043.41 480.453 1038.16C487.884 1034.11 494.255 1028.94 501.853 1025.17Z" stroke="#489A45" stroke-width="5" style="mix-blend-mode:soft-light"/>
<path fill-rule="evenodd" clip-rule="evenodd" d="M582.722 1031.33C622.286 1013.94 665.218 1001.22 707.373 989.739C754.196 976.998 802.134 966.395 850.671 961.729C884.186 958.498 919.881 957.402 952.339 966.553C972.865 972.342 986.732 984.677 1004.36 994.989C1030.98 1010.57 1059.79 1022.88 1091.89 1019.67C1127.87 1016.08 1163.97 1013.34 1200.18 1011.44C1222.02 1010.29 1243.95 1009.41 1265.81 1010C1279.63 1010.37 1297.43 1011.03 1309.42 1016.72C1325.47 1024.35 1264.69 1083.39 1257.11 1091.99C1238.3 1113.31 1224.48 1135.65 1216.33 1161.98C1209.68 1183.47 1222.91 1200.26 1236.57 1216.24C1245.07 1226.16 1272.55 1251.07 1263.83 1264.06C1259.04 1271.22 1243.41 1270.94 1235.01 1271.35C1219 1272.13 1202.93 1271.5 1186.92 1271.27C1163.29 1270.91 1138.12 1274.39 1114.7 1271.83C1062.8 1266.16 1011.03 1261.29 958.797 1257.5C930.005 1255.41 901.037 1253.53 872.515 1249.36C862.275 1247.86 851.699 1246.27 842.009 1242.8C835.774 1240.57 832.391 1236.74 827.137 1233.61C802.088 1218.71 769.321 1211.15 741.066 1201.66C703.504 1189.06 665.741 1176.65 629.194 1161.71C609.972 1153.85 583.111 1144.85 569.946 1128.67C565.968 1123.78 567.699 1119.85 565.206 1115.14C562.338 1109.71 553.538 1108.13 547.858 1106.65C534.968 1103.27 480.956 1098.36 505.977 1078C517.915 1068.31 533.091 1062.04 546.531 1054.4C551.396 1051.63 556.141 1048.85 560.206 1045.13C567.005 1038.89 573.689 1035.31 582.722 1031.33Z" stroke="black" stroke-width="5" style="mix-blend-mode:soft-light"/>
<path fill-rule="evenodd" clip-rule="evenodd" d="M668.885 1038.29C746.954 1010.08 838.369 990.657 923.288 993.858C951.528 994.927 981.896 998.845 1006.3 1012.69C1020.69 1020.87 1032.17 1030.12 1049.5 1033.01C1062.01 1035.09 1075.5 1032.57 1088.1 1031.62C1106.35 1030.24 1124.61 1028.99 1142.88 1027.97C1165.54 1026.71 1188.26 1025.71 1210.95 1026.05C1227.16 1026.3 1249.55 1025.8 1263.59 1033.73C1280.35 1043.2 1237.29 1088.27 1231.22 1096.29C1216.51 1115.74 1206.17 1134.55 1202.34 1157.91C1201.21 1164.71 1197.5 1171.7 1197.94 1178.55C1198.4 1185.55 1203.05 1191.76 1207.34 1197.23C1212.96 1204.42 1232.49 1221.41 1226.82 1230.24C1223.68 1235.11 1212.02 1235.79 1205.97 1236.85C1194.62 1238.86 1183.12 1239.96 1171.7 1241.57C1152.34 1244.31 1133.08 1252.99 1113.66 1252.85C1061.44 1252.5 1008.55 1237.89 957.426 1229.98C927.032 1225.27 896.428 1221.01 866.413 1214.56C856.916 1212.52 847.134 1210.41 838.116 1206.91C831.823 1204.47 827.797 1200.07 821.97 1197.33C799.627 1186.81 773.901 1180.48 749.885 1173.45C718.707 1164.29 687.422 1155.42 656.465 1145.66C637.06 1139.55 612.094 1134.21 595.409 1122.77C583.223 1114.41 591.6 1111.84 598.101 1103.96C601.42 1099.94 600.682 1096 602.14 1091.46C604.222 1084.98 610.028 1080.29 615.472 1076.07C622.98 1070.25 632.966 1065.43 639.119 1058.3C641.288 1055.8 641.206 1052.7 642.962 1050.51C648.07 1044.15 661.543 1040.95 668.885 1038.29Z" stroke="#F3F3F3" stroke-width="5"/>
<path fill-rule="evenodd" clip-rule="evenodd" d="M751.661 1047.74C814.994 1029.92 885.407 1019.59 952.22 1023.84C975.466 1025.32 998.842 1028.93 1020.46 1037.02C1030.29 1040.68 1037.67 1044.79 1048.46 1044.96C1073.52 1045.33 1098.67 1043.39 1123.72 1042.82C1141.65 1042.41 1159.67 1042.2 1177.55 1043.43C1189.51 1044.25 1205.68 1045.22 1215.43 1051.91C1229.62 1061.66 1203.72 1095.22 1198.44 1104.48C1189.68 1119.83 1180.98 1136.9 1184.32 1154.59C1185.34 1160 1187.18 1164.78 1187.39 1170.3C1187.59 1175.05 1186.92 1179.43 1188.72 1183.96C1190.95 1189.57 1200.97 1198.25 1197.48 1203.45C1195.1 1207 1188.11 1207.2 1183.45 1208.36C1175.89 1210.23 1168.51 1212.68 1161.39 1215.68C1153.88 1218.85 1147.48 1223.72 1139.7 1226.34C1127.09 1230.6 1112.99 1231.07 1099.75 1231.12C1046.94 1231.34 993.516 1222.04 942.101 1212.3C915.327 1207.23 888.407 1201.82 862.403 1194.05C854.507 1191.69 845.556 1189.32 838.626 1184.92C834.302 1182.18 831.38 1178.73 826.461 1176.68C784.446 1159.16 735.79 1152.83 691.152 1140.26C679.533 1136.98 615.132 1120.47 648.946 1104.42C669.489 1094.67 691.161 1090.17 709.931 1076.88C715.649 1072.85 719.465 1069.51 721.725 1063.38C723.215 1059.3 719.675 1061.38 724.625 1057.1C730.629 1051.95 744.283 1049.81 751.661 1047.74Z" stroke="black" stroke-width="5" style="mix-blend-mode:soft-light"/>
<path fill-rule="evenodd" clip-rule="evenodd" d="M817.349 1057.7C891.461 1043.04 969.863 1041.93 1044.99 1054.16C1063.93 1057.24 1083.66 1056.37 1102.85 1057.07C1121.49 1057.74 1154.65 1055.95 1168.11 1069.06C1177.88 1078.57 1167.1 1098.95 1163.36 1109.67C1158.58 1123.32 1154.4 1137.42 1162.03 1150.61C1166.5 1158.34 1172.65 1165.68 1177.45 1173.33C1179.74 1176.99 1184.48 1182.58 1182.47 1186.06C1179.15 1191.81 1163.75 1194.31 1156.27 1197.05C1132.35 1205.82 1107.07 1208.16 1081.55 1208.24C1034.43 1208.39 987.095 1202.72 940.914 1194.93C919.668 1191.35 898.127 1187.52 877.652 1181.2C866.066 1177.62 857.545 1170.65 846.486 1166.55C810.875 1153.34 772.574 1146.38 736.344 1134.32C725.857 1130.83 686.678 1119.22 706.53 1105.18C725.75 1091.58 753.661 1093.03 773.637 1080.23C775.898 1078.77 778.695 1077.01 780.015 1074.66C780.795 1073.25 779.451 1070.58 780.043 1069.78C786.206 1061.06 807.942 1059.56 817.349 1057.7Z" stroke="#489A45" stroke-width="5" style="mix-blend-mode:soft-light"/>
<path fill-rule="evenodd" clip-rule="evenodd" d="M865.257 1066.86C903.265 1061.86 942.086 1060.46 980.707 1059.94C1001.82 1059.66 1025.02 1058.3 1045.64 1063.1C1058.31 1066.06 1070.55 1068.65 1083.62 1070.48C1097.68 1072.46 1120.33 1073.83 1128.84 1084.92C1135.19 1093.21 1130.71 1110.35 1130.42 1120.47C1130.1 1131.57 1132.53 1139.79 1141 1147.68C1146.33 1152.66 1170.79 1170.68 1167.92 1175.93C1165.19 1180.93 1148.07 1181.79 1140.66 1183.13C1117.24 1187.37 1093.53 1188.93 1069.73 1188.83C1032.88 1188.7 995.912 1185.44 959.669 1179.7C944.685 1177.31 929.2 1174.84 914.901 1169.98C905.272 1166.71 897.26 1160.86 887.695 1157.47C860.303 1147.76 831.318 1141.22 803.832 1131.33C795.011 1128.15 766.259 1119.71 773.24 1106.42C779.061 1095.33 798.662 1091.86 808.326 1084.39C824.767 1071.66 844.37 1069.61 865.257 1066.86Z" stroke="#489A45" stroke-width="5" style="mix-blend-mode:soft-light"/>
<path fill-rule="evenodd" clip-rule="evenodd" d="M889.147 1073.09C919.293 1069.75 950.129 1068.19 980.699 1067.96C1000.43 1067.8 1021.24 1067.44 1040.58 1071.42C1050.29 1073.41 1058.72 1078.15 1067.9 1081.52C1077.36 1084.98 1090.41 1088.82 1094.46 1096.86C1098.27 1104.4 1096.77 1115.45 1100.1 1124.56C1103.06 1132.64 1109.32 1137.61 1116.06 1143.04C1120.36 1146.52 1142.45 1161.53 1139.86 1164.89C1137.09 1168.49 1123.78 1168.27 1116.85 1168.8C1097.75 1170.29 1078.59 1170.84 1059.45 1170.44C1033.33 1169.85 1007.01 1167.93 981.366 1163.42C963.172 1160.22 949.48 1152.44 932.533 1146.76C910.578 1139.4 887.824 1133.61 866.084 1125.54C855.25 1121.52 839.211 1116.36 833.712 1105.85C831.597 1101.83 829.582 1091.58 831.985 1087.53C834.872 1082.66 845.525 1080.54 850.555 1079.27C863.157 1076.09 876.334 1074.5 889.147 1073.09Z" stroke="#F3F3F3" stroke-width="5"/>
<path fill-rule="evenodd" clip-rule="evenodd" d="M917.327 1080.68C955.01 1076.57 997.582 1073.03 1035.31 1080.67C1050.56 1083.75 1065.71 1093.05 1071.86 1105.81C1075.05 1112.41 1075.7 1120.28 1080.48 1126.66C1084.02 1131.38 1088.53 1135.63 1092.99 1139.59C1095.49 1141.83 1111.58 1154.08 1108.45 1156.3C1105.15 1158.64 1097.08 1157.93 1091.57 1158.02C1078.37 1158.23 1065.12 1157.83 1051.96 1156.99C1036.84 1156.01 1021.36 1154.72 1006.71 1151.07C994.89 1148.12 984.142 1141.81 972.638 1138.1C942.394 1128.26 910.509 1120.6 882.147 1105.94C876.114 1102.83 864.174 1098.18 871.485 1091.02C880.583 1082.11 905.683 1081.94 917.327 1080.68Z" stroke="black" stroke-width="5" style="mix-blend-mode:soft-light"/>
<path fill-rule="evenodd" clip-rule="evenodd" d="M950.116 1087.52C976.949 1084.65 1006.71 1083.2 1033.6 1088.68C1047.22 1091.45 1059.35 1097.31 1065.22 1108.76C1069.42 1116.91 1070.51 1126.04 1076.28 1133.87C1078.31 1136.63 1085.82 1144.37 1082.09 1146.09C1074.1 1149.79 1056.34 1145.68 1045.3 1143.82C1028.68 1141.01 1014.84 1132.95 999.048 1128.22C974.828 1120.96 944.108 1117.18 922.068 1104.7C900.829 1092.64 942.287 1088.37 950.116 1087.52Z" stroke="black" stroke-width="5" style="mix-blend-mode:soft-light"/>
<path fill-rule="evenodd" clip-rule="evenodd" d="M980.742 1094.03C1003.51 1091.45 1043.98 1090.02 1056.85 1109.7C1059.24 1113.36 1065.77 1133.58 1059.34 1135.42C1054.03 1136.93 1045.73 1134.53 1039.76 1132.27C1028.65 1128.09 1018.24 1123.53 1006.75 1120.09C996.973 1117.17 986.96 1114.47 977.313 1111.07C973.218 1109.64 965.518 1107.92 962.963 1104.63C956.087 1095.77 973.81 1094.82 980.742 1094.03Z" fill="#01002D" style="mix-blend-mode:soft-light"/>
<rect x="4" y="493" width="1477" height="352" fill="#489A45"/>
</svg>
