<svg width="1332" height="1779" viewBox="0 0 1332 1779" fill="none" xmlns="http://www.w3.org/2000/svg">
<path d="M1249 1629.03C1249 1629.03 1249 1578.8 1249 1533.03C1249 1503.35 1309 1541.53 1291 1503.53V1466.03V1401.03H1188.5C1180.98 1401.03 -13.9978 1401.03 30.346 1401.03C30.346 1371.35 22.8224 593.861 30.3461 593.861H1313.75C1321.27 593.861 1327.35 569.901 1327.35 540.219C1327.35 510.537 1321.27 486.577 1313.75 486.577H1285.01C1277.49 486.577 1271.42 462.618 1271.42 432.936C1271.42 401.466 1271.42 368.029 1271.42 368.029" stroke="#2F3140" stroke-width="8" stroke-miterlimit="10" stroke-linecap="round" stroke-linejoin="round"/>
<path d="M192.69 1275H20.2853C10.2284 1275 2 1263.39 2 1249.19V747.807C2 733.613 10.2284 722 20.2853 722H192.69C202.747 722 210.975 733.613 210.975 747.807V1249.19C210.975 1263.39 202.747 1275 192.69 1275Z" fill="#848484"/>
<path d="M192.69 1275H20.2853C10.2284 1275 2 1263.39 2 1249.19V747.807C2 733.613 10.2284 722 20.2853 722H192.69C202.747 722 210.975 733.613 210.975 747.807V1249.19C210.975 1263.39 202.747 1275 192.69 1275Z" stroke="#444E59" stroke-width="4" stroke-miterlimit="10" stroke-linecap="round" stroke-linejoin="round"/>
<path d="M211 1204.01L211 791.103H2.02487L2.02487 1204.01H211Z" fill="#E9FBFF"/>
<path d="M211 1204.01L211 791.103H2.02487L2.02487 1204.01H211Z" stroke="#444E59" stroke-width="4" stroke-miterlimit="10" stroke-linecap="round" stroke-linejoin="round"/>
<path d="M135.222 758.867H144.364" stroke="#444E59" stroke-width="5" stroke-miterlimit="10" stroke-linecap="round" stroke-linejoin="round"/>
<path d="M68.6108 758.867H120.855" stroke="#444E59" stroke-width="5" stroke-miterlimit="10" stroke-linecap="round" stroke-linejoin="round"/>
<path opacity="0.29" d="M106.488 1255.46C114.422 1255.46 120.855 1246.38 120.855 1235.18C120.855 1223.99 114.422 1214.91 106.488 1214.91C98.5529 1214.91 92.1206 1223.99 92.1206 1235.18C92.1206 1246.38 98.5529 1255.46 106.488 1255.46Z" fill="#848484"/>
<path d="M106.488 1250.67C112.547 1250.67 117.459 1243.74 117.459 1235.18C117.459 1226.63 112.547 1219.7 106.488 1219.7C100.429 1219.7 95.5166 1226.63 95.5166 1235.18C95.5166 1243.74 100.429 1250.67 106.488 1250.67Z" fill="#444E59"/>
<path d="M1248 1580.52H1238.14C1237.41 1580.52 1236.86 1579.94 1236.86 1579.26V1578.14C1236.86 1577.42 1237.45 1576.88 1238.14 1576.88H1248C1248.73 1576.88 1249.27 1577.46 1249.27 1578.14V1579.26C1249.32 1579.94 1248.73 1580.52 1248 1580.52Z" fill="#489A45"/>
<path d="M1247.82 1574.76H1238.36C1237.55 1574.76 1236.86 1574.09 1236.86 1573.28V1572.51C1236.86 1571.7 1237.55 1571.03 1238.36 1571.03H1247.82C1248.64 1571.03 1249.32 1571.7 1249.32 1572.51V1573.28C1249.32 1574.09 1248.64 1574.76 1247.82 1574.76Z" fill="#489A45"/>
<path d="M1247.59 1577.46H1238.59C1238.05 1577.46 1237.59 1577.01 1237.59 1576.47V1575.17C1237.59 1574.63 1238.05 1574.18 1238.59 1574.18H1247.59C1248.14 1574.18 1248.64 1574.63 1248.64 1575.17V1576.47C1248.64 1577.01 1248.18 1577.46 1247.59 1577.46Z" fill="#489A45"/>
<path d="M1244.36 1580.52H1234.5C1233.77 1580.52 1233.23 1579.94 1233.23 1579.26V1578.14C1233.23 1577.42 1233.82 1576.88 1234.5 1576.88H1244.36C1245.09 1576.88 1245.64 1577.46 1245.64 1578.14V1579.26C1245.68 1579.94 1245.09 1580.52 1244.36 1580.52Z" fill="#2F3140"/>
<path d="M1244.18 1574.76H1234.73C1233.91 1574.76 1233.23 1574.09 1233.23 1573.28V1572.51C1233.23 1571.7 1233.91 1571.03 1234.73 1571.03H1244.18C1245 1571.03 1245.68 1571.7 1245.68 1572.51V1573.28C1245.68 1574.09 1245 1574.76 1244.18 1574.76Z" fill="#2F3140"/>
<path d="M1243.96 1577.24H1234.95C1234.41 1577.24 1233.95 1576.79 1233.95 1576.25V1575.39C1233.95 1574.85 1234.41 1574.4 1234.95 1574.4H1243.96C1244.5 1574.4 1244.96 1574.85 1244.96 1575.39V1576.25C1245 1576.79 1244.55 1577.24 1243.96 1577.24Z" fill="#2F3140"/>
<path d="M1288.46 1609.55C1287.78 1607.97 1286.82 1606.53 1285.78 1605.23C1285.69 1605.05 1285.64 1604.87 1285.55 1604.69C1283 1598.21 1275.64 1594.16 1275.64 1594.16C1268.78 1590.06 1261.82 1587.59 1255.23 1585.92C1253.5 1585.47 1251.82 1586.78 1251.82 1588.53V1596.54H1235.45V1588.53C1235.45 1586.78 1233.77 1585.47 1232.05 1585.92C1225.41 1587.59 1218.5 1590.06 1211.63 1594.16C1211.63 1594.16 1204.27 1598.16 1201.72 1604.69C1199.41 1610.54 1196.27 1620.44 1193.4 1632.31L1189.18 1633.66C1186.95 1643.16 1184.95 1653.78 1183.68 1664.49L1187.63 1663.27C1187.22 1666.38 1186.9 1669.53 1186.63 1672.68L1182.77 1673.67C1181.72 1687.07 1182.09 1700.21 1184.86 1711.06L1189.04 1711.69C1189.09 1711.82 1189.13 1712 1189.18 1712.14C1203.59 1746.29 1211.77 1766.49 1218 1770.63C1224.14 1774.73 1236.55 1775.72 1243.68 1775.45C1250.73 1775.76 1262.96 1775.09 1269.19 1771.08C1269.73 1770.81 1270 1770.5 1270.5 1770.18C1277.19 1766.04 1285 1749.75 1298.69 1719.61L1301.42 1713.58L1301.46 1713.44C1311.73 1681.54 1295.51 1626.1 1288.46 1609.55Z" fill="#489A45" stroke="#489A45" stroke-width="6" stroke-miterlimit="10"/>
<path d="M1190.36 1663.63H1185.36L1178.54 1665.39C1177.49 1678.8 1177.86 1691.93 1180.63 1702.78L1194.18 1704.8L1190.36 1663.63Z" fill="#7C7C94"/>
<path d="M1190.36 1663.63H1185.36L1178.54 1665.39C1177.49 1678.8 1177.86 1691.93 1180.63 1702.78L1194.18 1704.8L1190.36 1663.63Z" stroke="#2F3140" stroke-width="3" stroke-miterlimit="10" stroke-linecap="round" stroke-linejoin="round"/>
<path d="M1186.13 1654.18L1192.04 1623.14L1184.99 1625.38C1182.77 1634.88 1180.77 1645.5 1179.49 1656.21L1186.13 1654.18Z" fill="#7C7C94"/>
<path d="M1191.72 1663.63H1186.72L1179.9 1665.39C1178.86 1678.8 1179.22 1691.93 1181.99 1702.78L1195.54 1704.8L1191.72 1663.63Z" fill="#6C6D81"/>
<path d="M1187.5 1654.18L1193.4 1623.14L1186.36 1625.38C1184.13 1634.88 1182.13 1645.5 1180.86 1656.21L1187.5 1654.18Z" fill="#6C6D81"/>
<path d="M1186.13 1654.18L1192.04 1623.14L1184.99 1625.38C1182.77 1634.88 1180.77 1645.5 1179.49 1656.21L1186.13 1654.18Z" stroke="#2F3140" stroke-width="3" stroke-miterlimit="10" stroke-linecap="round" stroke-linejoin="round"/>
<path d="M1284.28 1601.31C1281.41 1594.56 1273.69 1590.42 1272.87 1590.02C1270.32 1588.62 1267.68 1587.36 1264.96 1586.24V1763.03C1265.5 1762.76 1266.09 1762.44 1266.59 1762.13C1273.28 1757.99 1280.78 1741.38 1294.51 1711.28L1297.23 1705.25L1297.28 1705.12C1307.55 1673.31 1291.32 1617.92 1284.28 1601.31Z" fill="#565864"/>
<path d="M1284.28 1601.31C1281.41 1594.56 1273.69 1590.42 1272.87 1590.02C1270.32 1588.62 1267.68 1587.36 1264.96 1586.24V1763.03C1265.5 1762.76 1266.09 1762.44 1266.59 1762.13C1273.28 1757.99 1280.78 1741.38 1294.51 1711.28L1297.23 1705.25L1297.28 1705.12C1307.55 1673.31 1291.32 1617.92 1284.28 1601.31Z" stroke="#2F3140" stroke-width="3" stroke-miterlimit="10" stroke-linecap="round" stroke-linejoin="round"/>
<path d="M1281.37 1596.45C1278.82 1589.97 1271.46 1585.92 1271.46 1585.92C1264.59 1581.83 1257.64 1579.35 1251.05 1577.69C1249.32 1577.24 1247.64 1578.54 1247.64 1580.3V1588.35H1231.27V1580.34C1231.27 1578.59 1229.59 1577.28 1227.86 1577.73C1221.23 1579.4 1214.32 1581.87 1207.45 1585.97C1207.45 1585.97 1200.09 1589.97 1197.54 1596.5C1190.4 1614.54 1175.27 1671.64 1184.95 1703.9C1199.36 1738.06 1207.54 1758.26 1213.77 1762.4C1219.91 1766.49 1232.32 1767.48 1239.45 1767.21C1246.59 1767.53 1259 1766.54 1265.14 1762.4C1271.32 1758.26 1279.55 1738.06 1293.96 1703.9C1303.64 1671.6 1288.51 1614.5 1281.37 1596.45Z" fill="#51566A"/>
<path d="M1279.14 1623.13C1279.14 1611.39 1278.14 1600.05 1276.23 1589.43C1273.73 1587.18 1271.46 1585.92 1271.46 1585.92C1264.59 1581.83 1257.64 1579.35 1251.05 1577.69C1249.32 1577.24 1247.64 1578.54 1247.64 1580.3V1588.35H1231.27V1580.34C1231.27 1578.59 1229.59 1577.28 1227.86 1577.73C1221.23 1579.4 1214.32 1581.87 1207.45 1585.97C1207.45 1585.97 1200.09 1589.97 1197.54 1596.5C1190.4 1614.54 1175.27 1671.64 1184.95 1703.9C1189.18 1713.98 1192.9 1722.8 1196.18 1730.36C1202.27 1733.78 1208.72 1735.63 1215.45 1735.63C1250.64 1735.58 1279.14 1685.23 1279.14 1623.13Z" fill="#6C6D81"/>
<path d="M1281.37 1596.45C1278.82 1589.97 1271.46 1585.92 1271.46 1585.92C1264.59 1581.83 1257.64 1579.35 1251.05 1577.69C1249.32 1577.24 1247.64 1578.54 1247.64 1580.3V1588.35H1231.27V1580.34C1231.27 1578.59 1229.59 1577.28 1227.86 1577.73C1221.23 1579.4 1214.32 1581.87 1207.45 1585.97C1207.45 1585.97 1200.09 1589.97 1197.54 1596.5C1190.4 1614.54 1175.27 1671.64 1184.95 1703.9C1199.36 1738.06 1207.54 1758.26 1213.77 1762.4C1219.91 1766.49 1232.32 1767.48 1239.45 1767.21C1246.59 1767.53 1259 1766.54 1265.14 1762.4C1271.32 1758.26 1279.55 1738.06 1293.96 1703.9C1303.64 1671.6 1288.51 1614.5 1281.37 1596.45Z" stroke="#2F3140" stroke-width="6" stroke-miterlimit="10" stroke-linecap="round" stroke-linejoin="round"/>
<path d="M1231.27 1585.7V1580.25C1231.27 1578.5 1229.64 1577.24 1227.91 1577.64C1221.23 1579.31 1214.27 1581.78 1207.36 1585.92C1207.36 1585.92 1199.91 1589.93 1197.36 1596.45C1193.18 1606.98 1186.31 1630.83 1183.22 1655.26C1182.95 1657.42 1185.22 1659 1187.18 1657.96C1193.86 1654.41 1201 1650.67 1205.91 1648.38C1217 1643.16 1232.14 1638.7 1237.45 1637.22C1238.64 1636.9 1239.41 1635.82 1239.41 1634.65V1591.05C1239.41 1589.57 1238.18 1588.4 1236.73 1588.4H1233.95C1232.5 1588.35 1231.27 1587.18 1231.27 1585.7Z" stroke="#2F3140" stroke-width="6" stroke-miterlimit="10" stroke-linecap="round" stroke-linejoin="round"/>
<path d="M1281.37 1596.45C1278.82 1589.97 1271.46 1585.92 1271.46 1585.92C1264.59 1581.83 1257.64 1579.35 1251.05 1577.69C1249.32 1577.24 1247.64 1578.54 1247.64 1580.3V1588.35H1239.45V1636.68C1239.45 1636.68 1259.14 1641.9 1272.87 1648.38C1277.78 1650.67 1284.91 1654.41 1291.55 1657.96C1293.51 1659 1295.78 1657.42 1295.51 1655.26C1292.41 1630.83 1285.55 1606.98 1281.37 1596.45Z" stroke="#2F3140" stroke-width="6" stroke-miterlimit="10" stroke-linecap="round" stroke-linejoin="round"/>
<path d="M1239.45 1687.79C1234.95 1687.79 1231.27 1684.15 1231.27 1679.7V1585.2C1231.27 1582.82 1233.23 1580.84 1235.68 1580.84H1243.27C1245.68 1580.84 1247.68 1582.77 1247.68 1585.2V1679.7C1247.64 1684.19 1243.96 1687.79 1239.45 1687.79Z" fill="#7C7C94"/>
<path d="M1247.64 1606.04V1585.2C1247.64 1582.82 1245.68 1580.84 1243.23 1580.84H1235.64C1233.23 1580.84 1231.23 1582.77 1231.23 1585.2V1674.66L1247.64 1606.04Z" fill="#9093A2"/>
<path d="M1243.05 1658.37V1645.63C1243.05 1643.7 1241.46 1642.08 1239.45 1642.08C1237.45 1642.08 1235.86 1643.65 1235.86 1645.63V1658.37H1243.05Z" fill="#3C4155"/>
<path d="M1243.05 1661.97V1674.7C1243.05 1676.64 1241.46 1678.26 1239.45 1678.26C1237.45 1678.26 1235.86 1676.68 1235.86 1674.7V1661.97H1243.05V1661.97Z" fill="#3C4155"/>
<path d="M1239.45 1687.79C1234.95 1687.79 1231.27 1684.15 1231.27 1679.7V1585.25C1231.27 1582.82 1233.27 1580.84 1235.73 1580.84H1243.23C1245.68 1580.84 1247.68 1582.82 1247.68 1585.25V1679.7C1247.64 1684.19 1243.96 1687.79 1239.45 1687.79Z" stroke="#2F3140" stroke-width="6" stroke-miterlimit="10" stroke-linecap="round" stroke-linejoin="round"/>
<path d="M1240.91 1628.53H1237.95C1236.27 1628.53 1234.91 1627.18 1234.91 1625.52V1605.5C1234.91 1603.83 1236.27 1602.48 1237.95 1602.48H1240.91C1242.59 1602.48 1243.96 1603.83 1243.96 1605.5V1625.52C1244 1627.18 1242.59 1628.53 1240.91 1628.53Z" fill="#3B4254"/>
<path d="M1235.41 1625.92H1243.5" stroke="#489A45" stroke-width="2" stroke-miterlimit="10" stroke-linecap="round" stroke-linejoin="round"/>
<path d="M1235.41 1623.22H1243.5" stroke="#489A45" stroke-width="2" stroke-miterlimit="10" stroke-linecap="round" stroke-linejoin="round"/>
<path d="M1235.41 1620.53H1243.5" stroke="#489A45" stroke-width="2" stroke-miterlimit="10" stroke-linecap="round" stroke-linejoin="round"/>
<path d="M1235.41 1617.83H1243.5" stroke="#489A45" stroke-width="2" stroke-miterlimit="10" stroke-linecap="round" stroke-linejoin="round"/>
<path d="M1235.41 1615.13H1243.5" stroke="#489A45" stroke-width="2" stroke-miterlimit="10" stroke-linecap="round" stroke-linejoin="round"/>
<path d="M1235.41 1612.43H1243.5" stroke="#489A45" stroke-width="2" stroke-miterlimit="10" stroke-linecap="round" stroke-linejoin="round"/>
<path d="M1235.41 1609.73H1243.5" stroke="#489A45" stroke-width="2" stroke-miterlimit="10" stroke-linecap="round" stroke-linejoin="round"/>
<path d="M1235.41 1607.03H1243.5" stroke="#489A45" stroke-width="2" stroke-miterlimit="10" stroke-linecap="round" stroke-linejoin="round"/>
<path d="M1235.41 1604.33H1243.5" stroke="#489A45" stroke-width="2" stroke-miterlimit="10" stroke-linecap="round" stroke-linejoin="round"/>
<path d="M1240.91 1628.53C1239.91 1628.53 1238.95 1628.53 1237.95 1628.53C1236.27 1628.53 1234.77 1627.18 1234.59 1625.52C1234 1618.86 1234 1612.16 1234.59 1605.5C1234.77 1603.83 1236.27 1602.48 1237.95 1602.48C1238.95 1602.48 1239.91 1602.48 1240.91 1602.48C1242.59 1602.48 1244.09 1603.83 1244.27 1605.5C1244.86 1612.16 1244.86 1618.86 1244.27 1625.52C1244.14 1627.18 1242.59 1628.53 1240.91 1628.53Z" stroke="#2F3140" stroke-width="3" stroke-miterlimit="10" stroke-linecap="round" stroke-linejoin="round"/>
<path d="M1241.73 1628.53H1237.18C1235.91 1628.53 1234.91 1627.54 1234.91 1626.28V1604.69C1234.91 1603.43 1235.91 1602.44 1237.18 1602.44H1241.73C1243 1602.44 1244 1603.43 1244 1604.69V1626.28C1244 1627.54 1242.96 1628.53 1241.73 1628.53Z" stroke="#2F3140" stroke-width="3" stroke-miterlimit="10" stroke-linecap="round" stroke-linejoin="round"/>
<path d="M1243.05 1658.37V1645.63C1243.05 1643.7 1241.46 1642.08 1239.45 1642.08C1237.45 1642.08 1235.86 1643.65 1235.86 1645.63V1658.37H1243.05Z" stroke="#2F3140" stroke-width="3" stroke-miterlimit="10" stroke-linecap="round" stroke-linejoin="round"/>
<path d="M1243.05 1661.97V1674.7C1243.05 1676.64 1241.46 1678.26 1239.45 1678.26C1237.45 1678.26 1235.86 1676.68 1235.86 1674.7V1661.97H1243.05V1661.97Z" stroke="#2F3140" stroke-width="3" stroke-miterlimit="10" stroke-linecap="round" stroke-linejoin="round"/>
<path opacity="0.32" d="M1160.07 329.62H943.048C939.17 329.62 935.938 327 935.938 323.856C935.938 320.713 939.17 318.093 943.048 318.093H1160.07C1163.95 318.093 1167.18 320.713 1167.18 323.856C1167.18 327 1163.95 329.62 1160.07 329.62Z" fill="#1C1C1C"/>
<path opacity="0.32" d="M1311.69 373.529H856.962C853.084 373.529 849.853 370.91 849.853 367.766C849.853 364.622 853.084 362.002 856.962 362.002H1311.69C1315.57 362.002 1318.8 364.622 1318.8 367.766C1318.8 371.014 1315.57 373.529 1311.69 373.529Z" fill="#1C1C1C"/>
<path d="M1278.99 215.917H824.001V18.4823C824.001 9.36512 833.049 2.02942 844.294 2.02942H1258.05C1269.55 2.02942 1278.99 9.6795 1278.99 19.0063V215.917Z" fill="#383939"/>
<path d="M831.756 200.198V17.8537C831.756 12.6139 836.927 8.42206 843.39 8.42206H1259.6C1266.06 8.42206 1271.23 12.6139 1271.23 17.8537V200.198C1271.23 205.438 1266.06 209.629 1259.6 209.629H843.39C837.056 209.629 831.756 205.333 831.756 200.198Z" fill="#3A3A3A"/>
<path d="M1278.99 215.917H824.001V18.4823C824.001 9.36512 833.049 2.02942 844.294 2.02942H1258.05C1269.55 2.02942 1278.99 9.6795 1278.99 19.0063V215.917Z" stroke="#383939" stroke-width="3" stroke-miterlimit="10" stroke-linecap="round" stroke-linejoin="round"/>
<path d="M1271 210.029V8.02942L834.001 8.02942V210.029L1271 210.029Z" fill="#F3F3F3"/>
<path d="M1257.92 266.219H844.424C833.178 266.219 824.001 258.778 824.001 249.661V215.917H1278.99V249.137C1278.99 258.464 1269.55 266.219 1257.92 266.219Z" fill="#D4E8DC"/>
<path d="M844.424 257.835C838.866 257.835 834.342 254.167 834.342 249.661V219.375H1268.65V249.137C1268.65 253.958 1263.87 257.835 1257.92 257.835H844.424Z" fill="#EBF2EE"/>
<path d="M1257.92 266.219H844.424C833.178 266.219 824.001 258.778 824.001 249.661V215.917H1278.99V249.137C1278.99 258.464 1269.55 266.219 1257.92 266.219Z" stroke="#383939" stroke-width="3" stroke-miterlimit="10" stroke-linecap="round" stroke-linejoin="round"/>
<path d="M1120 303.945H982.988L1003.28 266.219H1099.71L1120 303.945Z" fill="#CAD8D0"/>
<path d="M1108.76 282.986L1099.71 266.219H1003.28L994.234 282.986H1108.76Z" fill="#A1ADA6"/>
<path d="M1120 303.945H982.988L1003.28 266.219H1099.71L1120 303.945Z" stroke="#383939" stroke-width="3" stroke-miterlimit="10" stroke-linecap="round" stroke-linejoin="round"/>
<path d="M1145.85 320.713H957.137L959.076 315.158C961.402 308.556 969.029 303.945 977.818 303.945H1125.17C1133.96 303.945 1141.72 308.556 1143.91 315.158L1145.85 320.713Z" fill="#DAEDE2"/>
<path d="M1145.85 320.713H957.137L959.076 315.158C961.402 308.556 969.029 303.945 977.818 303.945H1125.17C1133.96 303.945 1141.72 308.556 1143.91 315.158L1145.85 320.713Z" stroke="#383939" stroke-width="3" stroke-miterlimit="10" stroke-linecap="round" stroke-linejoin="round"/>
<path d="M883.33 363.574H1211.26C1216.04 363.574 1219.92 360.43 1219.92 356.553C1219.92 352.675 1216.04 349.531 1211.26 349.531H883.33C878.548 349.531 874.67 352.675 874.67 356.553C874.541 360.43 878.419 363.574 883.33 363.574Z" fill="#DAEDE2"/>
<path d="M883.33 363.574H1211.26C1216.04 363.574 1219.92 360.43 1219.92 356.553C1219.92 352.675 1216.04 349.531 1211.26 349.531H883.33C878.548 349.531 874.67 352.675 874.67 356.553C874.541 360.43 878.419 363.574 883.33 363.574Z" stroke="#383939" stroke-width="3" stroke-miterlimit="10" stroke-linecap="round" stroke-linejoin="round"/>
<path d="M983.893 349.426H1141.59V345.235C1141.59 341.776 1138.1 338.947 1133.83 338.947H991.649C987.383 338.947 983.893 341.776 983.893 345.235V349.426Z" fill="#383939"/>
<path d="M952.613 349.426H980.015V345.235C980.015 341.776 976.526 338.947 972.26 338.947H960.368C956.103 338.947 952.613 341.776 952.613 345.235V349.426Z" fill="#383939"/>
<path d="M920.686 349.426H948.089V345.235C948.089 341.776 944.599 338.947 940.333 338.947H928.442C924.176 338.947 920.686 341.776 920.686 345.235V349.426Z" fill="#383939"/>
<path d="M1178.17 349.426H1205.57V345.235C1205.57 341.776 1202.08 338.947 1197.82 338.947H1185.92C1181.66 338.947 1178.17 341.776 1178.17 345.235V349.426Z" fill="#383939"/>
<path d="M1146.37 349.426H1173.77V345.235C1173.77 341.776 1170.28 338.947 1166.02 338.947H1154.13C1149.86 338.947 1146.37 341.776 1146.37 345.235V349.426Z" fill="#383939"/>
<path d="M888.888 349.426H916.291V345.235C916.291 341.776 912.801 338.947 908.536 338.947H896.644C892.378 338.947 888.888 341.776 888.888 345.235V349.426Z" fill="#383939"/>
<path d="M1297.73 363.574C1297.6 355.609 1286.87 347.645 1267.87 347.645C1249 347.645 1238.14 355.609 1238.01 363.574H1297.73Z" fill="#DAEDE2"/>
<path d="M1297.73 363.574C1297.6 355.609 1286.87 347.645 1267.87 347.645C1249 347.645 1238.14 355.609 1238.01 363.574H1297.73Z" stroke="#383939" stroke-width="3" stroke-miterlimit="10" stroke-linecap="round" stroke-linejoin="round"/>
<path d="M1069.85 238.448C1063.9 238.448 1058.99 234.885 1058.22 230.169C1058.09 230.169 1058.09 230.169 1057.96 230.169C1050.59 230.169 1044.64 234.99 1044.64 240.963C1044.64 246.937 1050.59 251.757 1057.96 251.757C1065.33 251.757 1071.27 246.937 1071.27 240.963C1071.27 240.02 1071.14 239.182 1070.88 238.343C1070.5 238.448 1070.24 238.448 1069.85 238.448Z" fill="#383939"/>
<path opacity="0.16" d="M895.61 194.958H944.986L1053.05 23.0934H1003.67L895.61 194.958Z" fill="#C2D3C9"/>
<path opacity="0.16" d="M984.927 194.958L1092.99 23.0934H1074.5L966.443 194.958H984.927Z" fill="#C2D3C9"/>
</svg>
