<svg width="1440" height="2130" viewBox="0 0 1440 2130" fill="none" xmlns="http://www.w3.org/2000/svg">
<path fill-rule="evenodd" clip-rule="evenodd" d="M621.004 1420.74C585.838 1420.53 545.911 1463.25 525.36 1481.47C484.713 1517.49 447.139 1554.99 408.974 1592.14C370.809 1629.29 332.746 1666.54 290.894 1701.92C263.727 1724.88 233.118 1751.88 194.48 1767.28C112.141 1800.08 125.266 1694.47 123.716 1667.07C119.753 1597.36 122.557 1517.46 80.4165 1451.78C55.2596 1412.57 12.6242 1396.64 -49.791 1404.46C-70.0893 1406.98 -93.4908 1414.76 -113.182 1407.82C-134.212 1400.4 -146.237 1383.67 -154.277 1369.8C-183.568 1319.21 -186.498 1261.32 -189.756 1208.04C-193.346 1150.58 -191.63 1092.64 -191.439 1035.62C-191.357 1011.45 -204.331 986.083 -214.852 962.967C-228.643 932.663 -244.17 902.701 -259.173 872.636C-292.1 806.494 -326.793 738.332 -334.684 668.594C-339.627 624.921 -331.993 577.305 -285.307 543.828C-261.866 527.02 -227.166 518.423 -196.323 508.86C-159.063 497.283 -121.448 486.181 -84.7654 473.83C33.3781 434.041 148.991 376.76 155.618 282.172C156.617 267.863 153.902 253.777 153.496 239.523C153.248 230.445 156.653 222.399 171.112 219.154C207.378 210.996 264.271 238.162 292.888 249.348C355.528 273.84 415.321 301.362 476.687 327.192C517.271 344.281 572.678 373.728 622.166 374.473C666.261 375.136 698.477 336.827 720.385 316.011C740.896 296.505 769.672 261.087 811.06 259.297C831.128 258.43 847.674 267.282 860.494 276.485C882.913 292.616 898.666 311.109 924.278 325.669C966.299 349.545 1024.23 369.696 1081.16 367.012C1120.61 365.151 1146.57 350.578 1171.42 331.968C1181.87 324.146 1189.27 317.788 1206.12 317.52C1232.88 317.084 1261.14 324.232 1285.89 330.134C1374.49 351.247 1460.08 380.875 1539.94 413.698C1579.86 430.099 1619.64 447.788 1653.62 469.366C1675.93 483.498 1702.47 502.526 1702.25 523.779C1702.03 548.385 1688.3 574.301 1678 598.129C1658.74 642.632 1636.54 686.569 1613.78 730.326C1561.13 831.519 1504.3 931.718 1443.28 1030.92C1400.23 1100.8 1357.1 1172.17 1300.11 1237.72C1288.92 1250.5 1275.89 1262.55 1261.22 1273.69C1245.8 1285.59 1238.81 1300.48 1233.57 1315.59C1201.03 1409.35 1224.45 1512.61 1238.87 1607.19C1242.52 1631.2 1246.19 1655.2 1248.69 1679.27C1250.83 1699.95 1257.29 1724.75 1247.08 1744.75C1226.98 1784.15 1154.53 1748.9 1125.02 1734.01C1021.09 1681.58 933.365 1614.35 843.751 1551.96C801.074 1522.3 758.512 1492.41 713.39 1464.32C689.932 1449.69 651.832 1420.92 621.004 1420.74Z" stroke="black" stroke-width="5" style="mix-blend-mode:soft-light"/>
<path fill-rule="evenodd" clip-rule="evenodd" d="M615.234 1402.94C577.884 1418.39 550.135 1445.84 524.048 1468.6C486.492 1501.35 450.998 1535.16 414.493 1568.44C379.973 1599.92 345.063 1631.46 305.921 1660.54C282.051 1678.27 253.497 1700.54 218.354 1708.72C142.182 1726.49 154.598 1627.39 152.828 1602.89C148.45 1541.97 147.938 1472.94 108.422 1416.26C83.7447 1380.87 42.4306 1366.05 -15.1725 1373.04C-35.1022 1375.45 -52.1392 1379.97 -71.8906 1373.88C-94.7498 1366.84 -108.899 1350.98 -118.857 1336.47C-150.057 1291.01 -156.295 1237.55 -161.445 1188.54C-166.765 1137.89 -170.365 1085.15 -165.705 1036.22C-163.849 1016.66 -173.192 994.038 -180.338 974.596C-191.348 944.681 -204.093 915.054 -215.924 885.28C-239.988 824.769 -263.136 762.7 -265.272 699.954C-266.816 654.655 -255.837 607.535 -214.694 570.225C-172.973 532.414 -108.674 516.046 -47.5045 495.417C58.2482 459.79 186.871 411.545 209.9 327.147C213.397 314.349 211.672 302.005 212.617 289.198C213.096 282.612 214.495 275.123 224.396 271.869C250.1 263.421 296.743 287.611 316.301 295.787C370.35 318.375 421.72 343.687 474.713 367.326C516.792 386.1 563.521 409.839 613.532 417.401C674.22 426.578 717.96 370.541 760.922 351.079C835.422 317.341 877.115 382.891 912.203 415.337C952.487 452.596 1026.31 483.713 1089.44 451.197C1113.58 438.759 1128.04 423.317 1159.44 417.946C1208.56 409.545 1264.54 416.728 1312.95 424.331C1385.73 435.783 1457.65 453.52 1523.31 477.346C1570.31 494.416 1644 522.695 1638.1 563.094C1634.15 590.29 1620.39 617.851 1608.2 644.258C1589.96 683.797 1569.22 722.815 1547.69 761.617C1498.14 851.187 1443.59 939.72 1383.69 1026.46C1342.8 1085.64 1176.4 1250.26 1170.41 1262.7C1152.55 1299.81 1155.25 1342.2 1157.63 1380.64C1160.78 1431.78 1169.68 1482.7 1177.88 1533.59C1181.77 1557.81 1186.56 1582.16 1188.37 1606.49C1189.65 1623.81 1190.68 1646.54 1175.26 1661.56C1145.17 1690.88 1077.24 1657.31 1048.5 1643.42C960.376 1600.88 884.214 1547.37 806.3 1497.14C768.046 1472.49 729.858 1447.47 688.499 1425.04C671.798 1415.99 638.303 1393.38 615.234 1402.94Z" stroke="#489A45" stroke-width="5" style="mix-blend-mode:soft-light"/>
<path fill-rule="evenodd" clip-rule="evenodd" d="M596.346 1380.93C521.501 1423.37 465.592 1482.38 402.948 1533.18C371.496 1558.67 339.193 1584.32 301.805 1606.22C282.364 1617.61 257.781 1631.83 230.805 1633.82C158.64 1639.13 169.188 1549.81 166.689 1523.03C161.839 1471.25 158.33 1412.76 121.949 1365.5C99.7085 1336.62 62.9118 1322.17 14.3346 1327.1C-7.21872 1329.28 -25.5437 1332.82 -46.6321 1326.56C-67.9966 1320.21 -82.9958 1307.25 -94.21 1294.16C-126.463 1256.54 -136.467 1210.07 -143.854 1167.98C-152.455 1118.6 -155.542 1068.9 -153.091 1019.28C-150.97 975.825 -170.076 932.387 -182.546 889.825C-199.055 833.441 -213.402 776.057 -210.643 718.535C-208.454 673.107 -194.029 627.429 -156.432 588.912C-118.143 549.773 -61.148 526.544 0.317127 505.691C93.2348 474.168 217.722 434.96 253.534 364.305C258.753 354.029 259.402 344.414 260.389 333.777C260.866 328.61 261.059 321.935 269.274 319.442C289.057 313.448 327.099 336.599 340.371 343.084C382.742 363.782 423.18 386.172 464.982 407.371C504.007 427.162 544.668 448.703 590.496 461.189C663.482 481.06 706.807 419.998 776.505 422.34C819.775 423.8 850.569 451.355 871.847 473.148C898.013 499.981 915.03 538.431 963.092 552.173C998.891 562.409 1019.92 547.036 1047.26 535.296C1093.58 515.402 1156.13 514.575 1209.53 517.164C1281.67 520.656 1354.82 532.441 1420.99 551.981C1450.98 560.836 1482.17 571.632 1505.39 587.326C1527.15 602.028 1532.64 615.808 1527.99 635.156C1513.72 694.385 1474.89 753.968 1440.17 810.577C1396.55 881.702 1348.47 951.802 1294.47 1019.74C1257.65 1066.07 1218.7 1113.43 1168.03 1153.93C1154.82 1164.49 1140.47 1175.29 1123.11 1182.94C1110.05 1188.73 1099.29 1191.14 1091.78 1201.01C1069.53 1230.29 1074.91 1271.34 1076.92 1302.94C1080.11 1353.46 1089.35 1403.8 1097.63 1454.06C1102.49 1483.39 1118.13 1538.7 1079.24 1561.74C1045.65 1581.63 988.91 1556.76 959.594 1544.06C885.455 1511.92 820.501 1470.86 753.584 1432.7C722.916 1415.21 692.018 1397.05 657.878 1382.52C649.174 1378.81 637.65 1372.89 627.046 1371.8C614.896 1370.57 605.57 1375.72 596.346 1380.93Z" stroke="black" stroke-width="5" style="mix-blend-mode:soft-light"/>
<path fill-rule="evenodd" clip-rule="evenodd" d="M613.713 1377.38C547.521 1416.62 493.006 1464.13 431.016 1506.35C403.222 1525.28 374.071 1544.38 340.243 1558.69C322.051 1566.39 299.166 1574.53 276.662 1572.16C212.071 1565.37 218.565 1491.89 215.044 1462.15C209.875 1417.96 204.725 1367.19 170.215 1327.85C147.611 1302.08 113.978 1292.19 70.4482 1296.58C23.7547 1301.29 -10.0054 1289.53 -35.7957 1263.22C-68.1044 1230.24 -81.025 1188.86 -90.1271 1150.82C-101.039 1104.98 -105.644 1058.63 -103.886 1012.32C-102.171 967.274 -113.254 923.523 -120.315 878.7C-129.667 819.273 -133.996 757.986 -113.217 699.496C-95.1223 648.571 -55.8412 602.777 4.57779 568.724C67.6374 533.156 146.84 515.976 216.509 487.259C259.964 469.348 317.46 444.344 334.593 410.304C340.308 398.951 332.92 378.102 360.452 387.456C376.198 392.802 389.964 402.668 402.804 410.48C423.554 423.103 443.726 436.132 464.188 448.961C507.804 476.304 552.337 505.566 604.09 526.229C669.248 552.266 719.907 514.878 786.164 520.081C821.82 522.877 850.15 539.456 872.366 556.926C886.755 568.229 899.196 580.567 910.793 593.155C922.908 606.302 932.088 621.812 947.799 633.323C970.158 649.727 996.859 642.929 1025.98 640.15C1077.15 635.259 1129.09 634.547 1180.62 638.031C1243.79 642.294 1308.72 651.55 1365.99 670.338C1388.29 677.647 1411.91 686.865 1426.78 700.373C1441.65 713.882 1440.5 727.706 1435.85 742.992C1422.11 788.331 1390.66 833.419 1360.86 876.278C1323.55 929.922 1281.92 982.467 1234.65 1032.58C1202.01 1067.17 1166.78 1101.85 1122.7 1130.64C1109.87 1139.01 1096.14 1146.97 1080.83 1153.36C1070.33 1157.75 1056.82 1160.03 1048.9 1166.46C1024.18 1186.56 1031.15 1227.43 1032.36 1251.27C1034.78 1298.86 1047.88 1345.8 1050.74 1393.33C1052.3 1419.27 1056.45 1459.92 1022.74 1478.66C991.048 1496.28 941.528 1479.62 911.24 1468.65C851.686 1447.09 798.712 1418.36 743.404 1392.54C720.645 1381.92 696.838 1370.3 670.803 1363.32C647.604 1357.12 630.684 1367.32 613.713 1377.38Z" stroke="#489A45" stroke-width="5" style="mix-blend-mode:soft-light"/>
<path fill-rule="evenodd" clip-rule="evenodd" d="M614.877 1367.59C556.66 1398.78 504.892 1436.54 445.73 1467.96C411.084 1486.34 352.832 1518.02 304.351 1503.13C251.077 1486.79 250.114 1431.49 246.096 1399.5C241.311 1361.42 234.711 1316.69 201.648 1283.84C191.196 1273.45 177.319 1264.56 158.97 1260.68C139.332 1256.52 122.078 1260.72 102.379 1261.11C61.0546 1261.93 28.031 1245.4 5.44429 1223.72C-26.4902 1193.08 -41.3783 1154.98 -51.6742 1119.03C-63.2852 1078.3 -68.8199 1036.95 -68.1993 995.575C-67.6418 956.031 -68.6251 916.892 -69.8092 877.292C-71.3971 825.504 -67.6195 773.035 -46.2791 723.003C-25.2425 673.717 13.7574 629.085 70.8487 594.262C126.559 560.29 194.486 537.639 263.648 517.888C302.903 506.68 361.585 487.679 381.607 460.29C390.518 448.111 390.021 436.077 412.795 449.315C441.473 465.985 464.402 488.312 488.886 507.542C524.218 535.282 560.24 563.717 602.333 587.111C629.212 602.052 655.364 608.836 690.345 608.136C716.993 607.591 743.389 604.277 770.117 606.31C832.85 611.072 875.606 643.993 915.434 673.115C941.05 691.85 960.562 708.924 997.15 718.777C1040.39 730.429 1087.51 735.578 1132.44 743.508C1181.79 752.219 1233.11 762.23 1276.48 780.671C1315.08 797.085 1332.29 816.784 1321.59 845.942C1304.91 891.421 1264.42 936.033 1226.98 976.206C1188.88 1017.1 1146.1 1057.23 1093.94 1090.93C1065.77 1109.13 1032.78 1121.42 1002.55 1137.54C964.595 1157.8 978.484 1204.54 981.434 1232.27C986.332 1278.29 1024.76 1423.33 896.241 1408.84C842.599 1402.79 793.242 1380.4 746.005 1363.93C726.401 1357.1 702.889 1347.26 680.37 1345.56C655.844 1343.7 632.402 1358.21 614.877 1367.59Z" stroke="#F3F3F3" stroke-width="5"/>
<path fill-rule="evenodd" clip-rule="evenodd" d="M619.946 1350.89C567.23 1374.65 517.372 1403.21 460.483 1423.49C423.641 1436.65 374.457 1449.46 335.757 1431.72C292.085 1411.69 282.249 1368.3 276.946 1336.43C271.487 1303.6 266.996 1264.42 233.988 1237.33C223.474 1228.72 209.256 1221.56 192.167 1220.1C175.775 1218.69 159.34 1222.11 142.65 1220.78C105.172 1217.8 74.4065 1202.56 52.1677 1183.07C-13.6229 1125.41 -27.6081 1040.33 -28.7269 971.46C-29.2808 936.986 -24.4435 901.555 -20.8947 866.895C-16.2902 821.919 -6.86664 776.918 15.2604 734.183C62.2897 643.32 165.334 583.056 293.259 541.466C333.526 528.377 377.055 518.474 409.505 497.687C426.262 486.972 438.204 489.452 453.299 500.695C476.888 518.271 494.845 539.614 514.49 559.064C542.428 586.728 570.781 614.982 604.325 639.526C627.448 656.444 649.763 668.506 684.629 672.418C709.487 675.209 734.846 674.835 759.867 676.602C807.4 679.966 854.51 690.455 893.8 708.63C924.943 723.07 953.211 740.183 980.151 757.849C1015.23 780.816 1050.9 800.294 1092.61 817.87C1147.83 841.17 1249.78 874.127 1222.24 927.605C1191.86 986.588 1115.51 1041.45 1041.68 1078.8C1016.89 1091.35 986.53 1101.56 968.18 1118.61C940.752 1144.14 941.472 1170.3 941.312 1200.96C941.056 1246.86 955.308 1346.87 850.811 1347.01C809.41 1347.07 770.373 1334.93 730.605 1328.93C686.065 1322.17 655.872 1334.66 619.946 1350.89Z" stroke="black" stroke-width="5" style="mix-blend-mode:soft-light"/>
<path fill-rule="evenodd" clip-rule="evenodd" d="M624.788 1332.89C556.149 1356.24 443.234 1408.98 367.51 1367.43C327.492 1345.48 312.721 1307.16 304.002 1275.04C296.948 1249.19 294.489 1218.08 263.785 1198.32C241.21 1183.8 208.114 1189.86 179.744 1184.13C144.573 1177 115.884 1161.12 94.3873 1141.72C34.3088 1087.52 16.3898 1012.75 13.0107 948.158C9.51034 881.081 29.3367 807.382 66.77 744.624C113.46 666.374 201.066 608.219 311.708 567.989C332.132 560.566 353.082 553.843 373.75 546.727C387.614 541.944 401.048 534.79 415.62 531.053C439.916 524.833 459.662 532.593 475.351 544.893C497.939 562.584 513.934 584.212 530.824 604.302C553.939 631.776 576.629 659.854 603.807 685.461C622.096 702.669 641.801 720.686 673.742 727.071C695.526 731.429 718.63 732.498 741.232 732.551C789.692 732.659 828.863 734.682 873.111 749.962C945.754 775.104 1010.93 813.351 1065.09 853.626C1107.59 885.234 1173.61 935.237 1144.6 980.479C1118.63 1021.07 1057.11 1044.4 1007.31 1070.86C983.094 1083.72 960.957 1098.21 943.664 1115.32C921.864 1136.89 912.614 1157.29 908.85 1183.04C902.511 1226.38 900.381 1291.79 821.172 1304.5C791.94 1309.19 761.733 1306.1 732.144 1308.43C693.019 1311.48 659.41 1321.1 624.788 1332.89Z" stroke="black" stroke-width="5" style="mix-blend-mode:soft-light"/>
<path fill-rule="evenodd" clip-rule="evenodd" d="M627.543 1307.99C552.521 1324.39 457.965 1345.97 391.79 1304.15C359.733 1283.9 341.963 1255.66 328.739 1228.36C319.262 1208.8 316.696 1177.87 287.132 1165.67C265.374 1156.71 235.263 1155.23 211.939 1147.09C179.873 1135.9 153.528 1119.16 132.963 1099.61C79.3731 1048.68 59.0772 982.784 53.632 922.806C41.8186 792.485 146.33 660.922 316.957 592.763C367.818 572.439 421.994 546.104 473.468 580.138C529.622 617.296 555.591 672.749 595.333 716.855C610.507 733.707 628.737 755.172 656.397 764.745C673.024 770.504 693.943 771.075 712.299 771.495C759.051 772.586 801.078 775.516 844.598 788.278C911.851 807.988 973.783 839.014 1024.43 873.999C1068.59 904.508 1120.42 947.919 1088 991.368C1063.09 1024.68 1010.65 1045.48 971.909 1071.19C928.759 1099.81 899.538 1135.41 885.064 1174.66C871.02 1212.84 861.405 1254.78 803.011 1274.45C782.98 1281.19 757.06 1288.2 734.935 1290.6C698.456 1294.46 662.54 1300.28 627.543 1307.99V1307.99Z" stroke="#F3F3F3" stroke-width="5"/>
<path fill-rule="evenodd" clip-rule="evenodd" d="M628.319 1280.21C552.646 1287.43 473.805 1287.6 414.546 1250.39C386.9 1233.02 367.344 1211.2 349.645 1189.16C336.623 1172.94 325.666 1156.21 304.188 1144C284.303 1132.68 261.173 1124 240.761 1113.06C213.71 1098.63 190.335 1081.44 171.534 1062.16C124.495 1013.83 102.814 955.344 95.6107 899.515C92.1086 872.489 90.4213 843.192 100.863 816.472C110.938 790.667 126.731 765.204 145.093 741.558C184.089 691.29 240.928 647.93 312.58 616.769C361.727 595.402 409.431 584.037 458.839 612.714C514.532 645.044 544.972 695.229 580.935 736.69C605.601 765.126 629.744 796.965 682.649 802.708C724.745 807.281 764.706 811.045 804.435 822.258C863.036 838.941 916.039 863.175 960.299 893.523C1000.62 921.275 1034.73 956.234 1012.72 995.22C995.245 1026.11 956.506 1049.85 928.722 1076.72C897.69 1106.68 880.434 1139.73 866.485 1174.58C853.9 1205.9 834.728 1235.32 794.402 1255.27C786.162 1259.36 777.192 1263.64 767.986 1266.77C756.239 1270.75 744.635 1270.33 731.502 1271.02C696.846 1272.8 662.568 1276.94 628.319 1280.21Z" stroke="black" stroke-width="5" style="mix-blend-mode:soft-light"/>
<path fill-rule="evenodd" clip-rule="evenodd" d="M622.412 1249.51C550.607 1248.2 482.841 1236.23 427.154 1204.6C403.332 1191.08 383.754 1175.01 361.947 1160.17C344.367 1148.23 328.033 1136.94 313.58 1123.25C279.358 1090.78 234.935 1064.25 204.51 1029.8C163.835 983.806 141.592 931.343 132.975 879.407C128.764 854.046 127.447 827.875 132.687 802.302C137.186 780.339 152.482 759.402 168.113 739.993C198.732 701.951 242.097 665.136 296.763 640.745C417.283 586.971 503.588 695.879 554.199 751.832C577.481 777.565 604.36 816.807 650.834 827.677C684.033 835.447 717.824 840.301 749.977 850.214C836.327 876.839 937.691 930.23 923.511 1000.05C917.451 1029.92 893.678 1056.99 877.633 1084.79C861.109 1113.41 851.775 1143.02 841.556 1172.83C832.012 1200.69 818.586 1222.85 782.961 1240.58C765.948 1249.06 745.68 1248.12 724.896 1248.7C690.756 1249.65 656.425 1250.12 622.412 1249.51Z" stroke="black" stroke-width="5" style="mix-blend-mode:soft-light"/>
<path fill-rule="evenodd" clip-rule="evenodd" d="M613.463 1221.53C505.17 1209.33 387.208 1166.54 324.806 1104.62C251.401 1031.79 189.743 953.036 172.586 866.64C164.631 826.584 160.932 782.751 188.448 745.267C209.376 716.74 240.574 683.665 284.171 668.251C390.807 630.541 474.656 717.281 523.393 766.709C549.631 793.32 575.129 827.123 613.61 847.347C635.922 859.081 665.52 865.233 690.055 874.764C764.405 903.648 824.163 950.635 834.408 1008.59C839.141 1035.39 832.751 1062.28 827.626 1088.79C822.382 1115.93 819.421 1143.42 812.2 1170.37C806.433 1191.88 796.767 1217.2 761.635 1224.83C717.362 1234.45 657.687 1226.51 613.463 1221.53Z" stroke="#489A45" stroke-width="5" style="mix-blend-mode:soft-light"/>
<path fill-rule="evenodd" clip-rule="evenodd" d="M596.294 1194.02C494.533 1176.72 395.437 1141.14 335.121 1082.26C303.137 1051.04 281.188 1014.93 259.493 980.253C234.906 940.949 215.914 899.944 206.685 858.154C195.187 806.121 185.156 721.926 275.304 695.598C364.784 669.467 443.16 738.214 487.811 778.853C516.414 804.907 542.632 832.753 573.934 857.682C590.904 871.199 610.557 881.671 630.5 893.16C685.755 924.915 729.321 969.871 752.385 1015.5C774.743 1059.73 784.331 1114.28 776.398 1160.68C772.988 1180.71 761.957 1194.94 730.905 1200.73C687.738 1208.75 638.33 1201.17 596.294 1194.02Z" stroke="black" stroke-width="5" style="mix-blend-mode:soft-light"/>
<path fill-rule="evenodd" clip-rule="evenodd" d="M569.089 1166.59C479.509 1149.51 397.869 1113.67 344.474 1061.97C284.617 1004.02 251.731 929.793 235.278 861.693C226.54 825.495 202.671 747.007 273.143 729.224C343.615 711.442 412.426 765.279 450.295 796.249C496.185 833.837 540.456 874.316 581.57 914.72C617.318 949.825 653.852 987.269 681.362 1025.19C696.969 1046.58 709.669 1068.83 719.312 1091.68C726.394 1108.59 736.989 1130.12 731.449 1147.74C717.456 1192.18 611.922 1174.76 569.089 1166.59Z" stroke="#F3F3F3" stroke-width="5"/>
<path fill-rule="evenodd" clip-rule="evenodd" d="M542.52 1132.8C373.156 1095.56 290.712 981.653 262.596 872.432C256.069 847.052 232.358 775.856 284.318 762.165C334.696 748.898 393.907 793.047 421.963 813.719C508.899 877.775 573.079 956.529 636.691 1031.18C656.546 1054.48 699.709 1096.57 679.372 1125.08C657.25 1156.03 577.638 1140.51 542.52 1132.8Z" stroke="#489A45" stroke-width="5" style="mix-blend-mode:soft-light"/>
<path fill-rule="evenodd" clip-rule="evenodd" d="M510.2 1095.91C385.518 1063.73 314.655 972.747 291.769 889.47C286.17 869.073 268.631 817.24 303.639 802.142C336.023 788.169 382.46 822.617 400.92 835.514C442.026 864.227 475.798 898.123 508.251 931.601C538.276 962.555 569.057 993.847 594.395 1026.36C607.732 1043.49 636.23 1075.64 615.23 1094.78C592.638 1115.38 537.885 1103.05 510.2 1095.91Z" stroke="#489A45" stroke-width="5" style="mix-blend-mode:soft-light"/>
<path fill-rule="evenodd" clip-rule="evenodd" d="M474.051 1055.27C392.659 1030.86 340.234 966.983 323.124 910.892C318.53 895.799 306.555 863.16 328.461 850.657C348.635 839.147 377.89 858.248 391.404 866.73C451.304 904.322 504.621 959.066 537.221 1009.08C545.416 1021.65 561.522 1044.27 544.64 1056.98C527.303 1070.02 492.739 1060.87 474.051 1055.27Z" stroke="black" stroke-width="5" style="mix-blend-mode:soft-light"/>
<path fill-rule="evenodd" clip-rule="evenodd" d="M440.159 1012.19C399.757 998.489 369.496 963.349 360.022 934.379C353.36 913.991 359.489 889.61 394.603 907.64C429.449 925.55 461.127 958.489 475.053 986.291C485.673 1007.5 474.863 1023.96 440.159 1012.19Z" stroke="black" stroke-width="5" style="mix-blend-mode:soft-light"/>
<path fill-rule="evenodd" clip-rule="evenodd" d="M711.149 2096.55C631.087 2096.69 547.639 2123.94 466.191 2109.39C399.299 2097.44 394.215 2040.24 364.169 2005.68C340.298 1978.22 297.719 1962.38 256.866 1947.28C220.188 1933.71 182.393 1921.48 146.326 1907.21C123.01 1897.98 77.2053 1882.06 76.55 1862.48C75.9181 1843.73 111.873 1826.86 133.133 1816.16C160.846 1802.21 190.368 1789.89 218.518 1776.35C265.999 1753.55 301.24 1725.98 334.643 1694.37C372.649 1658.38 409.374 1621.79 444.817 1584.58C470.99 1557.19 496.97 1529.61 525.695 1503.31C543.718 1486.82 577.584 1450.36 610.539 1450.48C626.264 1450.54 643.591 1460.5 656.101 1467.22C677.278 1478.59 696.617 1491.51 715.536 1504.47C750.777 1528.6 784.4 1553.73 818.436 1578.6C862.61 1610.87 906.069 1641.7 956.29 1670.17C1008.27 1699.61 1061.99 1727.77 1114.97 1756.48C1150.85 1775.93 1191.18 1795.4 1213.06 1823.19C1240.41 1857.99 1210.99 1886.09 1210.34 1921.04C1209.78 1951.1 1103.92 1947.94 1074.44 1951.49C1044.61 1955.06 1016.79 1963.26 986.894 1966.27C949.571 1970.02 911.423 1969.74 873.727 1970.4C827.62 1971.21 783.731 1971.31 765.864 2003.56C755.712 2021.92 753.434 2041.86 747.282 2060.9C743.289 2073.23 736.443 2096.51 711.149 2096.55Z" stroke="#F3F3F3" stroke-width="5"/>
<path fill-rule="evenodd" clip-rule="evenodd" d="M697.04 2081.64C629.907 2084.2 543.851 2102.05 474.738 2083.83C415.677 2068.26 408.422 2021.15 377.609 1989.2C352.194 1962.83 310.327 1950.81 269.212 1937.38C236.23 1926.59 202.927 1916.13 171.014 1903.94C147.496 1894.96 107.779 1881.21 103.058 1862.93C98.8135 1846.49 134.139 1829.22 152.113 1820.18C178.352 1806.98 206.821 1795.75 234.699 1784.14C283.667 1763.73 327.725 1742.78 363.833 1712.59C400.095 1682.27 427.304 1648.99 455.613 1615.36C477.763 1589.05 500.548 1562.88 526.071 1537.92C545.074 1519.33 569.424 1492.58 603.089 1484.3C629.721 1477.74 673.508 1512.59 688.98 1522.89C720.792 1544.09 750.634 1566.53 780.29 1589C816.428 1616.39 847.992 1644.61 889.278 1668.89C963.091 1712.31 1055.17 1748.88 1109.82 1804.39C1142.78 1837.87 1150.96 1874.87 1145.65 1911.74C1143.55 1926.33 1112.16 1929.56 1093.85 1931.24C1063.44 1934.04 1032.52 1934.14 1001.99 1936.23C973.41 1938.18 946.231 1942.84 918.188 1946.53C889.776 1950.28 860.691 1951.14 832.093 1953.82C814.339 1955.49 793.681 1957.1 779.35 1964.95C764.514 1973.06 758.206 1986.61 753.401 1998.46C744.462 2020.71 744.417 2079.84 697.04 2081.64Z" stroke="black" stroke-width="5" style="mix-blend-mode:soft-light"/>
<path fill-rule="evenodd" clip-rule="evenodd" d="M669.118 2062.37C607.473 2067.12 530.687 2073.86 474.128 2051.76C427.882 2033.7 418.207 1995.98 388.212 1968.82C363.268 1946.24 323.354 1937.44 286.291 1926.01C255.891 1916.63 225.358 1907.2 196.451 1895.91C174.528 1887.34 144.799 1876.29 137.273 1859.6C130.842 1845.33 160.36 1829.54 175.051 1821.79C200.088 1808.6 228.105 1797.91 255.753 1787.29C300.993 1769.93 349.294 1754 386.189 1729.04C421.991 1704.79 443.256 1675.78 467.137 1646.26C485.434 1623.64 504.427 1601.17 526.196 1579.9C542.9 1563.57 562.703 1543.32 590.33 1534.98C614.156 1527.77 642.111 1547.08 658.788 1556.76C686.312 1572.73 711.535 1590.42 736.863 1607.86C764.186 1626.68 789.361 1647.49 817.367 1665.72C876.302 1704.05 941.657 1734.84 986.651 1781.84C1015.8 1812.28 1042.16 1853.12 1037.03 1888.75C1033.34 1914.37 947.067 1911.92 919.473 1914.13C874.356 1917.78 826.92 1925.18 785.283 1937.24C749.604 1947.6 738.405 1972.86 730.215 1996.12C725.075 2010.69 722.233 2025.99 714.361 2040.06C705.24 2056.34 694.958 2060.38 669.118 2062.37Z" stroke="#489A45" stroke-width="5" style="mix-blend-mode:soft-light"/>
<path fill-rule="evenodd" clip-rule="evenodd" d="M640.404 2044.37C588.298 2047.06 526.721 2045.8 481.854 2024.96C442.555 2006.7 432.45 1974.72 401.568 1951.76C377.475 1933.84 337.996 1926.53 306.01 1916.73C266.901 1904.74 194.623 1887.79 180.128 1858.31C166.653 1830.89 254.54 1803.11 280.759 1793.46C322.259 1778.18 367.733 1765.5 406.097 1746.86C439.126 1730.81 457.499 1709.07 477.24 1686C502.454 1656.59 532.439 1611.86 581.205 1596.45C617.543 1584.96 671.066 1623.85 696.053 1637.19C722.155 1651.14 753.147 1661.74 778.32 1676.13C818.042 1698.82 849.862 1735.3 874.124 1765.4C897.726 1794.67 923.798 1832.63 921.932 1865.58C920.712 1887.23 869.83 1890.9 844.952 1895.3C809.586 1901.61 777.868 1910.13 753.685 1928.83C729.067 1947.86 717.346 1970.44 707.053 1994.21C701.806 2006.4 697.674 2020.33 687.197 2031.19C675.797 2043.19 660.432 2043.33 640.404 2044.37Z" stroke="black" stroke-width="5" style="mix-blend-mode:soft-light"/>
<path fill-rule="evenodd" clip-rule="evenodd" d="M610.592 2022.48C565.602 2021.9 517.685 2014.71 483.159 1994.33C454.401 1977.36 444.972 1951.1 415.563 1934.84C392.281 1921.96 359.495 1915.21 332.402 1906.48C299.201 1895.81 241.17 1880.62 229.845 1854.7C218.822 1829.42 283.082 1807.71 308.517 1798.28C345.812 1784.47 385.312 1773.37 422.506 1759.43C451.686 1748.51 470.551 1735 489.456 1716.97C511.662 1695.79 536.315 1666.2 572.839 1655.1C599.284 1647.11 641.244 1667.41 664.412 1674.85C679.972 1679.84 695.782 1684.41 712.673 1687C725.826 1689.02 738.013 1689.32 749.273 1694.92C777.597 1709.03 781.038 1739.43 790.231 1760.13C802.431 1787.61 816.313 1816.77 818.758 1845.44C820.288 1863.06 795.555 1871.82 778.123 1881.72C757.515 1893.41 742.621 1910.09 727.019 1924.63C706.396 1943.82 693.487 1964.8 680.266 1986.49C674.299 1996.28 668.429 2007.79 656.673 2015.31C644.485 2023.16 626.829 2022.68 610.592 2022.48Z" stroke="#F3F3F3" stroke-width="5"/>
<path fill-rule="evenodd" clip-rule="evenodd" d="M584.085 1999.54C546.329 1995.72 510.31 1984.56 483.762 1966.01C463.378 1951.79 451.998 1933.05 427.458 1921.56C404.582 1910.86 378.53 1903.31 354.049 1894.43C328.167 1885.02 284.893 1871 278.016 1849.78C270.611 1826.9 314.542 1809.72 338.891 1800.21C369.66 1788.19 402.731 1779.15 434.545 1768.44C458.258 1760.38 479.972 1750.01 498.964 1737.69C518.984 1724.77 538.205 1707.17 565.633 1700.79C589.926 1695.15 619.155 1706.37 643.717 1708.52C669.959 1710.83 697.575 1707.45 720.022 1719.12C766.314 1743.2 757.161 1802.51 757.853 1836.47C758.579 1869.98 729.884 1896.66 702.571 1923.52C684.539 1941.27 669.237 1959.78 652.421 1977.99C635.263 1996.55 617.312 2002.89 584.085 1999.54Z" stroke="#489A45" stroke-width="5" style="mix-blend-mode:soft-light"/>
<path fill-rule="evenodd" clip-rule="evenodd" d="M562.645 1978.25C507.995 1967.47 479.186 1935.08 438.022 1911.75C404.322 1892.65 334.311 1877.93 325.316 1846.2C315.106 1810.17 408.228 1789.49 444.198 1777.31C484.09 1763.81 516.658 1739.41 558.848 1729.51C580.992 1724.31 601.569 1729.13 623.628 1732.2C647.851 1735.57 672.625 1738.16 692.048 1749.21C730.271 1770.95 729.632 1812.75 730.421 1842.87C731.241 1874.04 704.671 1901.38 678.177 1925.98C650.12 1952.06 618.689 1989.28 562.645 1978.25Z" stroke="#489A45" stroke-width="5" style="mix-blend-mode:soft-light"/>
<path fill-rule="evenodd" clip-rule="evenodd" d="M547.955 1960.89C509.056 1948.95 477.566 1924.3 447.809 1904.27C423.003 1887.55 372.926 1869.36 369.57 1844.17C365.61 1814.57 419.411 1797.13 452.406 1785.79C484.828 1774.63 519.1 1758.44 554.629 1752.41C591.639 1746.13 641.247 1764.18 667.245 1781.2C696.235 1800.19 706.735 1830.92 705.338 1857.2C703.909 1884.71 679.587 1909.76 654.406 1930.38C627.489 1952.43 593.111 1974.77 547.955 1960.89Z" stroke="#F3F3F3" stroke-width="5"/>
<path fill-rule="evenodd" clip-rule="evenodd" d="M540.755 1944.83C508.414 1933.47 481.144 1914.03 456.824 1896.12C438.048 1882.29 406.095 1861.85 405.484 1842.14C404.808 1820.46 431.944 1802.33 459.666 1793.96C487.01 1785.71 521.276 1777.06 551.202 1776.06C616.371 1773.88 688.843 1830.75 682.529 1872.91C676.54 1912.88 605.191 1967.49 540.755 1944.83Z" stroke="#489A45" stroke-width="5" style="mix-blend-mode:soft-light"/>
<path fill-rule="evenodd" clip-rule="evenodd" d="M537.31 1930.01C495.18 1914.36 435.255 1876.72 434.13 1842.36C432.846 1802.92 499.987 1793.62 548.534 1799.19C598.082 1804.85 669.462 1850.95 659.439 1887.11C649.659 1922.4 587.274 1948.56 537.31 1930.01Z" stroke="black" stroke-width="5" style="mix-blend-mode:soft-light"/>
<path fill-rule="evenodd" clip-rule="evenodd" d="M530.615 1914.34C495.341 1901.09 451.385 1873.1 450.304 1844.31C449.027 1810 505.632 1811.15 540.798 1819.24C577.309 1827.65 639.475 1863.83 629.342 1893.77C619.45 1922.89 564.422 1927.04 530.615 1914.34Z" stroke="#F3F3F3" stroke-width="5"/>
<path fill-rule="evenodd" clip-rule="evenodd" d="M526.663 1900.71C501.488 1891.95 469.763 1870.3 468.923 1849.98C467.917 1825.14 512.775 1830.37 534.39 1836.97C560.11 1844.83 604.691 1870.78 597.238 1892.17C589.901 1913.22 547.406 1907.94 526.663 1900.71Z" stroke="#489A45" stroke-width="5" style="mix-blend-mode:soft-light"/>
<path fill-rule="evenodd" clip-rule="evenodd" d="M1979.82 745.726C2030 801.127 2071.26 863.619 2113.25 922.577C2174.59 1008.73 2234.25 1096.14 2279.72 1186.5C2304.09 1234.95 2339.28 1297.75 2319.39 1349.33C2312.12 1368.18 2290.49 1385.24 2276.38 1402.08C2256.93 1425.3 2238.43 1448.87 2219.88 1472.41C2182.71 1519.61 2145.91 1566.96 2106.39 1613.33C2087.36 1635.65 2063.44 1657.27 2047.16 1680.54C2037.64 1694.14 2041.89 1710.56 2042.36 1725.19C2043.44 1759.07 2045.76 1792.95 2047.69 1826.82C2050.05 1868.25 2052.58 1909.78 2051.14 1951.22C2050.48 1969.91 2055.11 2015.75 2030.55 2025.82C2017.32 2031.24 1993.67 2017.98 1982.73 2011.83C1962.62 2000.54 1944.53 1987.61 1926.62 1974.85C1885.19 1945.34 1845.77 1914.04 1799.43 1887.73C1775.62 1874.21 1746.53 1856.51 1713.77 1864.91C1680.69 1873.38 1651.97 1888.32 1618.99 1897.29C1581.05 1907.62 1541.62 1911.7 1501.43 1916.38C1471.73 1919.84 1445.37 1928.3 1417.95 1936.22C1387.64 1944.98 1357.07 1954.05 1325.14 1960.03C1304.04 1963.99 1266.1 1970.33 1252.89 1955.73C1234.12 1934.97 1249.81 1896.51 1255.61 1873.09C1263.6 1840.73 1273.71 1808.63 1282.45 1776.36C1288.81 1752.94 1295.76 1729.44 1296.69 1705.58C1298.19 1667.11 1294.53 1628.47 1291.14 1590.06C1284.87 1518.93 1276.13 1448.29 1276.77 1376.99C1277.32 1314.52 1388.43 1171.14 1408.07 1137.52C1447.27 1070.42 1484.48 1001.5 1536.41 938.136C1550.47 920.994 1569.23 894.584 1597.93 885.754C1615.62 880.307 1625.79 882.974 1637.27 869.856C1652.94 851.958 1659.23 828.905 1666.35 809.002C1677.8 776.95 1687.55 744.632 1697.95 712.422C1718.94 647.274 1742.59 582.595 1765.38 517.733C1772.26 498.125 1773.96 474.343 1785.95 455.698C1793.65 443.679 1803.2 445.018 1814.66 454.476C1834.76 471.067 1845.8 494.166 1857.17 513.654C1873.84 542.207 1888.68 571.209 1903.3 600.223C1917.92 629.236 1932.08 658.394 1946.73 687.422C1956.38 706.597 1964.17 728.433 1979.82 745.726Z" stroke="#F3F3F3" stroke-width="5"/>
<path fill-rule="evenodd" clip-rule="evenodd" d="M1968.28 790.845C2018.52 849.423 2058.39 914.305 2097.29 976.856C2147.11 1056.91 2193.75 1138.74 2224.59 1222.9C2242.68 1272.31 2262.62 1330.6 2240.92 1380.73C2233.18 1398.61 2216.01 1411.87 2200.83 1427.13C2183.51 1444.51 2167.62 1462.59 2151.97 1480.66C2119.76 1517.88 2088.64 1555.49 2058.6 1593.51C2042.62 1613.65 2021.28 1635.79 2015.59 1658.65C2011.07 1676.83 2017.19 1697.57 2018.87 1715.88C2021.88 1748.86 2024.99 1781.83 2027.59 1814.82C2030.59 1852.89 2033.33 1891.06 2032.45 1929.17C2031.97 1950.41 2036.56 1986.92 2015.56 2001.76C1997.24 2014.71 1931.82 1966.4 1919.39 1957.89C1880.57 1931.34 1843.62 1903.44 1802.07 1878.67C1777.57 1864.04 1747.78 1846.22 1715.19 1839.85C1687.41 1834.43 1655.63 1844.13 1629.86 1849.79C1597.58 1856.88 1564.13 1862.53 1532.52 1870.82C1504.36 1878.2 1479.22 1890.12 1453.58 1900.56C1425.38 1912.04 1396.72 1923.66 1365.99 1932.1C1347.08 1937.27 1315.41 1945.82 1297.53 1935.05C1276.91 1922.62 1290.79 1884.97 1293.89 1869.48C1300.24 1838.04 1309.55 1806.87 1317.92 1775.67C1331.8 1723.84 1343.98 1674.42 1341.64 1621.5C1338.58 1552.58 1330.56 1483.69 1326.39 1414.77C1324.83 1389.32 1321.47 1363.45 1323.63 1338.02C1324.88 1323.43 1331.75 1312.38 1347.11 1304.03C1368.06 1292.63 1379.85 1266.04 1391.98 1247.58C1410.88 1218.8 1428.49 1189.64 1446.31 1160.56C1485.47 1096.74 1523.24 1031.66 1573.69 971.251C1589.64 952.138 1607.44 930.249 1633.64 916.24C1648.25 908.422 1662.24 910.551 1677.74 905.838C1698.13 899.597 1707.49 878.563 1714.25 866C1727.32 841.754 1736.15 816.472 1744.44 791.38C1763.2 734.605 1775.7 677.639 1785.05 619.855C1787.23 606.314 1794.81 552.981 1828.84 581.33C1866.44 612.653 1884.6 657.56 1905.62 694.227C1924.52 727.259 1942.08 760.306 1968.28 790.845Z" stroke="#F3F3F3" stroke-width="5"/>
<path fill-rule="evenodd" clip-rule="evenodd" d="M1958.17 871.09C2002.35 926.124 2035.13 986.945 2066.48 1046.07C2104.52 1117.82 2138.34 1191.32 2156.99 1266.38C2168.69 1313.54 2177.54 1365.49 2156.98 1412.03C2142.95 1443.82 2105.56 1468.18 2079.73 1495.97C2053.91 1523.77 2029.64 1552.72 2009.37 1582.57C1996.78 1601.1 1984.09 1621.04 1985.55 1641.8C1989.07 1692.26 1998.1 1742.71 2002.25 1793.24C2005.03 1826.66 2007.26 1860.15 2006.2 1893.64C2005.57 1913.83 2007.17 1941.6 1990.86 1959.34C1972.83 1978.95 1821.29 1872.33 1804.22 1862.23C1761.41 1836.91 1704.56 1806.2 1643.32 1810.47C1584.78 1814.57 1540.92 1834.17 1494.88 1856.37C1468.69 1868.97 1398.66 1909.5 1364.89 1893.94C1345.58 1885.06 1352.55 1856.4 1353.99 1842.77C1356.83 1815.91 1362.66 1789.22 1367.76 1762.52C1375.14 1723.59 1386.37 1683.62 1389.91 1644.49C1392.36 1617.23 1389.65 1589.78 1389.83 1562.46C1390.1 1523.29 1390.9 1484.12 1391.78 1444.95C1392.52 1412.07 1392.37 1378.9 1397.45 1346.17C1400.59 1325.82 1407.35 1310.41 1426.21 1295.96C1442.62 1283.39 1452.33 1264.29 1462.83 1248.18C1480.17 1221.56 1496.26 1194.58 1512.61 1167.69C1546.84 1111.39 1580.38 1054.43 1623.01 1000.63C1642.46 976.07 1669.76 934.729 1716.44 929.343C1733.27 927.4 1740.55 925.925 1750.2 915.204C1763.91 899.988 1770.19 881.673 1775.66 864.513C1788.41 824.508 1786.93 783.214 1799.54 743.275C1804.73 727.01 1815.82 705.814 1840.62 724.656C1869.61 746.642 1885.38 778.411 1903.18 804.6C1912.06 817.674 1920.36 831.134 1931.23 843.571C1939.61 853.121 1950.39 861.329 1958.17 871.09Z" stroke="#489A45" stroke-width="5" style="mix-blend-mode:soft-light"/>
<path fill-rule="evenodd" clip-rule="evenodd" d="M1943.31 974.447C1979.13 1025.25 2005.02 1080.3 2028.31 1134.35C2054.15 1194.38 2075.45 1255.81 2084.19 1317.94C2090.25 1360.84 2091.74 1406.51 2071.67 1447.92C2058.96 1474.1 2032.58 1491.7 2010.39 1514.13C1976.85 1547.98 1950.19 1584.7 1956.24 1625.79C1962.99 1671.85 1967.96 1718.05 1971.14 1764.38C1973.05 1792.33 1974.43 1820.38 1972.67 1848.33C1971.57 1866 1969.77 1888.76 1957.46 1904.03C1940.98 1924.47 1817.65 1846.06 1799.66 1836.27C1755.04 1811.97 1708.16 1794.03 1652.71 1783.3C1607.46 1774.55 1571.68 1791.29 1537.62 1808.58C1516.47 1819.33 1463.2 1854.19 1435.96 1842.88C1420.94 1836.68 1421.9 1816.69 1421.22 1805.94C1419.95 1785.46 1421.65 1764.91 1422.5 1744.45C1423.8 1714.23 1417.03 1681.99 1422.97 1652.07C1436.14 1585.76 1447.61 1519.6 1456.83 1452.84C1461.9 1416.04 1466.54 1379.01 1476.02 1342.58C1479.42 1329.5 1483.02 1315.99 1490.57 1303.64C1495.42 1295.69 1503.59 1291.41 1510.33 1284.73C1542.39 1252.86 1559.11 1211.04 1579.8 1175.01C1607.3 1127.12 1634.39 1078.96 1666.79 1032.39C1683.83 1007.89 1703.46 973.644 1737.95 956.992C1748.37 951.96 1756.65 954.219 1766.65 951.085C1778.18 947.479 1781.71 936.242 1784.98 928.995C1792.41 912.547 1804.04 843.524 1846.47 875.758C1866.68 891.138 1879.56 910.619 1895.4 927.895C1901.13 934.15 1906.9 940.251 1914.67 945.492C1927.7 954.26 1935.1 962.849 1943.31 974.447Z" stroke="black" stroke-width="5" style="mix-blend-mode:soft-light"/>
<path d="M544.57 2.81787C829.228 4.34807 1013.79 112.167 1058.69 246.638C1103.59 381.11 1057.13 537.605 1056.44 665.336C1055.76 793.066 842.621 905.243 539.728 903.615C236.835 901.987 -5.4973 787.614 25.6042 659.794C56.7057 531.975 -3.30117 379.076 27.8549 241.097C59.011 103.119 259.912 1.28767 544.57 2.81787Z" fill="#489A45"/>
<path d="M544.57 2.81787C829.228 4.34807 1013.79 112.167 1058.69 246.638C1103.59 381.11 1057.13 537.605 1056.44 665.336C1055.76 793.066 842.621 905.243 539.728 903.615C236.835 901.987 -5.4973 787.614 25.6042 659.794C56.7057 531.975 -3.30117 379.076 27.8549 241.097C59.011 103.119 259.912 1.28767 544.57 2.81787Z" stroke="black" stroke-width="5" style="mix-blend-mode:soft-light"/>
<path d="M761.128 584.22C788.391 609.188 827.228 603.708 854.978 574.491C882.728 545.275 877.164 499.562 844.982 480.669C812.8 461.776 777.314 462.448 751.132 490.398C724.95 518.348 733.865 559.253 761.128 584.22Z" fill="#489A45"/>
<path d="M761.128 584.22C788.391 609.188 827.228 603.708 854.978 574.491C882.728 545.275 877.164 499.562 844.982 480.669C812.8 461.776 777.314 462.448 751.132 490.398C724.95 518.348 733.865 559.253 761.128 584.22Z" stroke="black" stroke-width="5" style="mix-blend-mode:soft-light"/>
<path d="M577.927 323.366C637.456 377.995 723 365.196 784.581 300.191C846.161 235.186 834.745 134.365 764.283 93.235C693.822 52.1054 615.737 54.2293 557.629 116.41C499.521 178.59 518.397 268.737 577.927 323.366Z" fill="#489A45"/>
<path d="M577.927 323.366C637.456 377.995 723 365.196 784.581 300.191C846.161 235.186 834.745 134.365 764.283 93.235C693.822 52.1054 615.737 54.2293 557.629 116.41C499.521 178.59 518.397 268.737 577.927 323.366Z" stroke="black" stroke-width="5" style="mix-blend-mode:soft-light"/>
<path d="M194.43 769.725C239.574 811.112 304.175 801.71 350.514 752.855C396.853 704 387.928 627.909 334.564 596.674C281.201 565.439 222.204 566.81 178.481 613.545C134.757 660.28 149.287 728.339 194.43 769.725Z" fill="#489A45"/>
<path d="M194.43 769.725C239.574 811.112 304.175 801.71 350.514 752.855C396.853 704 387.928 627.909 334.564 596.674C281.201 565.439 222.204 566.81 178.481 613.545C134.757 660.28 149.287 728.339 194.43 769.725Z" stroke="black" stroke-width="5" style="mix-blend-mode:soft-light"/>
<path d="M719.671 595.286C713.514 605.747 717.925 617.847 729.203 624.765C740.482 631.683 754.784 626.775 758.655 615.149C762.526 603.523 759.888 592.172 749.123 585.671C738.358 579.169 725.829 584.825 719.671 595.286Z" fill="#489A45"/>
<path d="M719.671 595.286C713.514 605.747 717.925 617.847 729.203 624.765C740.482 631.683 754.784 626.775 758.655 615.149C762.526 603.523 759.888 592.172 749.123 585.671C738.358 579.169 725.829 584.825 719.671 595.286Z" stroke="black" stroke-width="5" style="mix-blend-mode:soft-light"/>
<path d="M488.03 347.643C481.872 358.104 486.283 370.203 497.562 377.122C508.84 384.04 523.142 379.132 527.013 367.506C530.884 355.88 528.246 344.528 517.481 338.027C506.717 331.526 494.188 337.182 488.03 347.643Z" fill="#489A45"/>
<path d="M488.03 347.643C481.872 358.104 486.283 370.203 497.562 377.122C508.84 384.04 523.142 379.132 527.013 367.506C530.884 355.88 528.246 344.528 517.481 338.027C506.717 331.526 494.188 337.182 488.03 347.643Z" stroke="black" stroke-width="5" style="mix-blend-mode:soft-light"/>
</svg>
