<svg width="1480" height="2130" viewBox="0 0 1480 2130" fill="none" xmlns="http://www.w3.org/2000/svg">
<path fill-rule="evenodd" clip-rule="evenodd" d="M930.134 1592.16C930.123 1608.68 963.692 1627.07 978.022 1636.57C1006.36 1655.36 1035.84 1672.69 1065.04 1690.31C1094.25 1707.92 1123.53 1725.48 1151.37 1744.84C1169.44 1757.41 1190.68 1771.56 1202.88 1789.58C1228.88 1827.98 1146.25 1822.71 1124.84 1823.67C1070.35 1826.12 1007.88 1825.48 956.709 1845.83C926.16 1857.98 913.891 1878.15 920.268 1907.4C922.324 1916.91 928.506 1927.84 923.162 1937.15C917.455 1947.09 904.424 1952.88 893.615 1956.77C854.188 1970.96 808.939 1972.83 767.299 1974.81C722.397 1976.98 677.087 1976.67 632.512 1977.06C613.611 1977.23 593.836 1983.54 575.809 1988.68C552.175 1995.41 528.817 2002.96 505.375 2010.26C453.805 2026.29 400.664 2043.16 346.176 2047.46C312.053 2050.15 274.793 2046.97 248.422 2025.33C235.182 2014.46 228.312 1998.23 220.704 1983.82C211.495 1966.42 202.655 1948.84 192.842 1931.72C161.231 1876.56 115.955 1822.73 41.9778 1820.42C30.7864 1820.07 19.7855 1821.47 8.64316 1821.78C1.54732 1821.97 -4.75791 1820.44 -7.35638 1813.68C-13.8892 1796.71 7.10723 1769.76 15.7305 1756.22C34.6113 1726.59 55.874 1698.27 75.8064 1669.22C88.9935 1650.01 111.779 1623.74 112.151 1600.48C112.481 1579.76 82.3941 1564.96 66.0264 1554.84C50.6888 1545.37 22.8766 1532.15 21.3005 1512.73C20.5372 1503.31 27.387 1495.46 34.5274 1489.36C47.0429 1478.69 61.4342 1471.14 72.7081 1458.98C91.1954 1439.04 106.703 1411.66 104.362 1384.94C102.739 1366.42 91.2349 1354.35 76.5791 1342.84C70.4195 1337.99 65.4175 1334.57 65.1361 1326.66C64.681 1314.09 70.1488 1300.76 74.6575 1289.08C90.7863 1247.28 113.585 1206.83 138.906 1169.03C151.559 1150.14 165.219 1131.31 181.943 1115.16C192.897 1104.56 207.66 1091.94 224.277 1091.86C243.515 1091.75 263.835 1097.98 282.508 1102.62C317.383 1111.29 351.828 1121.34 386.134 1131.66C465.472 1155.54 544.051 1181.39 621.871 1209.21C676.685 1228.84 732.665 1248.49 784.155 1274.71C794.197 1279.86 803.668 1285.87 812.441 1292.67C821.816 1299.81 833.481 1302.97 845.315 1305.3C918.764 1319.79 999.391 1307.92 1073.27 1300.34C1092.02 1298.42 1110.78 1296.49 1129.58 1295.12C1145.74 1293.94 1165.11 1290.69 1180.78 1295.32C1211.67 1304.43 1184.42 1338.76 1172.91 1352.75C1132.36 1402.01 1080.17 1443.79 1031.78 1486.41C1008.77 1506.71 985.585 1526.96 963.813 1548.39C952.477 1559.54 930.144 1577.68 930.134 1592.16Z" stroke="black" stroke-width="5" style="mix-blend-mode:soft-light"/>
<path fill-rule="evenodd" clip-rule="evenodd" d="M916.243 1595.02C928.483 1612.44 950.062 1625.24 967.966 1637.3C993.73 1654.66 1020.31 1671.05 1046.49 1687.91C1071.25 1703.86 1096.05 1720 1118.96 1738.14C1132.92 1749.2 1150.45 1762.42 1157 1778.86C1171.21 1814.49 1093.69 1809.5 1074.54 1810.54C1026.93 1813.11 972.96 1813.94 928.817 1832.98C901.253 1844.87 889.845 1864.4 895.553 1891.4C897.527 1900.74 901.133 1908.71 896.456 1918.04C891.046 1928.84 878.708 1935.62 867.406 1940.42C832.001 1955.46 790.233 1958.84 751.932 1961.68C712.363 1964.61 671.142 1966.74 632.872 1964.97C617.569 1964.26 599.923 1968.84 584.753 1972.37C561.412 1977.79 538.304 1984.03 515.076 1989.84C467.871 2001.66 419.444 2013.06 370.398 2014.59C334.988 2015.7 298.103 2010.94 268.759 1991.93C239.02 1972.65 225.949 1942.59 209.56 1914.03C181.256 1864.66 142.99 1804.64 76.9084 1794.54C66.8881 1793.01 57.2442 1793.92 47.2276 1793.59C42.0767 1793.42 36.2157 1792.83 33.6295 1788.2C26.9158 1776.2 45.6288 1754.08 51.9372 1744.83C69.3664 1719.25 88.9368 1694.9 107.192 1669.81C121.691 1649.88 140.05 1627.73 145.75 1604.17C152.665 1575.59 108.669 1555.52 93.2704 1535.5C66.5763 1500.79 117.646 1480.65 142.863 1463.89C171.821 1444.66 195.833 1409.72 170.143 1380.34C160.316 1369.1 148.182 1362.44 143.849 1347.73C137.072 1324.73 142.449 1298.38 148.186 1275.57C156.83 1241.29 170.39 1207.35 188.738 1176.31C201.883 1154.08 223.678 1119.23 255.287 1121.66C276.566 1123.28 298.172 1129.51 318.869 1135.02C349.859 1143.25 380.452 1152.66 410.879 1162.44C481.117 1184.96 550.566 1209.83 618.632 1237.24C665.076 1255.94 794.485 1332.71 804.24 1335.42C833.325 1343.5 866.457 1341.87 896.5 1340.43C936.464 1338.51 976.243 1333.9 1015.99 1329.61C1034.91 1327.58 1053.92 1325.12 1072.94 1324.07C1086.47 1323.32 1104.24 1322.65 1116.05 1329.76C1139.1 1343.65 1113.15 1375.84 1102.41 1389.46C1069.52 1431.22 1028.02 1467.45 989.08 1504.47C969.972 1522.65 950.575 1540.8 933.212 1560.42C926.209 1568.34 908.677 1584.27 916.243 1595.02Z" stroke="#489A45" stroke-width="5" style="mix-blend-mode:soft-light"/>
<path fill-rule="evenodd" clip-rule="evenodd" d="M899.117 1604.08C932.62 1638.88 978.989 1664.64 1018.97 1693.64C1039.04 1708.2 1059.23 1723.15 1076.51 1740.53C1085.5 1749.56 1096.72 1760.99 1098.39 1773.65C1102.85 1807.5 1032.97 1803.3 1012.04 1804.7C971.58 1807.42 925.873 1809.56 889.077 1827.06C866.595 1837.75 855.454 1855.15 859.513 1877.93C861.313 1888.04 864.155 1896.62 859.348 1906.57C854.477 1916.66 844.408 1923.82 834.222 1929.2C804.953 1944.67 768.66 1949.76 735.784 1953.59C697.217 1958.05 658.376 1959.92 619.573 1959.19C585.588 1958.56 551.709 1967.9 518.487 1974.12C474.476 1982.35 429.674 1989.58 384.691 1988.77C349.165 1988.13 313.393 1981.74 283.119 1964.41C252.357 1946.75 233.954 1920.17 217.388 1891.48C192.347 1848.1 161.164 1789.95 105.773 1773.73C97.7165 1771.37 90.197 1771.14 81.8762 1770.77C77.8345 1770.59 72.615 1770.56 70.6316 1766.72C65.861 1757.48 83.7985 1739.41 88.8117 1733.12C104.813 1713.04 122.145 1693.86 138.541 1674.04C153.848 1655.54 170.515 1636.26 180.081 1614.62C195.306 1580.17 147.382 1560.34 148.916 1527.58C149.873 1507.24 171.285 1492.54 188.232 1482.36C209.099 1469.84 239.087 1461.52 249.625 1438.83C257.476 1421.93 245.367 1412.18 236.072 1399.44C220.321 1377.85 219.409 1348.47 221.205 1323.37C223.628 1289.45 232.529 1254.99 247.524 1223.74C254.319 1209.57 262.626 1194.83 274.797 1183.79C286.199 1173.44 296.949 1170.75 312.095 1172.77C358.461 1178.97 405.209 1196.71 449.615 1212.53C505.407 1232.42 560.417 1254.41 613.764 1279.2C650.141 1296.11 687.336 1314 719.215 1337.46C727.524 1343.58 736.03 1350.22 742.085 1358.32C746.662 1364.4 748.591 1369.43 756.346 1372.88C779.329 1383.08 811.398 1380.21 836.094 1379C875.582 1377.07 914.897 1372.3 954.157 1367.99C977.066 1365.45 1020.24 1357.64 1038.42 1375.71C1054.11 1391.32 1034.91 1418.19 1025.11 1432.07C1000.3 1467.16 968.47 1498.02 938.922 1529.78C925.38 1544.33 911.31 1559 900.102 1575.16C897.238 1579.28 892.657 1584.75 891.848 1589.74C890.939 1595.45 895.004 1599.79 899.117 1604.08Z" stroke="black" stroke-width="5" style="mix-blend-mode:soft-light"/>
<path fill-rule="evenodd" clip-rule="evenodd" d="M896.266 1595.95C927.232 1626.71 964.607 1651.92 997.875 1680.68C1012.79 1693.58 1027.85 1707.11 1039.18 1722.88C1045.28 1731.36 1051.74 1742.04 1049.99 1752.63C1044.95 1783.03 987.476 1780.6 964.24 1782.51C929.712 1785.31 890.049 1788.16 859.439 1804.7C839.386 1815.54 831.799 1831.42 835.414 1851.83C839.294 1873.73 830.244 1889.68 809.788 1902.02C784.14 1917.48 751.841 1923.9 722.138 1928.5C686.353 1934.01 650.132 1936.57 613.916 1936.13C578.695 1935.71 544.537 1941.29 509.525 1944.98C463.104 1949.88 415.208 1952.43 369.391 1943.17C329.5 1935.1 293.53 1917.04 266.65 1888.94C238.574 1859.62 224.805 1822.56 202.057 1790.08C187.869 1769.82 168.075 1743.02 141.39 1735.26C132.489 1732.68 116.221 1736.32 123.417 1723.31C127.529 1715.87 135.184 1709.32 141.236 1703.22C151.016 1693.37 161.117 1683.78 171.059 1674.06C192.25 1653.34 214.938 1632.17 230.872 1607.69C250.95 1576.86 221.505 1553.38 225.289 1522.21C227.323 1505.44 240.164 1491.99 253.728 1481.41C262.503 1474.55 272.097 1468.6 281.889 1463.05C292.115 1457.25 304.202 1452.8 313.134 1445.33C325.864 1434.68 320.436 1422.2 318.139 1408.54C314.096 1384.55 313.319 1360.15 315.823 1335.92C318.887 1306.21 325.846 1275.63 340.291 1248.57C345.91 1238.04 353.016 1226.86 363.513 1219.76C374.011 1212.66 384.824 1213.08 396.795 1215.14C432.3 1221.21 467.683 1235.6 501.319 1249.23C543.417 1266.31 584.675 1285.42 624.054 1307.2C651.236 1322.23 678.501 1338.49 701.196 1358.95C707.797 1364.91 714.074 1371.29 719.137 1378.43C722.614 1383.32 724.456 1389.65 729.513 1393.31C745.336 1404.75 777.254 1401.14 795.892 1400.37C833.088 1398.83 869.727 1392.28 906.877 1390.53C927.152 1389.57 958.91 1387.28 973.705 1402.96C987.619 1417.69 974.805 1441.1 966.356 1455.42C949.751 1483.58 927.516 1508.7 907.565 1534.9C899.364 1545.68 890.378 1556.97 885.034 1569.25C880.284 1580.2 888.33 1588.07 896.266 1595.95Z" stroke="#489A45" stroke-width="5" style="mix-blend-mode:soft-light"/>
<path fill-rule="evenodd" clip-rule="evenodd" d="M888.609 1595.49C913.242 1622.57 942.988 1646.57 967.797 1674.09C982.32 1690.21 1007.33 1717.31 995.898 1740.21C983.353 1765.37 940.125 1766.29 915.128 1768.45C885.377 1771.02 850.436 1774.5 824.897 1790.31C816.819 1795.31 809.925 1801.9 806.969 1810.55C803.804 1819.81 807.159 1827.88 807.549 1837.13C808.365 1856.54 795.585 1872.19 778.73 1882.98C754.908 1898.24 725.187 1905.56 697.125 1910.7C665.332 1916.5 633.028 1919.45 600.676 1919.51C569.758 1919.58 539.163 1920.38 508.208 1921.27C467.727 1922.46 426.69 1921.13 387.484 1911.52C348.862 1902.06 313.802 1884.12 286.333 1857.6C259.536 1831.71 241.539 1800 225.802 1767.68C216.873 1749.33 201.767 1721.93 180.269 1712.76C170.709 1708.67 161.303 1709.01 171.555 1698.2C184.466 1684.59 201.824 1673.63 216.754 1661.96C238.29 1645.13 260.367 1627.97 278.478 1608C290.044 1595.24 295.237 1582.9 294.54 1566.48C294 1553.96 291.297 1541.59 292.773 1529.02C296.229 1499.51 321.784 1479.15 344.382 1460.19C358.92 1448 372.186 1438.69 379.732 1421.42C388.658 1401.01 392.483 1378.83 398.491 1357.66C405.091 1334.4 412.699 1310.21 426.931 1289.68C439.6 1271.41 454.927 1263.16 477.769 1267.94C513.396 1275.39 548.447 1294.03 580.014 1311.28C612.144 1328.82 643.707 1348.58 670.277 1372.8C684.621 1385.88 694.374 1401.27 707.099 1415.33C723.105 1432.99 759.585 1426.07 781.25 1424.45C817.215 1421.76 930.443 1402.48 919.657 1462.97C915.155 1488.22 897.863 1511.59 885.187 1533.92C879.933 1543.19 872.343 1554.32 871.106 1564.91C869.758 1576.45 881.203 1587.34 888.609 1595.49Z" stroke="#F3F3F3" stroke-width="5"/>
<path fill-rule="evenodd" clip-rule="evenodd" d="M875.534 1593.25C894.335 1617.81 916.873 1640.99 932.974 1667.54C943.42 1684.73 953.642 1707.73 939.934 1726.06C924.462 1746.74 890.58 1751.73 865.689 1754.49C840.044 1757.34 809.435 1759.78 788.398 1775.51C781.705 1780.52 776.172 1787.26 775.103 1795.3C774.073 1803.02 776.812 1810.71 775.844 1818.56C773.676 1836.19 761.893 1850.77 746.748 1861.38C701.948 1892.77 635.496 1900.06 581.654 1901.17C554.705 1901.73 526.984 1899.75 499.871 1898.38C464.689 1896.6 429.467 1892.55 395.962 1882.52C324.724 1861.2 277.17 1813.31 244.109 1753.57C233.705 1734.76 225.776 1714.4 209.387 1699.33C200.939 1691.55 202.827 1685.92 211.552 1678.74C225.193 1667.51 241.802 1658.89 256.925 1649.5C278.433 1636.14 300.402 1622.58 319.448 1606.62C332.576 1595.61 341.911 1585.03 344.821 1568.62C346.897 1556.92 346.496 1545.01 347.771 1533.24C350.199 1510.88 358.198 1488.66 372.24 1470.05C383.397 1455.3 396.655 1441.88 410.352 1429.07C428.158 1412.4 443.234 1395.48 456.797 1375.74C474.779 1349.6 500.11 1301.43 542.037 1313.91C588.28 1327.68 631.493 1363.08 661.015 1397.45C670.929 1408.99 679.04 1423.16 692.452 1431.64C712.529 1444.31 732.979 1443.75 756.947 1443.56C792.832 1443.29 870.958 1435.75 871.519 1484.84C871.739 1504.28 862.417 1522.72 857.896 1541.45C852.798 1562.43 862.692 1576.51 875.534 1593.25Z" stroke="black" stroke-width="5" style="mix-blend-mode:soft-light"/>
<path fill-rule="evenodd" clip-rule="evenodd" d="M861.436 1591.13C879.989 1623.17 921.703 1675.77 889.539 1711.69C872.549 1730.67 842.65 1737.94 817.578 1742.3C797.401 1745.84 773.085 1747.26 757.771 1761.85C746.516 1772.57 751.396 1788.07 747.03 1801.44C741.612 1818.03 729.316 1831.64 714.244 1841.9C672.125 1870.58 613.74 1879.63 563.26 1881.77C510.833 1883.98 453.13 1875.29 403.905 1858.24C342.529 1836.97 296.69 1796.31 264.767 1744.68C258.877 1735.15 253.531 1725.36 247.879 1715.71C244.081 1709.24 238.431 1702.99 235.447 1696.18C230.48 1684.82 236.463 1675.48 246.012 1668C259.747 1657.24 276.588 1649.55 292.223 1641.44C313.604 1630.35 335.458 1619.45 355.363 1606.47C368.738 1597.73 382.74 1588.32 387.595 1573.27C390.909 1563 391.647 1552.13 391.592 1541.52C391.47 1518.75 392.885 1500.34 404.642 1479.42C423.989 1445.08 453.613 1414.14 484.87 1388.36C509.4 1368.13 548.211 1336.69 583.705 1349.94C615.552 1361.79 634.055 1390.49 654.949 1413.66C665.107 1424.93 676.532 1435.2 689.98 1443.18C706.935 1453.24 722.926 1457.41 743.074 1458.96C776.983 1461.57 828.134 1462.02 838.408 1499.12C842.201 1512.81 839.908 1527.03 841.859 1540.91C844.407 1559.26 852.076 1574.96 861.436 1591.13Z" stroke="black" stroke-width="5" style="mix-blend-mode:soft-light"/>
<path fill-rule="evenodd" clip-rule="evenodd" d="M841.959 1590.04C855.1 1625.15 872.373 1669.38 839.966 1700.82C824.269 1716.05 802.262 1724.64 780.975 1731.08C765.729 1735.7 741.554 1737.16 732.143 1751.16C725.23 1761.45 724.2 1775.61 717.937 1786.63C709.33 1801.79 696.353 1814.31 681.156 1824.14C641.565 1849.74 590.134 1859.83 543.266 1862.9C441.43 1869.55 338.127 1821.57 284.113 1742C268.007 1718.28 247.187 1693.06 273.576 1668.59C302.387 1641.9 345.63 1629.23 379.943 1610.19C393.053 1602.91 409.757 1594.17 417.123 1581.1C421.555 1573.24 421.912 1563.4 422.162 1554.78C422.816 1532.81 424.928 1513.04 434.72 1492.49C449.843 1460.73 473.835 1431.38 500.97 1407.29C524.635 1386.29 558.353 1361.57 592.46 1376.43C618.611 1387.85 635.097 1412.31 655.363 1430.29C677.916 1450.32 705.874 1463.74 736.624 1470.21C766.537 1476.48 799.361 1480.64 814.988 1507.9C820.348 1517.26 825.935 1529.37 827.904 1539.75C831.082 1556.85 835.783 1573.67 841.959 1590.04V1590.04Z" stroke="#F3F3F3" stroke-width="5"/>
<path fill-rule="evenodd" clip-rule="evenodd" d="M820.235 1589.92C826.203 1625.4 826.676 1662.43 797.834 1690.59C784.374 1703.72 767.4 1713.09 750.241 1721.59C737.617 1727.85 724.587 1733.13 715.127 1743.33C706.362 1752.76 699.678 1763.7 691.212 1773.38C680.045 1786.21 666.707 1797.34 651.712 1806.33C614.124 1828.84 568.494 1839.52 524.878 1843.38C503.764 1845.25 480.866 1846.29 459.932 1841.61C439.714 1837.1 419.739 1829.9 401.174 1821.47C361.708 1803.58 327.567 1777.25 302.9 1743.85C285.985 1720.95 276.897 1698.64 299.106 1675.18C324.145 1648.75 363.25 1634.03 395.511 1616.78C417.637 1604.95 442.427 1593.34 446.691 1568.44C450.087 1548.63 452.859 1529.83 461.456 1511.07C474.249 1483.4 492.97 1458.3 516.508 1437.25C538.033 1418.07 565.218 1401.75 595.792 1411.76C620.016 1419.71 638.741 1437.7 659.871 1450.53C683.419 1464.85 709.337 1472.68 736.64 1478.93C761.177 1484.58 784.261 1493.34 800.034 1512.11C803.261 1515.95 806.651 1520.12 809.132 1524.42C812.298 1529.91 812.018 1535.36 812.611 1541.52C814.152 1557.79 817.537 1573.85 820.235 1589.92Z" stroke="black" stroke-width="5" style="mix-blend-mode:soft-light"/>
<path fill-rule="evenodd" clip-rule="evenodd" d="M796.264 1592.95C795.542 1626.69 786.473 1658.63 761.984 1685.05C751.514 1696.36 739.036 1705.69 727.528 1716.06C718.262 1724.42 709.505 1732.19 698.866 1739.09C673.628 1755.44 653.072 1776.53 626.268 1791.12C590.486 1810.62 549.565 1821.51 508.997 1826C489.188 1828.19 468.733 1829.03 448.718 1826.79C431.527 1824.86 415.093 1817.85 399.853 1810.67C369.981 1796.61 341.013 1776.55 321.712 1751.08C279.157 1694.92 363.934 1653.46 407.463 1629.21C427.482 1618.06 458.048 1605.1 466.348 1583.17C472.281 1567.51 475.932 1551.6 483.545 1536.41C503.993 1495.62 545.302 1447.56 599.947 1453.63C623.33 1456.22 644.593 1467.16 666.393 1474.46C688.841 1481.98 712.03 1486.11 735.381 1490.66C757.204 1494.91 774.582 1501.03 788.598 1517.61C795.297 1525.53 794.646 1535.06 795.191 1544.82C796.08 1560.84 796.593 1576.97 796.264 1592.95Z" stroke="black" stroke-width="5" style="mix-blend-mode:soft-light"/>
<path fill-rule="evenodd" clip-rule="evenodd" d="M774.427 1597.39C765.348 1648.36 732.401 1704.14 684.257 1733.98C627.625 1769.08 566.32 1798.71 498.848 1807.5C467.566 1811.57 433.312 1813.68 403.89 1801.07C381.498 1791.49 355.506 1777.11 343.27 1756.76C313.333 1706.99 380.79 1666.87 419.226 1643.56C439.919 1631.01 466.238 1618.74 481.885 1600.49C490.963 1589.91 495.647 1575.96 502.994 1564.35C525.259 1529.18 561.739 1500.71 607.007 1495.41C627.938 1492.96 648.991 1495.73 669.737 1497.92C690.973 1500.15 712.479 1501.31 733.578 1504.47C750.42 1507 770.261 1511.32 776.375 1527.76C784.085 1548.48 778.131 1576.57 774.427 1597.39Z" stroke="#489A45" stroke-width="5" style="mix-blend-mode:soft-light"/>
<path fill-rule="evenodd" clip-rule="evenodd" d="M752.99 1605.69C739.902 1653.64 712.502 1700.49 666.728 1729.32C642.454 1744.61 614.317 1755.23 587.301 1765.71C556.678 1777.59 524.7 1786.86 492.068 1791.55C451.437 1797.39 385.655 1802.82 364.688 1760.7C343.877 1718.89 397.29 1681.49 428.871 1660.17C449.119 1646.51 470.777 1633.96 490.133 1619.04C500.629 1610.96 508.733 1601.64 517.63 1592.17C542.22 1565.95 577.182 1545.1 612.759 1533.88C647.24 1523 689.848 1518.04 726.161 1521.37C741.829 1522.8 753.005 1527.86 757.662 1542.4C764.115 1562.61 758.4 1585.88 752.99 1605.69Z" stroke="black" stroke-width="5" style="mix-blend-mode:soft-light"/>
<path fill-rule="evenodd" clip-rule="evenodd" d="M731.662 1618.7C718.691 1660.93 691.016 1699.58 650.826 1725.1C605.775 1753.71 547.884 1769.78 494.713 1778.09C466.45 1782.5 405.189 1794.38 390.986 1761.43C376.783 1728.47 418.58 1695.69 442.632 1677.64C471.823 1655.77 503.281 1634.63 534.694 1614.97C561.987 1597.88 591.105 1580.4 620.636 1567.16C637.292 1559.65 654.633 1553.49 672.453 1548.77C685.649 1545.3 702.433 1540.14 716.232 1542.59C751.037 1548.79 737.865 1598.51 731.662 1618.7Z" stroke="#F3F3F3" stroke-width="5"/>
<path fill-rule="evenodd" clip-rule="evenodd" d="M705.353 1631.47C676.968 1711.34 588.262 1751.03 502.992 1765.17C483.178 1768.45 427.617 1780.19 416.692 1755.9C406.105 1732.35 440.369 1704.16 456.411 1690.8C506.119 1649.42 567.417 1618.61 625.51 1588.09C643.642 1578.57 676.366 1557.94 698.737 1567.25C723.026 1577.38 711.234 1614.91 705.353 1631.47Z" stroke="#489A45" stroke-width="5" style="mix-blend-mode:soft-light"/>
<path fill-rule="evenodd" clip-rule="evenodd" d="M676.655 1646.96C652.03 1705.8 581.197 1739.86 516.188 1751.32C500.266 1754.12 459.817 1762.8 447.864 1746.48C436.802 1731.39 463.535 1709.28 473.54 1700.5C495.813 1680.95 522.169 1664.8 548.204 1649.27C572.276 1634.9 596.609 1620.18 621.922 1608C635.254 1601.59 660.269 1587.93 675.321 1597.64C691.527 1608.07 682.122 1633.9 676.655 1646.96Z" stroke="#489A45" stroke-width="5" style="mix-blend-mode:soft-light"/>
<path fill-rule="evenodd" clip-rule="evenodd" d="M645.034 1664.29C626.302 1702.73 576.583 1727.9 532.803 1736.41C521.022 1738.69 495.556 1744.6 485.688 1734.41C476.603 1725.03 491.412 1711.13 497.986 1704.71C527.12 1676.25 569.692 1650.74 608.653 1635.01C618.449 1631.05 636.063 1623.29 646.071 1631.12C656.338 1639.15 649.337 1655.46 645.034 1664.29Z" stroke="black" stroke-width="5" style="mix-blend-mode:soft-light"/>
<path fill-rule="evenodd" clip-rule="evenodd" d="M611.501 1680.57C600.961 1699.67 573.616 1714.18 551.008 1718.88C535.097 1722.18 516.009 1719.51 529.955 1702.86C543.809 1686.34 569.426 1671.18 591.103 1664.4C607.641 1659.23 620.552 1664.17 611.501 1680.57Z" stroke="black" stroke-width="5" style="mix-blend-mode:soft-light"/>
<path fill-rule="evenodd" clip-rule="evenodd" d="M1458.11 1544.09C1458.56 1581.69 1480.22 1620.66 1469.19 1659.04C1460.13 1690.57 1415.43 1693.44 1388.54 1707.85C1367.18 1719.29 1354.97 1739.43 1343.34 1758.75C1332.89 1776.09 1323.49 1793.95 1312.49 1811.01C1305.37 1822.04 1293.12 1843.69 1277.81 1844.17C1263.16 1844.62 1249.82 1827.88 1241.36 1817.98C1230.34 1805.08 1220.58 1791.32 1209.87 1778.21C1191.84 1756.1 1170.14 1739.78 1145.28 1724.36C1116.99 1706.81 1088.22 1689.87 1058.98 1673.53C1037.46 1661.47 1015.78 1649.5 995.098 1636.23C982.125 1627.9 953.476 1612.31 953.433 1596.82C953.413 1589.44 961.124 1581.21 966.326 1575.28C975.127 1565.24 985.146 1556.04 995.196 1547.05C1013.91 1530.29 1033.42 1514.28 1052.71 1498.08C1077.75 1477.06 1101.67 1456.38 1123.72 1432.55C1146.51 1407.88 1168.29 1382.41 1190.52 1357.28C1205.57 1340.26 1220.62 1321.15 1242.25 1310.64C1269.34 1297.49 1291.44 1311.07 1318.76 1311.08C1342.26 1311.09 1340.25 1360.85 1343.15 1374.66C1346.07 1388.65 1352.6 1401.64 1355.08 1415.66C1358.17 1433.16 1358.11 1451.09 1358.79 1468.79C1359.62 1490.44 1359.88 1511.05 1385.18 1519.17C1399.57 1523.79 1415.17 1524.69 1430.08 1527.42C1439.74 1529.19 1457.96 1532.21 1458.11 1544.09Z" stroke="#F3F3F3" stroke-width="5"/>
<path fill-rule="evenodd" clip-rule="evenodd" d="M1446.51 1550.84C1448.8 1582.35 1463.12 1622.63 1449.17 1655.25C1437.25 1683.12 1400.45 1686.93 1375.6 1701.67C1355.09 1713.84 1345.88 1733.6 1335.55 1753.03C1327.26 1768.62 1319.22 1784.35 1309.83 1799.44C1302.9 1810.57 1292.32 1829.34 1278.05 1831.71C1265.22 1833.85 1251.57 1817.4 1244.42 1809.03C1233.99 1796.82 1225.09 1783.54 1215.89 1770.54C1199.73 1747.71 1183.16 1727.2 1159.4 1710.49C1135.55 1693.71 1109.41 1681.21 1083 1668.2C1062.33 1658.02 1041.78 1647.54 1022.16 1635.76C1007.54 1626.99 986.521 1615.78 979.902 1600.04C974.661 1587.58 1001.72 1566.72 1009.71 1559.36C1026.15 1544.24 1043.56 1530.03 1061 1515.91C1082.27 1498.7 1104.2 1483.64 1123 1464.04C1156.63 1429 1184.83 1385.43 1227.99 1359.29C1254.03 1343.52 1282.92 1339.37 1311.77 1341.55C1323.19 1342.41 1325.85 1357.13 1327.24 1365.72C1329.55 1379.98 1329.77 1394.5 1331.53 1408.83C1333.17 1422.23 1336.93 1434.96 1339.94 1448.1C1342.99 1461.42 1343.78 1475.07 1346.01 1488.48C1347.38 1496.81 1348.74 1506.5 1354.93 1513.17C1361.33 1520.07 1371.95 1522.91 1381.24 1525.07C1398.67 1529.08 1444.9 1528.6 1446.51 1550.84Z" stroke="black" stroke-width="5" style="mix-blend-mode:soft-light"/>
<path fill-rule="evenodd" clip-rule="evenodd" d="M1431.57 1564.12C1435.54 1593.04 1441.14 1629.05 1424.1 1655.81C1410.18 1677.68 1380.73 1682.55 1359.63 1696.87C1342.08 1708.78 1335.37 1727.6 1326.59 1745.11C1319.39 1759.47 1312.15 1773.89 1303.44 1787.56C1296.83 1797.93 1288.32 1811.99 1275.3 1815.67C1264.17 1818.81 1251.7 1805.08 1245.58 1798.24C1235.16 1786.59 1226.69 1773.52 1218.27 1760.63C1204.5 1739.52 1191.84 1716.97 1172.17 1699.85C1153.06 1683.24 1130.29 1673.49 1107.1 1662.53C1089.34 1654.12 1071.7 1645.39 1054.98 1635.35C1042.14 1627.64 1026.22 1618.51 1019.58 1605.6C1013.84 1594.47 1028.82 1581.17 1036.32 1573.26C1048.69 1560.19 1062.41 1548.2 1075.94 1536.15C1090.54 1523.16 1106.69 1511.15 1120.82 1497.84C1150.54 1469.83 1174.33 1438.87 1210.89 1417.34C1234.56 1403.39 1266.38 1390.66 1294.26 1392.77C1314.31 1394.28 1312.75 1434.83 1314.6 1447.77C1317.65 1468.94 1323.64 1491.16 1333.24 1510.61C1341.49 1527.29 1361.29 1532.33 1379.51 1535.98C1390.93 1538.27 1402.89 1539.48 1413.93 1543.06C1426.7 1547.2 1429.9 1552 1431.57 1564.12Z" stroke="#489A45" stroke-width="5" style="mix-blend-mode:soft-light"/>
<path fill-rule="evenodd" clip-rule="evenodd" d="M1417.61 1577.76C1419.94 1602.21 1419.22 1631.15 1403.12 1652.4C1389.01 1671.02 1364.04 1676.04 1346.23 1690.74C1332.32 1702.21 1326.78 1720.81 1319.25 1735.92C1310.04 1754.39 1297.1 1788.49 1274.11 1795.55C1252.73 1802.11 1230.64 1761.06 1222.98 1748.83C1210.86 1729.46 1200.75 1708.21 1186.02 1690.35C1173.33 1674.97 1156.25 1666.52 1138.13 1657.44C1115.03 1645.85 1079.94 1632.14 1067.68 1609.37C1058.54 1592.39 1088.72 1566.92 1099.04 1555.07C1109.83 1542.69 1117.99 1528.04 1129.13 1516.1C1146.7 1497.25 1175.09 1481.99 1198.52 1470.34C1221.3 1459 1250.87 1446.43 1276.63 1447.03C1293.57 1447.42 1296.65 1471.29 1300.2 1482.94C1305.28 1499.5 1312.08 1514.33 1326.8 1525.53C1341.78 1536.93 1359.49 1542.24 1378.11 1546.88C1387.67 1549.24 1398.58 1551.06 1407.11 1555.89C1416.54 1561.15 1416.72 1568.36 1417.61 1577.76Z" stroke="black" stroke-width="5" style="mix-blend-mode:soft-light"/>
<path fill-rule="evenodd" clip-rule="evenodd" d="M1400.63 1591.95C1400.37 1613.09 1394.95 1635.66 1379.16 1652.05C1366.01 1665.7 1345.53 1670.35 1332.94 1684.31C1322.97 1695.35 1317.83 1710.81 1311.13 1723.61C1302.92 1739.3 1291.29 1766.69 1271.08 1772.23C1251.36 1777.62 1234.11 1747.62 1226.63 1735.75C1215.67 1718.35 1206.83 1699.89 1195.77 1682.53C1187.11 1668.92 1176.47 1660.17 1162.29 1651.44C1145.64 1641.19 1122.4 1629.86 1113.57 1612.8C1107.21 1600.44 1122.9 1580.56 1128.62 1569.62C1132.45 1562.26 1135.96 1554.8 1137.91 1546.84C1139.43 1540.65 1139.61 1534.92 1143.95 1529.58C1154.86 1516.16 1178.61 1514.28 1194.75 1509.79C1216.18 1503.83 1238.93 1497.06 1261.33 1495.67C1275.1 1494.8 1282.05 1506.34 1289.86 1514.45C1299.09 1524.03 1312.19 1530.88 1323.63 1538.09C1338.72 1547.61 1355.18 1553.5 1372.2 1559.53C1379.87 1562.25 1388.89 1564.91 1394.82 1570.37C1401.01 1576.02 1400.72 1584.32 1400.63 1591.95Z" stroke="#F3F3F3" stroke-width="5"/>
<path fill-rule="evenodd" clip-rule="evenodd" d="M1382.8 1604.6C1379.98 1622.36 1371.41 1639.38 1357.02 1652.01C1345.99 1661.7 1331.38 1667.21 1322.51 1678.83C1314.24 1689.67 1308.45 1701.97 1301.61 1713.55C1294.36 1725.78 1283.59 1746.23 1267.02 1749.64C1249.17 1753.31 1235.55 1732.82 1228.01 1721.46C1218.49 1707.11 1211.28 1691.65 1202.77 1676.8C1196.36 1665.73 1188.16 1655.62 1178.45 1646.8C1168.26 1637.51 1154.43 1628.63 1149.32 1615.8C1144.8 1604.43 1153.45 1590.61 1155.03 1579.05C1156.72 1566.7 1153.96 1553.76 1162.99 1543.12C1181.62 1521.17 1228.03 1524.97 1254.57 1524.35C1280.77 1523.73 1301.75 1536.98 1322.87 1549.58C1336.82 1557.9 1351.36 1564.93 1365.67 1572.68C1380.25 1580.58 1385.29 1588.96 1382.8 1604.6Z" stroke="#489A45" stroke-width="5" style="mix-blend-mode:soft-light"/>
<path fill-rule="evenodd" clip-rule="evenodd" d="M1366.25 1614.85C1358.06 1640.61 1332.86 1654.42 1314.79 1673.95C1300 1689.94 1288.8 1722.96 1264.03 1727.45C1235.9 1732.55 1219.33 1688.98 1209.66 1672.19C1198.93 1653.57 1179.72 1638.47 1171.8 1618.74C1167.65 1608.38 1171.32 1598.68 1173.63 1588.29C1176.16 1576.88 1178.08 1565.22 1186.63 1556C1203.47 1537.86 1236.15 1537.81 1259.7 1537.18C1284.06 1536.54 1305.55 1548.78 1324.89 1561.02C1345.41 1573.98 1374.64 1588.43 1366.25 1614.85Z" stroke="#489A45" stroke-width="5" style="mix-blend-mode:soft-light"/>
<path fill-rule="evenodd" clip-rule="evenodd" d="M1352.74 1621.9C1343.57 1640.27 1324.44 1655.27 1308.9 1669.42C1295.94 1681.21 1281.93 1704.89 1262.25 1706.68C1239.12 1708.79 1225.26 1683.67 1216.26 1668.26C1207.39 1653.13 1194.59 1637.17 1189.73 1620.53C1184.66 1603.2 1198.56 1579.74 1211.75 1567.38C1226.47 1553.6 1250.46 1548.41 1271.01 1548.85C1292.52 1549.28 1312.2 1560.5 1328.44 1572.15C1345.79 1584.61 1363.4 1600.57 1352.74 1621.9Z" stroke="#F3F3F3" stroke-width="5"/>
<path fill-rule="evenodd" clip-rule="evenodd" d="M1340.22 1625.41C1331.47 1640.7 1316.39 1653.68 1302.49 1665.25C1291.76 1674.19 1275.92 1689.37 1260.51 1689.83C1243.56 1690.33 1229.27 1677.74 1222.61 1664.78C1216.04 1652.01 1209.14 1635.99 1208.22 1621.94C1206.24 1591.34 1250.39 1556.82 1283.38 1559.43C1314.66 1561.9 1357.65 1594.95 1340.22 1625.41Z" stroke="#489A45" stroke-width="5" style="mix-blend-mode:soft-light"/>
<path fill-rule="evenodd" clip-rule="evenodd" d="M1328.65 1627.16C1316.59 1647.08 1287.42 1675.55 1260.56 1676.37C1229.73 1677.31 1222.17 1645.85 1226.32 1622.99C1230.54 1599.67 1266.27 1565.75 1294.59 1570.15C1322.22 1574.45 1342.94 1603.53 1328.65 1627.16Z" stroke="black" stroke-width="5" style="mix-blend-mode:soft-light"/>
<path fill-rule="evenodd" clip-rule="evenodd" d="M1316.43 1630.44C1306.22 1647.12 1284.52 1668 1262.01 1668.75C1235.19 1669.65 1235.85 1643.05 1242.03 1626.46C1248.45 1609.24 1276.47 1579.73 1299.92 1584.23C1322.73 1588.63 1326.21 1614.45 1316.43 1630.44Z" stroke="#F3F3F3" stroke-width="5"/>
<path fill-rule="evenodd" clip-rule="evenodd" d="M1305.78 1632.41C1299.04 1644.31 1282.25 1659.39 1266.37 1659.96C1246.95 1660.64 1250.85 1639.53 1255.92 1629.32C1261.95 1617.17 1282.05 1596.01 1298.8 1599.33C1315.29 1602.6 1311.35 1622.6 1305.78 1632.41Z" stroke="#489A45" stroke-width="5" style="mix-blend-mode:soft-light"/>
<path fill-rule="evenodd" clip-rule="evenodd" d="M396.614 959.588C439.713 935.55 488.394 915.636 534.308 895.415C601.406 865.868 669.486 837.101 739.936 814.978C777.708 803.121 826.663 786.056 867.068 794.962C881.84 798.217 895.271 808.234 908.496 814.718C926.732 823.659 945.239 832.151 963.715 840.662C1000.78 857.722 1037.96 874.609 1074.37 892.78C1091.91 901.532 1108.91 912.584 1127.18 920.032C1137.85 924.388 1150.67 922.252 1162.1 921.91C1188.59 921.115 1215.06 919.738 1241.53 918.543C1273.91 917.085 1306.37 915.544 1338.78 915.872C1353.39 916.023 1389.21 913.458 1397.19 924.91C1401.48 931.078 1391.21 942.298 1386.45 947.49C1377.71 957.031 1367.68 965.641 1357.78 974.164C1334.89 993.873 1310.59 1012.66 1290.21 1034.64C1279.74 1045.95 1266.03 1059.76 1272.73 1075.08C1279.5 1090.55 1291.3 1103.91 1298.46 1119.32C1306.7 1137.06 1310.05 1155.55 1313.88 1174.39C1316.72 1188.31 1323.44 1200.62 1329.75 1213.43C1336.72 1227.6 1343.95 1241.88 1348.76 1256.83C1351.94 1266.71 1357.07 1284.47 1345.7 1290.8C1329.56 1299.8 1299.42 1292.75 1281.09 1290.23C1255.75 1286.74 1230.61 1282.27 1205.35 1278.44C1187.01 1275.65 1168.61 1272.58 1149.95 1272.35C1119.86 1271.97 1089.67 1274.02 1059.65 1275.93C1004.07 1279.48 948.887 1284.19 893.139 1284.49C844.298 1284.76 731.728 1233.78 705.361 1224.84C652.732 1207 598.695 1190.1 548.932 1166.25C535.469 1159.79 514.742 1151.2 507.717 1137.79C503.382 1129.53 505.424 1124.73 495.119 1119.45C481.06 1112.24 463.01 1109.48 447.42 1106.31C422.312 1101.2 397.004 1096.89 371.777 1092.28C320.755 1082.97 270.087 1072.41 219.28 1062.26C203.921 1059.19 185.321 1058.59 170.693 1053.11C161.264 1049.6 162.27 1045.1 169.616 1039.64C182.501 1030.06 200.513 1024.68 215.7 1019.17C237.952 1011.1 260.563 1003.88 283.184 996.769C305.805 989.655 328.54 982.756 351.172 975.628C366.122 970.934 383.161 967.09 396.614 959.588Z" stroke="#F3F3F3" stroke-width="5"/>
<path fill-rule="evenodd" clip-rule="evenodd" d="M431.938 964.629C477.52 940.53 528.075 921.252 576.813 902.448C639.189 878.367 702.964 855.768 768.628 840.568C807.182 831.65 852.667 821.787 891.952 831.556C905.967 835.042 916.406 842.993 928.397 849.995C942.064 857.985 956.262 865.298 970.462 872.495C999.691 887.309 1029.23 901.61 1059.09 915.398C1074.9 922.731 1092.3 932.572 1110.19 935.048C1124.42 937.019 1140.62 933.965 1154.93 933.024C1180.7 931.33 1206.46 929.588 1232.24 928.087C1261.99 926.357 1291.82 924.747 1321.62 924.834C1338.22 924.883 1366.75 922.417 1378.44 932.154C1388.64 940.651 1351.15 971.789 1344.56 977.702C1323.96 996.164 1302.31 1013.75 1283.12 1033.48C1271.78 1045.11 1257.98 1059.26 1253.14 1074.62C1249.01 1087.72 1256.74 1102.57 1261.28 1114.62C1266.95 1129.73 1271.52 1145.39 1278.13 1160.17C1284.02 1173.33 1293.44 1185.04 1301.71 1197C1310.81 1210.15 1320.02 1223.51 1326.75 1237.88C1330.87 1246.71 1337.69 1261.52 1329.35 1270.01C1319.71 1279.8 1290.22 1273.6 1278.09 1272.28C1253.49 1269.56 1229.08 1265.45 1204.65 1261.78C1164.07 1255.7 1125.39 1250.4 1084.02 1251.94C1030.15 1253.97 976.324 1258.32 922.464 1260.86C902.574 1261.81 882.363 1263.61 862.468 1262.81C851.062 1262.34 842.393 1259.21 835.799 1252.07C826.794 1242.32 805.954 1237.01 791.471 1231.47C768.889 1222.83 746.018 1214.81 723.211 1206.68C673.144 1188.83 622.109 1171.64 574.662 1148.45C559.652 1141.12 542.462 1132.95 531.398 1120.76C525.224 1113.96 526.829 1107.37 523.078 1100.13C518.112 1090.61 501.628 1086.39 491.777 1083.32C472.766 1077.39 452.962 1073.45 433.31 1069.77C388.842 1061.44 344.253 1056.05 299.037 1052.15C288.441 1051.24 246.712 1048.13 268.731 1031.91C293.06 1013.98 328.09 1005.06 356.667 994.88C382.411 985.723 408.173 977.193 431.938 964.629Z" stroke="#F3F3F3" stroke-width="5"/>
<path fill-rule="evenodd" clip-rule="evenodd" d="M494.717 968.696C537.555 947.479 584.966 931.565 631.058 916.337C686.99 897.86 744.31 881.348 802.914 871.953C839.729 866.056 880.306 861.458 916.785 870.722C941.697 877.045 960.895 894.403 982.739 906.297C1004.58 918.192 1027.32 929.345 1050.74 938.617C1065.28 944.372 1080.93 950.163 1097.15 949.304C1136.58 947.22 1175.99 942.551 1215.47 940.173C1241.59 938.586 1267.76 937.254 1293.95 937.466C1309.74 937.591 1331.44 936.606 1345.38 944.115C1360.79 952.421 1278.08 1024.51 1270.26 1032.61C1250.64 1052.94 1226.87 1079.9 1230.48 1108.63C1233.93 1136.1 1249.44 1156.53 1266.99 1177.97C1276.95 1190.17 1308.94 1222.72 1296.92 1238.72C1290.06 1247.86 1267.63 1244.83 1256.96 1244.27C1235.95 1243.16 1215.06 1240.65 1194.16 1238.48C1163.7 1235.34 1132.4 1230.41 1101.79 1229.08C1080.47 1228.15 1059.01 1229.66 1037.66 1229.81C1007.03 1230.02 976.407 1229.97 945.783 1229.89C920.07 1229.82 894.138 1230.17 868.526 1228.06C852.604 1226.76 840.53 1223.71 829.155 1214.98C819.256 1207.38 804.281 1202.98 791.636 1198.18C770.752 1190.26 749.59 1182.93 728.497 1175.48C684.335 1159.88 639.664 1144.61 597.421 1125.04C578.137 1116.11 545.7 1103.64 541.29 1081.75C539.699 1073.86 538.514 1070.46 530.092 1066.01C518.137 1059.71 503.792 1056.91 490.352 1054.49C459.022 1048.83 426.744 1049.88 395.466 1044.3C382.728 1041.99 366.109 1036.96 380.734 1025.16C397.799 1011.35 422.57 1003.68 442.969 995.093C453.152 990.811 463.64 986.796 473.317 981.583C480.748 977.567 487.119 972.434 494.717 968.696Z" stroke="#489A45" stroke-width="5" style="mix-blend-mode:soft-light"/>
<path fill-rule="evenodd" clip-rule="evenodd" d="M575.586 974.803C615.149 957.544 658.08 944.918 700.235 933.517C747.057 920.869 794.995 910.343 843.532 905.71C877.046 902.501 912.742 901.413 945.2 910.494C965.727 916.239 979.594 928.481 997.227 938.715C1023.84 954.182 1052.66 966.396 1084.75 963.209C1120.74 959.643 1156.83 956.919 1193.04 955.034C1214.89 953.897 1236.81 953.014 1258.67 953.603C1272.49 953.971 1290.29 954.622 1302.29 960.273C1318.33 967.843 1257.56 1026.44 1249.98 1034.98C1231.17 1056.14 1217.35 1078.31 1209.2 1104.45C1202.55 1125.78 1215.78 1142.45 1229.44 1158.3C1237.94 1168.14 1265.42 1192.87 1256.7 1205.76C1251.91 1212.87 1236.28 1212.59 1227.88 1213C1211.87 1213.77 1195.8 1213.15 1179.8 1212.92C1156.17 1212.57 1130.99 1216.02 1107.57 1213.48C1055.67 1207.86 1003.9 1203.03 951.671 1199.27C922.878 1197.2 893.91 1195.33 865.388 1191.19C855.149 1189.7 844.572 1188.12 834.882 1184.68C828.647 1182.47 825.264 1178.67 820.01 1175.56C794.96 1160.77 762.192 1153.27 733.937 1143.86C696.375 1131.34 658.611 1119.03 622.064 1104.21C602.841 1096.41 575.98 1087.47 562.814 1071.42C558.836 1066.56 560.566 1062.66 558.074 1057.99C555.205 1052.6 546.405 1051.03 540.726 1049.56C527.835 1046.21 473.823 1041.33 498.842 1021.13C510.78 1011.5 525.956 1005.29 539.395 997.703C544.261 994.955 549.006 992.193 553.07 988.499C559.87 982.305 566.553 978.756 575.586 974.803Z" stroke="black" stroke-width="5" style="mix-blend-mode:soft-light"/>
<path fill-rule="evenodd" clip-rule="evenodd" d="M661.749 981.708C739.817 953.709 831.231 934.423 916.151 937.596C944.39 938.656 974.758 942.543 999.163 956.282C1013.55 964.397 1025.04 973.584 1042.36 976.449C1054.87 978.515 1068.37 976.017 1080.97 975.07C1099.21 973.698 1117.47 972.46 1135.75 971.439C1158.4 970.192 1181.12 969.199 1203.81 969.538C1220.02 969.781 1242.41 969.282 1256.45 977.159C1273.21 986.553 1230.15 1031.29 1224.09 1039.25C1209.38 1058.55 1199.04 1077.23 1195.21 1100.41C1194.08 1107.16 1190.37 1114.1 1190.81 1120.9C1191.27 1127.84 1195.92 1134 1200.21 1139.44C1205.83 1146.57 1225.36 1163.44 1219.69 1172.2C1216.56 1177.04 1204.89 1177.71 1198.84 1178.76C1187.5 1180.75 1175.99 1181.85 1164.58 1183.45C1145.21 1186.17 1125.95 1194.78 1106.53 1194.64C1054.32 1194.29 1001.43 1179.8 950.299 1171.95C919.904 1167.28 889.3 1163.05 859.285 1156.65C849.788 1154.63 840.006 1152.53 830.988 1149.06C824.694 1146.63 820.668 1142.27 814.841 1139.55C792.498 1129.11 766.771 1122.83 742.755 1115.85C711.577 1106.76 680.292 1097.96 649.334 1088.28C629.929 1082.21 604.963 1076.92 588.277 1065.55C576.091 1057.26 584.468 1054.71 590.968 1046.88C594.287 1042.89 593.549 1038.98 595.007 1034.48C597.088 1028.05 602.894 1023.39 608.338 1019.21C615.846 1013.43 625.831 1008.64 631.984 1001.57C634.153 999.082 634.071 996.008 635.826 993.838C640.934 987.52 654.407 984.342 661.749 981.708Z" stroke="#F3F3F3" stroke-width="5"/>
<path fill-rule="evenodd" clip-rule="evenodd" d="M744.526 991.077C807.858 973.395 878.271 963.139 945.083 967.353C968.329 968.821 991.706 972.401 1013.32 980.427C1023.16 984.066 1030.53 988.144 1041.33 988.306C1066.38 988.68 1091.53 986.753 1116.59 986.186C1134.52 985.779 1152.54 985.57 1170.42 986.788C1182.37 987.6 1198.54 988.562 1208.3 995.206C1222.48 1004.88 1196.59 1038.18 1191.3 1047.38C1182.55 1062.62 1173.85 1079.56 1177.19 1097.12C1178.21 1102.49 1180.05 1107.23 1180.26 1112.71C1180.47 1117.42 1179.79 1121.77 1181.6 1126.27C1183.83 1131.84 1193.84 1140.45 1190.35 1145.61C1187.97 1149.13 1180.98 1149.33 1176.32 1150.48C1168.77 1152.34 1161.39 1154.77 1154.26 1157.75C1146.75 1160.89 1140.35 1165.73 1132.58 1168.33C1119.96 1172.56 1105.86 1173.03 1092.63 1173.08C1039.82 1173.29 986.388 1164.07 934.973 1154.41C908.199 1149.38 881.279 1144 855.274 1136.29C847.378 1133.95 838.427 1131.6 831.497 1127.23C827.173 1124.51 824.25 1121.09 819.331 1119.05C777.315 1101.66 728.659 1095.39 684.02 1082.91C672.401 1079.66 608 1063.28 641.814 1047.35C662.355 1037.67 684.027 1033.2 702.797 1020.01C708.515 1016 712.33 1012.69 714.591 1006.6C716.08 1002.56 712.54 1004.62 717.49 1000.37C723.494 995.262 737.148 993.138 744.526 991.077Z" stroke="black" stroke-width="5" style="mix-blend-mode:soft-light"/>
<path fill-rule="evenodd" clip-rule="evenodd" d="M810.214 1000.97C884.325 986.412 962.727 985.308 1037.85 997.439C1056.79 1000.49 1076.53 999.631 1095.71 1000.33C1114.35 1001 1147.51 999.213 1160.98 1012.23C1170.74 1021.67 1159.97 1041.89 1156.22 1052.53C1151.45 1066.08 1147.27 1080.07 1154.9 1093.17C1159.37 1100.83 1165.52 1108.12 1170.32 1115.72C1172.61 1119.34 1177.35 1124.89 1175.34 1128.35C1172.02 1134.06 1156.62 1136.54 1149.14 1139.26C1125.22 1147.96 1099.94 1150.29 1074.43 1150.37C1027.3 1150.52 979.966 1144.89 933.785 1137.16C912.539 1133.61 890.997 1129.81 870.522 1123.53C858.936 1119.99 850.415 1113.07 839.356 1109C803.744 1095.89 765.443 1088.99 729.212 1077.02C718.725 1073.55 679.546 1062.03 699.397 1048.09C718.616 1034.6 746.527 1036.04 766.503 1023.33C768.764 1021.88 771.561 1020.14 772.881 1017.8C773.661 1016.4 772.317 1013.75 772.908 1012.96C779.071 1004.3 800.807 1002.81 810.214 1000.97Z" stroke="#489A45" stroke-width="5" style="mix-blend-mode:soft-light"/>
<path fill-rule="evenodd" clip-rule="evenodd" d="M858.123 1010.06C896.13 1005.09 934.951 1003.7 973.572 1003.19C994.683 1002.91 1017.88 1001.55 1038.51 1006.32C1051.18 1009.26 1063.42 1011.82 1076.49 1013.64C1090.55 1015.61 1113.2 1016.97 1121.71 1027.97C1128.06 1036.2 1123.57 1053.21 1123.28 1063.25C1122.97 1074.27 1125.4 1082.43 1133.87 1090.26C1139.2 1095.2 1163.66 1113.08 1160.79 1118.3C1158.06 1123.26 1140.94 1124.11 1133.53 1125.44C1110.11 1129.65 1086.4 1131.2 1062.61 1131.11C1025.75 1130.97 988.783 1127.74 952.54 1122.04C937.556 1119.68 922.07 1117.22 907.771 1112.4C898.142 1109.16 890.129 1103.35 880.564 1099.99C853.172 1090.35 824.187 1083.86 796.7 1074.04C787.879 1070.89 759.127 1062.51 766.107 1049.33C771.927 1038.32 791.528 1034.87 801.193 1027.46C817.632 1014.82 837.236 1012.78 858.123 1010.06Z" stroke="#489A45" stroke-width="5" style="mix-blend-mode:soft-light"/>
<path fill-rule="evenodd" clip-rule="evenodd" d="M882.013 1016.23C912.158 1012.92 942.994 1011.37 973.565 1011.14C993.294 1010.99 1014.11 1010.63 1033.45 1014.57C1043.16 1016.55 1051.58 1021.25 1060.77 1024.59C1070.22 1028.03 1083.28 1031.85 1087.33 1039.82C1091.14 1047.31 1089.64 1058.27 1092.96 1067.31C1095.92 1075.33 1102.19 1080.26 1108.93 1085.66C1113.23 1089.1 1135.32 1104.01 1132.73 1107.34C1129.96 1110.91 1116.65 1110.69 1109.72 1111.22C1090.62 1112.71 1071.46 1113.25 1052.32 1112.85C1026.2 1112.26 999.882 1110.37 974.235 1105.89C956.042 1102.71 942.349 1094.99 925.402 1089.36C903.447 1082.05 880.692 1076.3 858.952 1068.29C848.118 1064.3 832.078 1059.18 826.579 1048.76C824.464 1044.76 822.448 1034.59 824.851 1030.57C827.738 1025.74 838.391 1023.64 843.421 1022.37C856.023 1019.22 869.2 1017.64 882.013 1016.23Z" stroke="#F3F3F3" stroke-width="5"/>
<path fill-rule="evenodd" clip-rule="evenodd" d="M910.193 1023.77C947.876 1019.69 990.448 1016.17 1028.18 1023.75C1043.43 1026.81 1058.58 1036.04 1064.73 1048.71C1067.92 1055.25 1068.57 1063.06 1073.35 1069.4C1076.89 1074.08 1081.4 1078.3 1085.85 1082.24C1088.36 1084.46 1104.45 1096.61 1101.32 1098.82C1098.02 1101.14 1089.95 1100.43 1084.44 1100.52C1071.24 1100.73 1057.99 1100.34 1044.83 1099.5C1029.71 1098.53 1014.23 1097.25 999.578 1093.63C987.759 1090.7 977.011 1084.44 965.506 1080.76C935.262 1070.99 903.377 1063.39 875.015 1048.84C868.981 1045.75 857.041 1041.14 864.352 1034.04C873.449 1025.19 898.55 1025.02 910.193 1023.77Z" stroke="black" stroke-width="5" style="mix-blend-mode:soft-light"/>
<path fill-rule="evenodd" clip-rule="evenodd" d="M942.982 1030.56C969.815 1027.7 999.573 1026.27 1026.46 1031.7C1040.08 1034.45 1052.21 1040.27 1058.09 1051.63C1062.29 1059.73 1063.38 1068.78 1069.14 1076.55C1071.18 1079.29 1078.69 1086.98 1074.96 1088.68C1066.97 1092.35 1049.21 1088.28 1038.17 1086.43C1021.55 1083.64 1007.71 1075.65 991.917 1070.95C967.696 1063.75 936.975 1060 914.935 1047.61C893.695 1035.64 935.153 1031.4 942.982 1030.56Z" stroke="black" stroke-width="5" style="mix-blend-mode:soft-light"/>
<path fill-rule="evenodd" clip-rule="evenodd" d="M973.609 1037.02C996.377 1034.46 1036.85 1033.03 1049.72 1052.57C1052.11 1056.2 1058.64 1076.26 1052.2 1078.09C1046.9 1079.6 1038.6 1077.21 1032.63 1074.97C1021.52 1070.82 1011.1 1066.29 999.618 1062.88C989.841 1059.98 979.828 1057.31 970.181 1053.93C966.086 1052.51 958.385 1050.81 955.83 1047.54C948.953 1038.75 966.677 1037.8 973.609 1037.02Z" fill="#01002D" style="mix-blend-mode:soft-light"/>
<rect x="4" y="493" width="1477" height="275" fill="#489A45"/>
</svg>
