<svg width="1480" height="2131" viewBox="0 0 1480 2131" fill="none" xmlns="http://www.w3.org/2000/svg">
<path fill-rule="evenodd" clip-rule="evenodd" d="M937.588 1593.29C937.561 1612.68 971.111 1634.3 985.431 1645.47C1013.75 1667.55 1043.21 1687.93 1072.4 1708.63C1101.59 1729.33 1130.85 1749.98 1158.67 1772.73C1176.73 1787.5 1197.96 1804.13 1210.14 1825.29C1236.1 1870.4 1153.47 1864.13 1132.06 1865.24C1077.57 1868.06 1015.1 1867.25 963.908 1891.09C933.348 1905.33 921.058 1928.98 927.406 1963.33C929.452 1974.5 935.624 1987.33 930.27 1998.25C924.553 2009.92 911.517 2016.7 900.703 2021.26C861.262 2037.88 816.012 2040.03 774.37 2042.32C729.466 2044.83 684.157 2044.41 639.582 2044.83C620.681 2045.01 600.9 2052.4 582.867 2058.41C559.227 2066.29 535.861 2075.13 512.412 2083.68C460.827 2102.45 407.668 2122.21 353.176 2127.2C319.051 2130.33 281.795 2126.55 255.446 2101.12C242.216 2088.35 235.363 2069.29 227.77 2052.37C218.577 2031.93 209.755 2011.29 199.96 1991.18C168.404 1926.4 123.183 1863.18 49.2078 1860.39C38.0169 1859.97 27.0146 1861.6 15.872 1861.95C8.77599 1862.17 2.47234 1860.37 -0.119341 1852.43C-6.63509 1832.51 14.3882 1800.88 23.0251 1785C41.9354 1750.23 63.2264 1717.01 83.1878 1682.93C96.3941 1660.4 119.206 1629.57 119.601 1602.28C119.952 1577.96 89.88 1560.54 73.5225 1548.66C58.1945 1537.52 30.3957 1521.98 28.8392 1499.18C28.0853 1488.12 34.9429 1478.91 42.0894 1471.76C54.6155 1459.25 69.0143 1450.39 80.3003 1436.13C98.8075 1412.74 114.343 1380.61 112.028 1349.24C110.423 1327.51 98.932 1313.33 84.2877 1299.8C78.1331 1294.11 73.1345 1290.09 72.861 1280.8C72.4185 1266.04 77.8996 1250.4 82.4201 1236.69C98.5907 1187.64 121.43 1140.18 146.789 1095.83C159.46 1073.67 173.139 1051.58 189.88 1032.64C200.844 1020.2 215.62 1005.4 232.236 1005.32C251.474 1005.22 271.788 1012.55 290.456 1018.01C325.322 1028.22 359.757 1040.05 394.053 1052.2C473.366 1080.3 551.919 1110.72 629.71 1143.46C684.505 1166.55 740.465 1189.68 791.928 1220.5C801.965 1226.55 811.43 1233.62 820.196 1241.61C829.563 1250.01 841.226 1253.72 853.058 1256.47C926.491 1273.55 1007.13 1259.69 1081.02 1250.87C1099.77 1248.63 1118.53 1246.39 1137.33 1244.79C1153.5 1243.42 1172.86 1239.63 1188.53 1245.07C1219.41 1255.79 1192.13 1296.07 1180.6 1312.48C1140 1370.27 1087.78 1419.26 1039.34 1469.25C1016.31 1493.06 993.104 1516.8 971.311 1541.94C959.963 1555.01 937.612 1576.29 937.588 1593.29Z" stroke="black" stroke-width="5" style="mix-blend-mode:soft-light"/>
<path fill-rule="evenodd" clip-rule="evenodd" d="M923.694 1596.63C935.917 1617.09 957.483 1632.14 975.374 1646.31C1001.12 1666.72 1027.69 1685.98 1053.85 1705.8C1078.59 1724.55 1103.38 1743.51 1126.26 1764.83C1140.22 1777.82 1157.73 1793.36 1164.27 1812.67C1178.44 1854.51 1100.92 1848.57 1081.77 1849.77C1034.16 1852.75 980.192 1853.67 936.03 1875.98C908.454 1889.91 897.026 1912.83 902.707 1944.53C904.671 1955.5 908.27 1964.85 903.583 1975.8C898.163 1988.47 885.818 1996.41 874.511 2002.04C839.091 2019.66 797.32 2023.59 759.016 2026.88C719.445 2030.28 678.222 2032.75 639.954 2030.64C624.651 2029.79 607.001 2035.15 591.828 2039.27C568.481 2045.62 545.367 2052.92 522.134 2059.72C474.917 2073.54 426.479 2086.88 377.431 2088.63C342.021 2089.9 305.141 2084.28 275.815 2061.94C246.096 2039.28 233.056 2003.98 216.695 1970.44C188.441 1912.45 150.235 1841.97 84.164 1830.05C74.1453 1828.23 64.5006 1829.3 54.4843 1828.9C49.3337 1828.69 43.4733 1827.99 40.8917 1822.56C34.1901 1808.46 52.9252 1782.52 59.2428 1771.66C76.6975 1741.65 96.2923 1713.09 114.572 1683.65C129.091 1660.28 147.473 1634.29 153.196 1606.64C160.14 1573.09 116.164 1549.49 100.786 1525.98C74.1266 1485.21 125.216 1461.62 150.45 1441.97C179.427 1419.41 203.474 1378.42 177.814 1343.91C167.998 1330.71 155.871 1322.88 151.552 1305.61C144.798 1278.6 150.202 1247.67 155.962 1220.9C164.639 1180.67 178.234 1140.84 196.613 1104.42C209.78 1078.34 231.61 1037.45 263.217 1040.33C284.494 1042.26 306.093 1049.6 326.785 1056.07C357.766 1065.77 388.35 1076.85 418.767 1088.36C488.982 1114.86 558.405 1144.12 626.444 1176.36C672.868 1198.36 802.2 1288.6 811.952 1291.79C841.029 1301.3 874.162 1299.41 904.207 1297.75C944.172 1295.54 983.956 1290.17 1023.71 1285.17C1042.63 1282.81 1061.65 1279.94 1080.66 1278.72C1094.19 1277.86 1111.97 1277.08 1123.77 1285.44C1146.8 1301.76 1120.82 1339.53 1110.07 1355.51C1077.14 1404.49 1035.59 1446.98 996.621 1490.41C977.496 1511.73 958.08 1533.02 940.697 1556.03C933.687 1565.32 916.139 1584 923.694 1596.63Z" stroke="#489A45" stroke-width="5" style="mix-blend-mode:soft-light"/>
<path fill-rule="evenodd" clip-rule="evenodd" d="M906.559 1607.25C940.027 1648.13 986.371 1678.42 1026.32 1712.49C1046.37 1729.6 1066.55 1747.18 1083.81 1767.59C1092.79 1778.21 1104 1791.63 1105.66 1806.49C1110.08 1846.24 1040.22 1841.24 1019.29 1842.87C978.818 1846.02 933.11 1848.49 896.295 1868.99C873.803 1881.52 862.645 1901.94 866.681 1928.68C868.47 1940.55 871.305 1950.62 866.487 1962.3C861.606 1974.14 851.53 1982.53 841.339 1988.84C812.054 2006.97 775.756 2012.91 742.877 2017.37C704.306 2022.57 665.463 2024.73 626.661 2023.84C592.677 2023.07 558.789 2034 525.561 2041.27C481.542 2050.89 436.733 2059.33 391.751 2058.34C356.226 2057.55 320.46 2050.02 290.204 2029.64C259.459 2008.89 241.083 1977.67 224.546 1943.97C199.549 1893.02 168.424 1824.74 113.049 1805.64C104.996 1802.86 97.4763 1802.59 89.1559 1802.14C85.1144 1801.93 79.895 1801.88 77.9154 1797.38C73.1541 1786.52 91.1097 1765.33 96.1291 1757.95C112.151 1734.4 129.502 1711.89 145.917 1688.65C161.242 1666.95 177.929 1644.33 187.517 1618.94C202.776 1578.51 154.872 1555.18 156.44 1516.73C157.416 1492.86 178.843 1475.62 195.8 1463.69C216.679 1449.01 246.676 1439.28 257.237 1412.65C265.104 1392.81 253.005 1381.36 243.723 1366.39C227.994 1341.03 227.111 1306.55 228.933 1277.08C231.389 1237.26 240.325 1196.82 255.351 1160.16C262.16 1143.53 270.483 1126.24 282.664 1113.29C294.076 1101.15 304.829 1098 319.973 1100.39C366.333 1107.71 413.063 1128.58 457.452 1147.2C513.224 1170.59 568.212 1196.46 621.533 1225.61C657.893 1245.49 695.07 1266.53 726.926 1294.1C735.228 1301.29 743.728 1309.1 749.774 1318.61C754.346 1325.75 756.27 1331.66 764.021 1335.71C786.994 1347.72 819.065 1344.37 843.762 1342.97C883.252 1340.75 922.572 1335.19 961.836 1330.16C984.747 1327.21 1027.93 1318.08 1046.09 1339.31C1061.76 1357.65 1042.54 1389.16 1032.72 1405.45C1007.88 1446.62 976.019 1482.82 946.439 1520.07C932.882 1537.14 918.797 1554.35 907.573 1573.31C904.706 1578.14 900.119 1584.55 899.304 1590.41C898.39 1597.12 902.45 1602.21 906.559 1607.25Z" stroke="black" stroke-width="5" style="mix-blend-mode:soft-light"/>
<path fill-rule="evenodd" clip-rule="evenodd" d="M903.716 1597.71C934.651 1633.85 972.001 1663.47 1005.24 1697.26C1020.14 1712.42 1035.19 1728.31 1046.51 1746.84C1052.59 1756.8 1059.05 1769.34 1057.28 1781.77C1052.21 1817.45 994.741 1814.55 971.503 1816.76C936.973 1820.02 897.307 1823.33 866.68 1842.72C846.617 1855.42 839.014 1874.06 842.608 1898.02C846.466 1923.72 837.401 1942.45 816.932 1956.91C791.269 1975.03 758.963 1982.54 729.256 1987.91C693.466 1994.34 657.242 1997.31 621.027 1996.77C585.807 1996.24 551.644 2002.75 516.627 2007.06C470.202 2012.76 422.303 2015.71 376.496 2004.79C336.613 1995.28 300.662 1974.04 273.811 1941.04C245.764 1906.6 232.032 1863.08 209.316 1824.93C195.149 1801.13 175.382 1769.66 148.705 1760.52C139.807 1757.47 123.535 1761.74 130.744 1746.47C134.864 1737.74 142.525 1730.06 148.584 1722.91C158.373 1711.35 168.483 1700.11 178.435 1688.7C199.647 1664.4 222.356 1639.58 238.315 1610.85C258.423 1574.68 229.001 1547.09 232.817 1510.5C234.868 1490.82 247.722 1475.04 261.296 1462.63C270.079 1454.59 279.678 1447.62 289.476 1441.11C299.708 1434.31 311.799 1429.1 320.739 1420.33C333.479 1407.85 328.063 1393.19 325.78 1377.16C321.762 1348.99 321.009 1320.35 323.537 1291.9C326.631 1257.03 333.621 1221.15 348.093 1189.39C353.722 1177.03 360.839 1163.92 371.344 1155.6C381.849 1147.27 392.661 1147.78 404.63 1150.2C440.129 1157.36 475.498 1174.29 509.119 1190.33C551.2 1210.41 592.438 1232.88 631.795 1258.48C658.962 1276.16 686.21 1295.27 708.886 1319.31C715.48 1326.31 721.75 1333.81 726.806 1342.19C730.278 1347.94 732.115 1355.37 737.168 1359.68C752.979 1373.12 784.901 1368.91 803.539 1368.02C840.737 1366.24 877.382 1358.59 914.533 1356.58C934.809 1355.47 966.569 1352.81 981.349 1371.23C995.248 1388.54 982.41 1416 973.947 1432.8C957.314 1465.84 935.054 1495.32 915.077 1526.05C906.865 1538.7 897.868 1551.94 892.511 1566.36C887.75 1579.21 895.789 1588.44 903.716 1597.71Z" stroke="#489A45" stroke-width="5" style="mix-blend-mode:soft-light"/>
<path fill-rule="evenodd" clip-rule="evenodd" d="M896.06 1597.16C920.665 1628.97 950.387 1657.17 975.169 1689.5C989.675 1708.44 1014.66 1740.27 1003.2 1767.14C990.633 1796.67 947.404 1797.71 922.406 1800.22C892.652 1803.21 857.708 1807.26 832.153 1825.79C824.07 1831.65 817.169 1839.38 814.205 1849.54C811.03 1860.4 814.377 1869.88 814.758 1880.74C815.555 1903.52 802.759 1921.88 785.893 1934.53C762.056 1952.43 732.328 1960.99 704.261 1966.99C672.462 1973.77 640.156 1977.2 607.804 1977.24C576.886 1977.3 546.29 1978.2 515.335 1979.22C474.852 1980.57 433.817 1978.97 394.62 1967.66C356.009 1956.52 320.967 1935.42 293.525 1904.26C266.754 1873.86 248.788 1836.61 233.084 1798.65C224.173 1777.11 209.095 1744.93 187.606 1734.14C178.05 1729.34 168.644 1729.72 178.907 1717.04C191.831 1701.07 209.2 1688.22 224.142 1674.55C245.695 1654.81 267.789 1634.68 285.92 1611.26C297.499 1596.3 302.703 1581.81 302.023 1562.53C301.496 1547.84 298.806 1533.32 300.294 1518.56C303.779 1483.92 329.354 1460.04 351.972 1437.81C366.522 1423.52 379.797 1412.6 387.361 1392.33C396.307 1368.38 400.154 1342.36 406.183 1317.5C412.807 1290.21 420.439 1261.82 434.691 1237.74C447.378 1216.3 462.713 1206.63 485.55 1212.26C521.17 1221.04 556.202 1242.95 587.751 1263.23C619.864 1283.86 651.407 1307.08 677.952 1335.54C692.283 1350.9 702.021 1368.98 714.732 1385.5C730.72 1406.24 767.206 1398.16 788.873 1396.27C824.841 1393.15 938.088 1370.63 927.241 1441.63C922.713 1471.26 905.398 1498.68 892.7 1524.88C887.437 1535.76 879.835 1548.81 878.587 1561.24C877.228 1574.79 888.662 1587.58 896.06 1597.16Z" stroke="#F3F3F3" stroke-width="5"/>
<path fill-rule="evenodd" clip-rule="evenodd" d="M882.987 1594.51C901.764 1623.36 924.278 1650.59 940.353 1681.78C950.781 1701.97 960.98 1728.98 947.254 1750.48C931.761 1774.74 897.874 1780.57 872.981 1783.79C847.333 1787.1 816.722 1789.93 795.669 1808.39C788.971 1814.26 783.432 1822.17 782.354 1831.6C781.316 1840.66 784.048 1849.69 783.072 1858.9C780.886 1879.6 769.089 1896.7 753.933 1909.14C709.102 1945.95 642.643 1954.45 588.801 1955.7C561.85 1956.32 534.132 1953.98 507.021 1952.34C471.84 1950.22 436.623 1945.44 403.128 1933.63C331.912 1908.53 284.406 1852.26 251.405 1782.11C241.02 1760.02 233.112 1736.11 216.738 1718.41C208.297 1709.27 210.191 1702.66 218.923 1694.23C232.575 1681.06 249.193 1670.96 264.325 1659.95C285.847 1644.29 307.829 1628.4 326.891 1609.68C340.03 1596.77 349.375 1584.35 352.302 1565.09C354.39 1551.36 354.001 1537.38 355.288 1523.56C357.738 1497.32 365.759 1471.25 379.82 1449.42C390.991 1432.11 404.263 1416.37 417.973 1401.35C435.795 1381.79 450.888 1361.95 464.471 1338.78C482.479 1308.12 507.858 1251.6 549.772 1266.29C596.001 1282.5 639.179 1324.1 668.666 1364.47C678.568 1378.02 686.665 1394.67 700.068 1404.63C720.133 1419.52 740.583 1418.88 764.551 1418.69C800.436 1418.4 878.569 1409.63 879.081 1467.25C879.281 1490.08 869.941 1511.71 865.401 1533.7C860.282 1558.32 870.162 1574.85 882.987 1594.51Z" stroke="black" stroke-width="5" style="mix-blend-mode:soft-light"/>
<path fill-rule="evenodd" clip-rule="evenodd" d="M868.892 1592.01C887.413 1629.64 929.074 1691.42 896.874 1733.56C879.865 1755.83 849.958 1764.33 824.882 1769.43C804.702 1773.56 780.384 1775.2 765.056 1792.31C753.79 1804.9 758.654 1823.09 754.275 1838.79C748.84 1858.25 736.531 1874.21 721.448 1886.24C679.301 1919.87 620.907 1930.44 570.425 1932.9C517.996 1935.45 460.303 1925.19 411.095 1905.13C349.741 1880.1 303.943 1832.33 272.072 1771.69C266.191 1760.5 260.855 1749 255.213 1737.67C251.422 1730.07 245.777 1722.73 242.801 1714.73C237.845 1701.39 243.838 1690.43 253.394 1681.67C267.14 1669.05 283.988 1660.03 299.631 1650.53C321.023 1637.53 342.888 1624.76 362.806 1609.54C376.19 1599.3 390.201 1588.26 395.071 1570.59C398.396 1558.54 399.144 1545.79 399.1 1533.33C399.001 1506.6 400.434 1484.98 412.212 1460.44C431.593 1420.16 461.248 1383.86 492.53 1353.63C517.081 1329.9 555.923 1293.04 591.404 1308.62C623.239 1322.57 641.713 1356.27 662.583 1383.49C672.73 1396.73 684.145 1408.8 697.585 1418.18C714.529 1430 730.516 1434.91 750.662 1436.75C784.569 1439.85 835.719 1440.42 845.955 1483.98C849.735 1500.06 847.428 1516.74 849.365 1533.04C851.895 1554.58 859.548 1573.03 868.892 1592.01Z" stroke="black" stroke-width="5" style="mix-blend-mode:soft-light"/>
<path fill-rule="evenodd" clip-rule="evenodd" d="M849.416 1590.72C862.521 1631.94 879.75 1683.88 847.312 1720.75C831.599 1738.62 809.584 1748.68 788.29 1756.22C773.04 1761.63 748.864 1763.33 739.438 1779.74C732.516 1791.82 731.471 1808.44 725.197 1821.37C716.575 1839.16 703.585 1853.84 688.379 1865.36C648.762 1895.38 597.321 1907.18 550.451 1910.73C448.609 1918.45 345.354 1862.03 291.42 1768.57C275.338 1740.71 254.543 1711.08 280.957 1682.38C309.794 1651.07 353.05 1636.24 387.382 1613.92C400.499 1605.4 417.212 1595.15 424.591 1579.81C429.03 1570.59 429.397 1559.05 429.656 1548.92C430.332 1523.13 432.464 1499.93 442.276 1475.81C457.431 1438.55 481.453 1404.11 508.612 1375.86C532.298 1351.23 566.04 1322.25 600.132 1339.73C626.271 1353.16 642.733 1381.88 662.981 1403.01C685.514 1426.54 713.458 1442.32 744.201 1449.94C774.108 1457.34 806.928 1462.25 822.527 1494.27C827.877 1505.26 833.452 1519.48 835.412 1531.66C838.572 1551.74 843.256 1571.49 849.416 1590.72V1590.72Z" stroke="#F3F3F3" stroke-width="5"/>
<path fill-rule="evenodd" clip-rule="evenodd" d="M827.692 1590.55C833.625 1632.21 834.06 1675.68 805.19 1708.7C791.717 1724.11 774.734 1735.09 757.567 1745.05C744.936 1752.38 731.901 1758.58 722.43 1770.53C713.656 1781.6 706.961 1794.44 698.486 1805.79C687.306 1820.84 673.957 1833.89 658.953 1844.44C621.342 1870.82 575.702 1883.31 532.082 1887.8C510.966 1889.98 488.067 1891.18 467.138 1885.67C446.925 1880.35 426.958 1871.87 408.401 1861.97C368.954 1840.93 334.839 1809.98 310.205 1770.76C293.314 1743.86 284.248 1717.66 306.481 1690.15C331.545 1659.14 370.665 1641.89 402.943 1621.68C425.081 1607.82 449.882 1594.21 454.171 1564.98C457.587 1541.73 460.378 1519.66 468.994 1497.65C481.815 1465.18 500.561 1435.73 524.119 1411.05C545.664 1388.56 572.865 1369.42 603.429 1381.21C627.644 1390.56 646.352 1411.7 667.469 1426.77C691.002 1443.61 716.912 1452.82 744.209 1460.19C768.74 1466.84 791.815 1477.14 807.569 1499.2C810.793 1503.7 814.178 1508.61 816.655 1513.66C819.815 1520.1 819.53 1526.5 820.116 1533.73C821.642 1552.83 825.01 1571.69 827.692 1590.55Z" stroke="black" stroke-width="5" style="mix-blend-mode:soft-light"/>
<path fill-rule="evenodd" clip-rule="evenodd" d="M803.718 1594.09C802.963 1633.69 793.861 1671.17 769.346 1702.17C758.865 1715.43 746.378 1726.37 734.859 1738.54C725.585 1748.34 716.82 1757.45 706.174 1765.55C680.92 1784.72 660.343 1809.46 633.524 1826.55C597.723 1849.4 556.792 1862.15 516.22 1867.38C496.408 1869.94 475.953 1870.9 455.94 1868.25C438.751 1865.97 422.324 1857.73 407.091 1849.29C377.233 1832.75 348.286 1809.18 329.01 1779.26C286.512 1713.3 371.33 1664.71 414.883 1636.28C434.913 1623.21 465.491 1608.02 473.813 1582.3C479.762 1563.92 483.429 1545.24 491.057 1527.42C511.546 1479.56 552.903 1423.17 607.542 1430.35C630.922 1433.42 652.174 1446.28 673.967 1454.87C696.407 1463.72 719.592 1468.59 742.938 1473.95C764.757 1478.96 782.128 1486.16 796.128 1505.64C802.819 1514.94 802.159 1526.13 802.694 1537.58C803.566 1556.4 804.064 1575.33 803.718 1594.09Z" stroke="black" stroke-width="5" style="mix-blend-mode:soft-light"/>
<path fill-rule="evenodd" clip-rule="evenodd" d="M781.876 1599.28C772.747 1659.11 739.744 1724.55 691.57 1759.53C634.903 1800.68 573.569 1835.4 506.088 1845.66C474.802 1850.41 440.547 1852.85 411.137 1838.03C388.755 1826.75 362.778 1809.85 350.562 1785.95C320.675 1727.5 388.172 1680.46 426.631 1653.13C447.336 1638.42 473.668 1624.05 489.333 1602.64C498.422 1590.23 503.119 1573.85 510.478 1560.24C532.778 1518.97 569.286 1485.59 614.56 1479.41C635.493 1476.55 656.543 1479.83 677.286 1482.41C698.52 1485.05 720.025 1486.43 741.121 1490.16C757.96 1493.15 777.797 1498.24 783.894 1517.54C791.583 1541.87 785.602 1574.85 781.876 1599.28Z" stroke="#489A45" stroke-width="5" style="mix-blend-mode:soft-light"/>
<path fill-rule="evenodd" clip-rule="evenodd" d="M760.431 1609C747.295 1665.27 719.849 1720.24 674.046 1754.05C649.757 1771.97 621.609 1784.41 594.583 1796.69C563.948 1810.61 531.961 1821.46 499.324 1826.93C458.688 1833.75 392.901 1840.06 371.976 1790.59C351.207 1741.49 404.657 1697.64 436.26 1672.64C456.521 1656.63 478.192 1641.92 497.563 1624.43C508.067 1614.94 516.18 1604.01 525.086 1592.91C549.703 1562.15 584.685 1537.71 620.273 1524.57C654.765 1511.84 697.378 1506.05 733.687 1509.99C749.354 1511.69 760.524 1517.64 765.167 1534.71C771.6 1558.44 765.861 1585.75 760.431 1609Z" stroke="black" stroke-width="5" style="mix-blend-mode:soft-light"/>
<path fill-rule="evenodd" clip-rule="evenodd" d="M739.09 1624.25C726.077 1673.81 698.363 1719.16 658.148 1749.07C613.069 1782.61 555.162 1801.43 501.983 1811.13C473.716 1816.28 412.443 1830.17 398.274 1791.47C384.104 1752.78 425.933 1714.34 450.003 1693.17C479.216 1667.52 510.695 1642.73 542.128 1619.69C569.437 1599.65 598.573 1579.16 628.117 1563.65C644.781 1554.84 662.127 1547.64 679.952 1542.11C693.151 1538.05 709.94 1532.01 723.737 1534.9C758.536 1542.21 745.314 1600.56 739.09 1624.25Z" stroke="#F3F3F3" stroke-width="5"/>
<path fill-rule="evenodd" clip-rule="evenodd" d="M712.769 1639.22C684.304 1732.95 595.559 1779.46 510.275 1795.97C490.457 1799.8 434.885 1813.53 423.985 1785.01C413.422 1757.35 447.713 1724.29 463.768 1708.63C513.518 1660.1 574.847 1623.99 632.969 1588.22C651.112 1577.06 683.855 1552.87 706.217 1563.82C730.496 1575.74 718.667 1619.78 712.769 1639.22Z" stroke="#489A45" stroke-width="5" style="mix-blend-mode:soft-light"/>
<path fill-rule="evenodd" clip-rule="evenodd" d="M684.055 1657.38C659.372 1726.43 588.505 1766.34 523.485 1779.73C507.56 1783 467.103 1793.15 455.165 1773.98C444.119 1756.26 470.874 1730.33 480.888 1720.03C503.18 1697.1 529.552 1678.17 555.603 1659.96C579.689 1643.12 604.037 1625.86 629.362 1611.59C642.7 1604.08 667.728 1588.07 682.771 1599.47C698.967 1611.74 689.536 1642.05 684.055 1657.38Z" stroke="#489A45" stroke-width="5" style="mix-blend-mode:soft-light"/>
<path fill-rule="evenodd" clip-rule="evenodd" d="M652.417 1677.69C633.647 1722.79 583.902 1752.29 540.114 1762.24C528.332 1764.91 502.859 1771.81 493.002 1759.85C483.927 1748.83 498.749 1732.52 505.329 1724.99C534.492 1691.62 577.089 1661.71 616.066 1643.28C625.866 1638.64 643.487 1629.55 653.488 1638.75C663.746 1648.18 656.729 1667.33 652.417 1677.69Z" stroke="black" stroke-width="5" style="mix-blend-mode:soft-light"/>
<path fill-rule="evenodd" clip-rule="evenodd" d="M618.868 1696.77C608.308 1719.17 580.95 1736.18 558.337 1741.68C542.423 1745.54 523.338 1742.38 537.301 1722.85C551.171 1703.47 576.803 1685.7 598.486 1677.77C615.03 1671.72 627.935 1677.53 618.868 1696.77Z" stroke="black" stroke-width="5" style="mix-blend-mode:soft-light"/>
<path fill-rule="evenodd" clip-rule="evenodd" d="M1465.61 1537.36C1466.02 1581.51 1487.64 1627.27 1476.57 1672.32C1467.49 1709.31 1422.78 1712.64 1395.88 1729.53C1374.5 1742.94 1362.28 1766.57 1350.63 1789.24C1340.16 1809.59 1330.74 1830.54 1319.72 1850.56C1312.59 1863.5 1300.32 1888.9 1285.01 1889.45C1270.36 1889.97 1257.03 1870.3 1248.59 1858.67C1237.58 1843.52 1227.83 1827.35 1217.14 1811.95C1199.13 1785.98 1177.45 1766.8 1152.6 1748.68C1124.32 1728.05 1095.58 1708.14 1066.35 1688.93C1044.84 1674.75 1023.18 1660.68 1002.51 1645.08C989.543 1635.3 960.91 1616.96 960.883 1598.78C960.869 1590.11 968.589 1580.47 973.797 1573.51C982.608 1561.73 992.636 1550.94 1002.69 1540.39C1021.43 1520.74 1040.95 1501.96 1060.26 1482.97C1085.32 1458.31 1109.26 1434.06 1131.33 1406.11C1154.15 1377.17 1175.96 1347.29 1198.21 1317.82C1213.28 1297.85 1228.34 1275.43 1249.98 1263.11C1277.09 1247.71 1299.17 1263.67 1326.5 1263.71C1350 1263.75 1347.93 1322.15 1350.82 1338.37C1353.72 1354.79 1360.24 1370.05 1362.71 1386.51C1365.78 1407.05 1365.7 1428.09 1366.37 1448.87C1367.17 1474.29 1367.41 1498.49 1392.7 1508.04C1407.09 1513.47 1422.69 1514.55 1437.6 1517.76C1447.25 1519.85 1465.48 1523.41 1465.61 1537.36Z" stroke="#F3F3F3" stroke-width="5"/>
<path fill-rule="evenodd" clip-rule="evenodd" d="M1454.01 1545.28C1456.26 1582.27 1470.54 1629.56 1456.55 1667.84C1444.61 1700.55 1407.81 1704.98 1382.94 1722.27C1362.42 1736.53 1353.19 1759.72 1342.84 1782.52C1334.53 1800.81 1326.48 1819.27 1317.07 1836.98C1310.14 1850.03 1299.54 1872.05 1285.26 1874.83C1272.43 1877.32 1258.79 1858 1251.65 1848.17C1241.24 1833.82 1232.35 1818.23 1223.16 1802.96C1207.02 1776.15 1190.47 1752.04 1166.74 1732.41C1142.9 1712.7 1116.77 1698 1090.37 1682.7C1069.72 1670.73 1049.18 1658.4 1029.57 1644.56C1014.96 1634.25 993.951 1621.07 987.348 1602.58C982.12 1587.96 1009.2 1563.49 1017.2 1554.86C1033.65 1537.13 1051.08 1520.47 1068.53 1503.91C1089.82 1483.73 1111.76 1466.06 1130.58 1443.07C1164.25 1401.97 1192.49 1350.86 1235.68 1320.21C1261.73 1301.73 1290.63 1296.88 1319.47 1299.46C1330.89 1300.49 1333.53 1317.77 1334.92 1327.85C1337.22 1344.6 1337.42 1361.64 1339.16 1378.46C1340.8 1394.2 1344.54 1409.15 1347.54 1424.57C1350.57 1440.21 1351.35 1456.24 1353.56 1471.98C1354.93 1481.76 1356.27 1493.13 1362.46 1500.96C1368.86 1509.07 1379.47 1512.42 1388.76 1514.96C1406.18 1519.69 1452.42 1519.17 1454.01 1545.28Z" stroke="black" stroke-width="5" style="mix-blend-mode:soft-light"/>
<path fill-rule="evenodd" clip-rule="evenodd" d="M1439.04 1560.85C1442.99 1594.8 1448.55 1637.08 1431.49 1668.47C1417.54 1694.14 1388.09 1699.82 1366.97 1716.61C1349.41 1730.57 1342.68 1752.66 1333.89 1773.21C1326.67 1790.06 1319.41 1806.98 1310.69 1823.02C1304.08 1835.19 1295.55 1851.69 1282.53 1855.99C1271.4 1859.67 1258.94 1843.54 1252.83 1835.51C1242.42 1821.82 1233.96 1806.47 1225.55 1791.32C1211.8 1766.54 1199.17 1740.05 1179.52 1719.93C1160.42 1700.41 1137.66 1688.96 1114.49 1676.06C1096.73 1666.18 1079.1 1655.91 1062.39 1644.1C1049.55 1635.04 1033.65 1624.31 1027.02 1609.15C1021.29 1596.08 1036.29 1580.49 1043.79 1571.2C1056.17 1555.88 1069.9 1541.81 1083.44 1527.68C1098.06 1512.44 1114.23 1498.37 1128.37 1482.75C1158.12 1449.9 1181.94 1413.58 1218.52 1388.34C1242.2 1371.99 1274.04 1357.08 1301.91 1359.57C1321.96 1361.37 1320.36 1408.97 1322.2 1424.16C1325.22 1449.01 1331.19 1475.1 1340.78 1497.95C1349.01 1517.53 1368.8 1523.47 1387.02 1527.77C1398.43 1530.47 1410.4 1531.9 1421.43 1536.11C1434.19 1540.99 1437.39 1546.62 1439.04 1560.85Z" stroke="#489A45" stroke-width="5" style="mix-blend-mode:soft-light"/>
<path fill-rule="evenodd" clip-rule="evenodd" d="M1425.08 1576.85C1427.38 1605.56 1426.63 1639.52 1410.51 1664.46C1396.38 1686.3 1371.41 1692.16 1353.58 1709.4C1339.66 1722.85 1334.1 1744.69 1326.55 1762.42C1317.33 1784.09 1304.36 1824.11 1281.36 1832.37C1259.97 1840.05 1237.92 1791.85 1230.28 1777.48C1218.18 1754.73 1208.09 1729.77 1193.37 1708.79C1180.7 1690.73 1163.63 1680.79 1145.52 1670.12C1122.43 1656.49 1087.35 1640.37 1075.12 1613.62C1066 1593.69 1096.19 1563.81 1106.53 1549.91C1117.33 1535.39 1125.51 1518.2 1136.66 1504.19C1154.25 1482.08 1182.65 1464.2 1206.09 1450.54C1228.89 1437.26 1258.47 1422.53 1284.23 1423.26C1301.16 1423.73 1304.22 1451.75 1307.76 1465.43C1312.82 1484.87 1319.61 1502.29 1334.32 1515.45C1349.29 1528.85 1366.99 1535.1 1385.61 1540.56C1395.16 1543.34 1406.07 1545.49 1414.6 1551.17C1424.03 1557.35 1424.19 1565.82 1425.08 1576.85Z" stroke="black" stroke-width="5" style="mix-blend-mode:soft-light"/>
<path fill-rule="evenodd" clip-rule="evenodd" d="M1408.08 1593.49C1407.8 1618.3 1402.35 1644.79 1386.55 1664.02C1373.39 1680.03 1352.9 1685.47 1340.3 1701.84C1330.32 1714.8 1325.17 1732.94 1318.45 1747.96C1310.23 1766.37 1298.57 1798.5 1278.35 1804.99C1258.62 1811.3 1241.41 1776.06 1233.94 1762.13C1223 1741.69 1214.17 1720.01 1203.13 1699.63C1194.49 1683.64 1183.86 1673.36 1169.68 1663.1C1153.05 1651.05 1129.81 1637.73 1121 1617.69C1114.65 1603.18 1130.36 1579.86 1136.09 1567.01C1139.93 1558.39 1143.45 1549.63 1145.41 1540.29C1146.94 1533.02 1147.12 1526.29 1151.46 1520.03C1162.38 1504.29 1186.14 1502.11 1202.29 1496.85C1223.72 1489.87 1246.47 1481.94 1268.88 1480.33C1282.65 1479.33 1289.59 1492.89 1297.39 1502.41C1306.61 1513.66 1319.71 1521.72 1331.14 1530.19C1346.22 1541.39 1362.67 1548.31 1379.68 1555.4C1387.35 1558.6 1396.37 1561.73 1402.3 1568.15C1408.48 1574.8 1408.18 1584.54 1408.08 1593.49Z" stroke="#F3F3F3" stroke-width="5"/>
<path fill-rule="evenodd" clip-rule="evenodd" d="M1390.24 1608.32C1387.4 1629.17 1378.81 1649.14 1364.41 1663.95C1353.37 1675.32 1338.76 1681.77 1329.87 1695.4C1321.59 1708.12 1315.79 1722.55 1308.94 1736.13C1301.68 1750.49 1290.88 1774.48 1274.32 1778.47C1256.46 1782.76 1242.86 1758.7 1235.34 1745.36C1225.82 1728.5 1218.63 1710.35 1210.14 1692.91C1203.74 1679.9 1195.55 1668.03 1185.85 1657.67C1175.67 1646.75 1161.84 1636.31 1156.75 1621.24C1152.24 1607.9 1160.91 1591.68 1162.5 1578.12C1164.2 1563.62 1161.45 1548.43 1170.49 1535.94C1189.14 1510.19 1235.55 1514.69 1262.09 1514C1288.29 1513.29 1309.26 1528.87 1330.36 1543.68C1344.31 1553.46 1358.84 1561.73 1373.14 1570.84C1387.72 1580.13 1392.74 1589.97 1390.24 1608.32Z" stroke="#489A45" stroke-width="5" style="mix-blend-mode:soft-light"/>
<path fill-rule="evenodd" clip-rule="evenodd" d="M1373.68 1620.34C1365.46 1650.57 1340.25 1666.76 1322.16 1689.67C1307.36 1708.43 1296.12 1747.17 1271.34 1752.42C1243.21 1758.38 1226.69 1707.22 1217.04 1687.5C1206.32 1665.63 1187.12 1647.89 1179.23 1624.72C1175.08 1612.56 1178.77 1601.17 1181.09 1588.97C1183.63 1575.59 1185.56 1561.9 1194.12 1551.09C1210.98 1529.81 1243.66 1529.78 1267.2 1529.07C1291.57 1528.33 1313.04 1542.73 1332.37 1557.11C1352.88 1572.34 1382.1 1589.33 1373.68 1620.34Z" stroke="#489A45" stroke-width="5" style="mix-blend-mode:soft-light"/>
<path fill-rule="evenodd" clip-rule="evenodd" d="M1360.16 1628.6C1350.97 1650.16 1331.83 1667.75 1316.28 1684.34C1303.3 1698.17 1289.27 1725.95 1269.59 1728.04C1246.46 1730.49 1232.62 1700.99 1223.63 1682.9C1214.78 1665.12 1201.99 1646.37 1197.15 1626.84C1192.1 1606.49 1206.02 1578.96 1219.23 1564.47C1233.96 1548.31 1257.95 1542.24 1278.5 1542.77C1300.02 1543.3 1319.69 1556.48 1335.91 1570.18C1353.25 1584.82 1370.84 1603.57 1360.16 1628.6Z" stroke="#F3F3F3" stroke-width="5"/>
<path fill-rule="evenodd" clip-rule="evenodd" d="M1347.64 1632.72C1338.88 1650.65 1323.78 1665.87 1309.87 1679.45C1299.13 1689.93 1283.27 1707.73 1267.87 1708.25C1250.92 1708.82 1236.64 1694.03 1229.99 1678.82C1223.44 1663.82 1216.55 1645 1215.65 1628.51C1213.69 1592.59 1257.88 1552.11 1290.87 1555.2C1322.14 1558.13 1365.1 1596.98 1347.64 1632.72Z" stroke="#489A45" stroke-width="5" style="mix-blend-mode:soft-light"/>
<path fill-rule="evenodd" clip-rule="evenodd" d="M1336.07 1634.75C1323.99 1658.13 1294.79 1691.52 1267.93 1692.45C1237.09 1693.52 1229.57 1656.59 1233.74 1629.77C1237.98 1602.39 1273.75 1562.61 1302.06 1567.8C1329.69 1572.87 1350.38 1607.03 1336.07 1634.75Z" stroke="black" stroke-width="5" style="mix-blend-mode:soft-light"/>
<path fill-rule="evenodd" clip-rule="evenodd" d="M1323.84 1638.59C1313.61 1658.16 1291.9 1682.66 1269.39 1683.52C1242.57 1684.54 1243.25 1653.31 1249.45 1633.85C1255.89 1613.64 1283.93 1579.02 1307.38 1584.34C1330.18 1589.52 1333.64 1619.83 1323.84 1638.59Z" stroke="#F3F3F3" stroke-width="5"/>
<path fill-rule="evenodd" clip-rule="evenodd" d="M1313.19 1640.89C1306.44 1654.86 1289.63 1672.55 1273.75 1673.2C1254.34 1673.98 1258.25 1649.2 1263.34 1637.22C1269.38 1622.96 1289.5 1598.14 1306.25 1602.05C1322.73 1605.91 1318.77 1629.39 1313.19 1640.89Z" stroke="#489A45" stroke-width="5" style="mix-blend-mode:soft-light"/>
<path fill-rule="evenodd" clip-rule="evenodd" d="M404.705 850.217C447.828 822.041 496.529 798.711 542.463 775.018C609.59 740.398 677.698 706.693 748.171 680.791C785.954 666.908 834.926 646.923 875.321 657.416C890.09 661.251 903.512 673.022 916.73 680.647C934.957 691.16 953.455 701.146 971.923 711.154C1008.97 731.217 1046.13 751.075 1082.53 772.44C1100.06 782.731 1117.04 795.72 1135.3 804.481C1145.97 809.605 1158.79 807.11 1170.22 806.72C1196.71 805.811 1223.19 804.219 1249.66 802.842C1282.04 801.161 1314.5 799.384 1346.91 799.8C1361.52 799.991 1397.34 797.014 1405.31 810.465C1409.6 817.709 1399.32 830.871 1394.55 836.961C1385.8 848.153 1375.76 858.25 1365.85 868.245C1342.94 891.36 1318.62 913.386 1298.22 939.177C1287.74 952.436 1274.02 968.64 1280.71 986.625C1287.46 1004.79 1299.24 1020.49 1306.38 1038.59C1314.6 1059.42 1317.94 1081.12 1321.75 1103.24C1324.57 1119.58 1331.28 1134.04 1337.58 1149.09C1344.54 1165.72 1351.75 1182.5 1356.55 1200.05C1359.72 1211.65 1364.83 1232.51 1353.46 1239.93C1337.3 1250.47 1307.17 1242.17 1288.84 1239.19C1263.51 1235.08 1238.37 1229.8 1213.11 1225.28C1194.78 1221.99 1176.38 1218.37 1157.72 1218.08C1127.64 1217.6 1097.44 1219.98 1067.42 1222.2C1011.84 1226.32 956.649 1231.78 900.902 1232.09C852.061 1232.36 739.543 1172.41 713.185 1161.89C660.574 1140.89 606.554 1121.01 556.815 1092.96C543.359 1085.36 522.641 1075.26 515.629 1059.51C511.303 1049.81 513.349 1044.18 503.05 1037.97C488.998 1029.49 470.951 1026.23 455.364 1022.49C430.261 1016.47 404.958 1011.39 379.736 1005.95C328.723 994.983 278.066 982.535 227.27 970.567C211.914 966.95 193.314 966.232 178.692 959.791C169.266 955.655 170.277 950.377 177.628 943.973C190.523 932.736 208.54 926.438 223.733 919.985C245.993 910.533 268.611 902.085 291.239 893.755C313.866 885.425 336.609 877.349 359.247 869.003C374.202 863.507 391.245 859.011 404.705 850.217Z" stroke="#F3F3F3" stroke-width="5"/>
<path fill-rule="evenodd" clip-rule="evenodd" d="M440.024 856.169C485.63 827.922 536.204 805.342 584.96 783.314C647.36 755.106 711.158 728.638 776.836 710.858C815.399 700.426 860.894 688.892 900.169 700.397C914.18 704.502 924.612 713.845 936.595 722.076C950.254 731.469 964.445 740.067 978.637 748.529C1007.85 765.947 1037.38 782.762 1067.22 798.977C1083.02 807.6 1100.41 819.168 1118.3 822.092C1132.53 824.419 1148.73 820.85 1163.04 819.758C1188.81 817.795 1214.58 815.775 1240.36 814.037C1270.11 812.035 1299.94 810.173 1329.74 810.304C1346.35 810.377 1374.87 807.51 1386.55 818.951C1396.75 828.935 1359.22 865.451 1352.62 872.386C1332.01 894.038 1310.34 914.666 1291.13 937.805C1279.78 951.449 1265.96 968.045 1261.11 986.074C1256.97 1001.44 1264.68 1018.88 1269.21 1033.04C1274.87 1050.77 1279.42 1069.16 1286.01 1086.51C1291.89 1101.98 1301.3 1115.73 1309.56 1129.77C1318.65 1145.21 1327.84 1160.91 1334.56 1177.78C1338.67 1188.16 1345.47 1205.54 1337.12 1215.5C1327.48 1226.99 1297.99 1219.68 1285.87 1218.12C1261.27 1214.9 1236.86 1210.05 1212.44 1205.73C1171.86 1198.55 1133.18 1192.29 1091.82 1194.06C1037.95 1196.39 984.113 1201.45 930.25 1204.38C910.36 1205.47 890.147 1207.56 870.252 1206.6C858.847 1206.05 850.182 1202.36 843.595 1193.97C834.6 1182.52 813.765 1176.27 799.288 1169.75C776.714 1159.59 753.851 1150.15 731.053 1140.59C681.004 1119.58 629.986 1099.35 582.563 1072.09C567.56 1063.47 550.379 1053.86 539.327 1039.54C533.16 1031.55 534.771 1023.82 531.028 1015.32C526.071 1004.13 509.591 999.166 499.744 995.553C480.738 988.572 460.939 983.932 441.29 979.592C396.832 969.773 352.247 963.402 307.036 958.777C296.441 957.704 254.716 954.011 276.751 934.988C301.097 913.966 336.136 903.536 364.724 891.608C390.477 880.883 416.247 870.895 440.024 856.169Z" stroke="#F3F3F3" stroke-width="5"/>
<path fill-rule="evenodd" clip-rule="evenodd" d="M502.798 861.002C545.657 836.137 593.084 817.502 639.191 799.67C695.142 778.033 752.478 758.705 811.091 747.732C847.911 740.846 888.493 735.487 924.962 746.396C949.868 753.842 969.049 774.237 990.88 788.22C1012.71 802.204 1035.44 815.318 1058.85 826.225C1073.39 832.994 1089.02 839.807 1105.24 838.814C1144.68 836.405 1184.09 830.963 1223.58 828.209C1249.7 826.371 1275.87 824.831 1302.06 825.106C1317.85 825.268 1339.55 824.132 1353.48 832.96C1368.88 842.725 1286.1 927.268 1278.27 936.776C1258.63 960.615 1234.84 992.241 1238.42 1025.97C1241.84 1058.22 1257.33 1082.22 1274.86 1107.4C1284.81 1121.73 1316.76 1159.97 1304.73 1178.74C1297.86 1189.47 1275.43 1185.89 1264.76 1185.22C1243.75 1183.9 1222.87 1180.93 1201.97 1178.37C1171.51 1174.65 1140.21 1168.83 1109.6 1167.24C1088.29 1166.13 1066.83 1167.89 1045.47 1168.04C1014.85 1168.25 984.224 1168.17 953.6 1168.04C927.887 1167.94 901.955 1168.33 876.346 1165.82C860.425 1164.28 848.354 1160.69 836.987 1150.43C827.096 1141.5 812.126 1136.32 799.486 1130.67C778.61 1121.36 757.455 1112.73 736.37 1103.97C692.224 1085.61 647.568 1067.64 605.345 1044.63C586.07 1034.13 553.645 1019.46 549.258 993.764C547.674 984.501 546.494 980.501 538.076 975.275C526.128 967.86 511.785 964.565 498.348 961.706C467.023 955.041 434.745 956.241 403.472 949.654C390.736 946.939 374.123 941.018 388.759 927.173C405.839 910.981 430.617 901.997 451.024 891.94C461.211 886.923 471.704 882.221 481.385 876.111C488.82 871.402 495.196 865.384 502.798 861.002Z" stroke="#489A45" stroke-width="5" style="mix-blend-mode:soft-light"/>
<path fill-rule="evenodd" clip-rule="evenodd" d="M583.66 868.249C623.241 848.027 666.185 833.246 708.351 819.903C755.185 805.101 803.133 792.791 851.674 787.399C885.192 783.664 920.889 782.42 953.337 793.111C973.858 799.875 987.713 814.258 1005.34 826.288C1031.93 844.471 1060.74 858.835 1092.84 855.125C1128.83 850.974 1164.92 847.81 1201.14 845.633C1222.98 844.318 1244.9 843.303 1266.76 844.015C1280.58 844.461 1298.38 845.241 1310.37 851.887C1326.41 860.787 1265.58 929.519 1257.99 939.529C1239.16 964.355 1225.32 990.372 1217.14 1021.05C1210.47 1046.08 1223.69 1065.65 1237.33 1084.28C1245.82 1095.84 1273.28 1124.89 1264.54 1140.02C1259.75 1148.36 1244.11 1148.01 1235.71 1148.49C1219.7 1149.38 1203.63 1148.63 1187.63 1148.35C1164 1147.91 1138.82 1151.94 1115.41 1148.94C1063.51 1142.29 1011.75 1136.57 959.518 1132.1C930.728 1129.64 901.762 1127.42 873.245 1122.53C863.007 1120.78 852.432 1118.92 842.745 1114.87C836.513 1112.27 833.133 1107.8 827.882 1104.15C802.847 1086.76 770.087 1077.92 741.842 1066.85C704.292 1052.12 666.541 1037.63 630.009 1020.2C610.793 1011.02 583.942 1000.51 570.793 981.649C566.819 975.95 568.553 971.364 566.065 965.878C563.202 959.55 554.404 957.707 548.726 955.971C535.838 952.026 481.831 946.25 506.871 922.556C518.819 911.271 534.001 903.989 547.447 895.096C552.316 891.875 557.063 888.638 561.132 884.305C567.937 877.04 574.624 872.88 583.66 868.249Z" stroke="black" stroke-width="5" style="mix-blend-mode:soft-light"/>
<path fill-rule="evenodd" clip-rule="evenodd" d="M669.816 876.437C747.912 843.644 839.345 821.092 924.261 824.898C952.499 826.169 982.863 830.761 1007.25 846.912C1021.64 856.452 1033.11 867.247 1050.43 870.626C1062.94 873.064 1076.44 870.144 1089.04 869.045C1107.29 867.451 1125.55 866.016 1143.82 864.835C1166.48 863.392 1189.2 862.249 1211.89 862.668C1228.1 862.969 1250.49 862.405 1264.52 871.664C1281.27 882.708 1238.17 935.182 1232.09 944.523C1217.37 967.163 1207.01 989.078 1203.15 1016.29C1202.02 1024.22 1198.31 1032.36 1198.74 1040.34C1199.19 1048.49 1203.83 1055.72 1208.12 1062.11C1213.73 1070.48 1233.24 1090.3 1227.56 1100.58C1224.43 1106.26 1212.76 1107.03 1206.71 1108.27C1195.36 1110.59 1183.85 1111.87 1172.44 1113.73C1153.07 1116.91 1133.8 1127 1114.38 1126.82C1062.17 1126.36 1009.29 1109.29 958.174 1100.04C927.784 1094.52 897.185 1089.53 867.176 1081.99C857.681 1079.6 847.901 1077.13 838.887 1073.05C832.596 1070.2 828.573 1065.07 822.749 1061.87C800.417 1049.59 774.697 1042.2 750.687 1033.98C719.519 1023.29 688.243 1012.92 657.295 1001.53C637.896 994.384 612.935 988.144 596.261 974.791C584.083 965.041 592.462 962.058 598.97 952.879C602.294 948.198 601.56 943.608 603.022 938.321C605.109 930.772 610.92 925.314 616.368 920.407C623.882 913.627 633.872 908.021 640.031 899.726C642.204 896.806 642.124 893.196 643.882 890.652C648.996 883.24 662.472 879.522 669.816 876.437Z" stroke="#F3F3F3" stroke-width="5"/>
<path fill-rule="evenodd" clip-rule="evenodd" d="M752.583 887.514C815.933 866.818 886.356 854.846 953.164 859.856C976.408 861.602 999.781 865.827 1021.39 875.268C1031.22 879.55 1038.59 884.344 1049.39 884.545C1074.44 885.007 1099.59 882.769 1124.65 882.128C1142.58 881.668 1160.6 881.438 1178.48 882.886C1190.43 883.85 1206.6 884.995 1216.35 892.804C1230.52 904.177 1204.6 943.244 1199.3 954.028C1190.53 971.911 1181.82 991.787 1185.14 1012.41C1186.15 1018.71 1187.99 1024.28 1188.19 1030.71C1188.39 1036.24 1187.72 1041.35 1189.51 1046.63C1191.74 1053.17 1201.74 1063.28 1198.25 1069.34C1195.87 1073.47 1188.87 1073.7 1184.22 1075.05C1176.66 1077.23 1169.28 1080.07 1162.15 1083.56C1154.64 1087.24 1148.23 1092.91 1140.45 1095.96C1127.83 1100.91 1113.74 1101.45 1100.5 1101.5C1047.69 1101.7 994.271 1090.82 942.866 1079.43C916.097 1073.49 889.182 1067.16 863.185 1058.08C855.291 1055.32 846.343 1052.56 839.417 1047.43C835.096 1044.23 832.177 1040.21 827.26 1037.81C785.262 1017.36 736.612 1009.95 691.986 995.255C680.37 991.43 615.986 972.136 649.815 953.47C670.367 942.128 692.043 936.903 710.825 921.438C716.547 916.737 720.366 912.851 722.633 905.712C724.126 900.96 720.584 903.386 725.538 898.4C731.547 892.407 745.203 889.926 752.583 887.514Z" stroke="black" stroke-width="5" style="mix-blend-mode:soft-light"/>
<path fill-rule="evenodd" clip-rule="evenodd" d="M818.261 899.186C892.387 882.171 970.79 880.95 1045.9 895.262C1064.84 898.866 1084.57 897.872 1103.76 898.709C1122.4 899.51 1155.56 897.449 1169.01 912.743C1178.77 923.829 1167.98 947.564 1164.22 960.045C1159.43 975.947 1155.23 992.37 1162.85 1007.75C1167.32 1016.75 1173.46 1025.31 1178.25 1034.23C1180.54 1038.49 1185.27 1045.01 1183.26 1049.07C1179.93 1055.76 1164.53 1058.66 1157.04 1061.85C1133.12 1072.04 1107.84 1074.75 1082.32 1074.82C1035.2 1074.95 987.868 1068.3 941.695 1059.18C920.452 1054.99 898.915 1050.51 878.447 1043.12C866.864 1038.95 858.35 1030.82 847.295 1026.03C811.697 1010.6 773.402 1002.47 737.183 988.382C726.7 984.303 687.533 970.747 707.398 954.402C726.631 938.579 754.54 940.294 774.529 925.398C776.791 923.692 779.589 921.651 780.911 918.907C781.693 917.266 780.352 914.158 780.944 913.223C787.115 903.071 808.852 901.343 818.261 899.186Z" stroke="#489A45" stroke-width="5" style="mix-blend-mode:soft-light"/>
<path fill-rule="evenodd" clip-rule="evenodd" d="M866.161 909.901C904.173 904.109 942.995 902.511 981.617 901.947C1002.73 901.639 1025.93 900.07 1046.55 905.688C1059.22 909.148 1071.45 912.168 1084.52 914.32C1098.58 916.638 1121.23 918.255 1129.72 931.186C1136.07 940.848 1131.57 960.807 1131.27 972.6C1130.94 985.533 1133.36 995.109 1141.83 1004.32C1147.15 1010.12 1171.59 1031.14 1168.72 1037.25C1165.98 1043.08 1148.86 1044.06 1141.45 1045.61C1118.03 1050.53 1094.31 1052.33 1070.52 1052.2C1033.67 1052 996.702 1048.18 960.465 1041.45C945.483 1038.66 930 1035.76 915.706 1030.09C906.08 1026.27 898.073 1019.44 888.512 1015.49C861.13 1004.15 832.151 996.506 804.674 984.957C795.857 981.243 767.113 971.386 774.106 955.913C779.937 942.995 799.542 938.966 809.213 930.277C825.666 915.456 845.271 913.079 866.161 909.901Z" stroke="#489A45" stroke-width="5" style="mix-blend-mode:soft-light"/>
<path fill-rule="evenodd" clip-rule="evenodd" d="M890.044 917.175C920.193 913.313 951.031 911.528 981.601 911.281C1001.33 911.122 1022.15 910.719 1041.48 915.367C1051.19 917.699 1059.61 923.231 1068.79 927.16C1078.24 931.2 1091.3 935.695 1095.34 945.055C1099.14 953.852 1097.62 966.724 1100.94 977.337C1103.9 986.755 1110.15 992.548 1116.89 998.886C1121.19 1002.94 1143.26 1020.46 1140.67 1024.37C1137.9 1028.55 1124.58 1028.29 1117.65 1028.9C1098.55 1030.62 1079.39 1031.24 1060.25 1030.76C1034.13 1030.04 1007.82 1027.79 982.177 1022.5C963.986 1018.76 950.302 1009.68 933.36 1003.06C911.412 994.457 888.664 987.687 866.931 978.265C856.102 973.571 840.067 967.543 834.578 955.303C832.467 950.612 830.462 938.663 832.869 933.948C835.76 928.28 846.415 925.825 851.447 924.345C864.052 920.652 877.23 918.817 890.044 917.175Z" stroke="#F3F3F3" stroke-width="5"/>
<path fill-rule="evenodd" clip-rule="evenodd" d="M918.217 926.045C955.904 921.295 998.479 917.206 1036.2 926.142C1051.45 929.749 1066.59 940.598 1072.73 955.47C1075.91 963.159 1076.55 972.326 1081.32 979.767C1084.86 985.268 1089.37 990.229 1093.82 994.849C1096.32 997.459 1112.4 1011.74 1109.27 1014.33C1105.96 1017.05 1097.9 1016.21 1092.39 1016.31C1079.18 1016.55 1065.93 1016.08 1052.78 1015.07C1037.66 1013.92 1022.18 1012.4 1007.53 1008.15C995.716 1004.69 984.973 997.337 973.473 993C943.239 981.507 911.361 972.551 883.014 955.449C876.983 951.814 865.047 946.388 872.366 938.057C881.472 927.678 906.572 927.506 918.217 926.045Z" stroke="black" stroke-width="5" style="mix-blend-mode:soft-light"/>
<path fill-rule="evenodd" clip-rule="evenodd" d="M950.999 934.053C977.835 930.725 1007.59 929.068 1034.48 935.473C1048.1 938.715 1060.22 945.556 1066.08 958.895C1070.27 968.403 1071.36 979.033 1077.11 988.16C1079.15 991.38 1086.65 1000.41 1082.92 1002.41C1074.92 1006.71 1057.17 1001.91 1046.13 999.733C1029.51 996.44 1015.68 987.042 999.893 981.511C975.679 973.033 944.963 968.6 922.935 954.041C901.707 939.963 943.17 935.027 950.999 934.053Z" stroke="black" stroke-width="5" style="mix-blend-mode:soft-light"/>
<path fill-rule="evenodd" clip-rule="evenodd" d="M981.619 941.663C1004.39 938.677 1044.87 937.042 1057.71 959.989C1060.1 964.25 1066.61 987.812 1060.17 989.954C1054.87 991.712 1046.57 988.902 1040.6 986.265C1029.5 981.387 1019.08 976.06 1007.6 972.046C997.828 968.63 987.817 965.486 978.174 961.506C974.08 959.839 966.381 957.832 963.83 953.993C956.962 943.668 974.686 942.569 981.619 941.663Z" fill="#01002D" style="mix-blend-mode:soft-light"/>
<path d="M492.062 48.5801C743.372 49.9812 906.314 148.702 945.955 271.826C985.595 394.95 944.574 538.239 943.968 655.191C943.361 772.143 755.195 874.854 487.787 873.363C220.379 871.873 6.43708 767.151 33.8949 650.118C61.3528 533.084 8.37592 393.087 35.882 266.752C63.3881 140.417 240.753 47.179 492.062 48.5801Z" fill="#489A45"/>
<path d="M492.062 48.5801C743.372 49.9812 906.314 148.702 945.955 271.826C985.595 394.95 944.574 538.239 943.968 655.191C943.361 772.143 755.195 874.854 487.787 873.363C220.379 871.873 6.43708 767.151 33.8949 650.118C61.3528 533.084 8.37592 393.087 35.882 266.752C63.3881 140.417 240.753 47.179 492.062 48.5801Z" stroke="black" stroke-width="5" style="mix-blend-mode:soft-light"/>
<path d="M683.25 580.921C707.319 603.781 741.606 598.764 766.105 572.013C790.604 545.262 785.692 503.407 757.28 486.108C728.868 468.809 697.54 469.424 674.425 495.016C651.31 520.608 659.181 558.06 683.25 580.921Z" fill="#489A45"/>
<path d="M683.25 580.921C707.319 603.781 741.606 598.764 766.105 572.013C790.604 545.262 785.692 503.407 757.28 486.108C728.868 468.809 697.54 469.424 674.425 495.016C651.31 520.608 659.181 558.06 683.25 580.921Z" stroke="black" stroke-width="5" style="mix-blend-mode:soft-light"/>
<path d="M521.511 342.079C574.067 392.098 649.589 380.379 703.955 320.86C758.321 261.34 748.242 169.026 686.035 131.367C623.829 93.7085 554.892 95.6532 503.592 152.586C452.291 209.52 468.956 292.06 521.511 342.079Z" fill="#489A45"/>
<path d="M521.511 342.079C574.067 392.098 649.589 380.379 703.955 320.86C758.321 261.34 748.242 169.026 686.035 131.367C623.829 93.7085 554.892 95.6532 503.592 152.586C452.291 209.52 468.956 292.06 521.511 342.079Z" stroke="black" stroke-width="5" style="mix-blend-mode:soft-light"/>
<path d="M182.943 750.772C222.798 788.666 279.83 780.058 320.741 735.325C361.651 690.593 353.772 620.923 306.66 592.324C259.548 563.725 207.463 564.98 168.862 607.771C130.261 650.562 143.088 712.878 182.943 750.772Z" fill="#489A45"/>
<path d="M182.943 750.772C222.798 788.666 279.83 780.058 320.741 735.325C361.651 690.593 353.772 620.923 306.66 592.324C259.548 563.725 207.463 564.98 168.862 607.771C130.261 650.562 143.088 712.878 182.943 750.772Z" stroke="black" stroke-width="5" style="mix-blend-mode:soft-light"/>
<path d="M646.65 591.053C641.214 600.631 645.108 611.71 655.065 618.044C665.022 624.379 677.649 619.885 681.066 609.24C684.484 598.595 682.155 588.201 672.651 582.249C663.148 576.296 652.086 581.475 646.65 591.053Z" fill="#489A45"/>
<path d="M646.65 591.053C641.214 600.631 645.108 611.71 655.065 618.044C665.022 624.379 677.649 619.885 681.066 609.24C684.484 598.595 682.155 588.201 672.651 582.249C663.148 576.296 652.086 581.475 646.65 591.053Z" stroke="black" stroke-width="5" style="mix-blend-mode:soft-light"/>
<path d="M442.146 364.307C436.71 373.885 440.604 384.964 450.561 391.298C460.518 397.633 473.145 393.139 476.562 382.494C479.98 371.849 477.651 361.455 468.147 355.503C458.644 349.55 447.582 354.729 442.146 364.307Z" fill="#489A45"/>
<path d="M442.146 364.307C436.71 373.885 440.604 384.964 450.561 391.298C460.518 397.633 473.145 393.139 476.562 382.494C479.98 371.849 477.651 361.455 468.147 355.503C458.644 349.55 447.582 354.729 442.146 364.307Z" stroke="black" stroke-width="5" style="mix-blend-mode:soft-light"/>
</svg>
