<svg xmlns="http://www.w3.org/2000/svg" width="998" height="535" fill="none" viewBox="0 0 998 535"><path fill="#fff" d="M494.697 2.66802C761.246 4.10087 934.268 67.7891 976.565 146.873C1018.86 225.957 975.646 317.809 975.243 392.847C974.839 467.886 775.476 533.388 491.852 531.864C208.229 530.339 -18.8983 462.692 9.98451 387.658C38.8673 312.625 -17.6081 222.686 11.3068 141.684C40.2217 60.6825 228.148 1.23517 494.697 2.66802Z"/><path stroke="#000" stroke-width="5" d="M494.697 2.66802C761.246 4.10087 934.268 67.7891 976.565 146.873C1018.86 225.957 975.646 317.809 975.243 392.847C974.839 467.886 775.476 533.388 491.852 531.864C208.229 530.339 -18.8983 462.692 9.98451 387.658C38.8673 312.625 -17.6081 222.686 11.3068 141.684C40.2217 60.6825 228.148 1.23517 494.697 2.66802Z" style="mix-blend-mode:soft-light"/></svg>